<?xml version="1.0" encoding="UTF-8" standalone="no"?>
<!-- Created with Inkscape (http://www.inkscape.org/) -->

<svg
   xmlns:dc="http://purl.org/dc/elements/1.1/"
   xmlns:cc="http://creativecommons.org/ns#"
   xmlns:rdf="http://www.w3.org/1999/02/22-rdf-syntax-ns#"
   xmlns:svg="http://www.w3.org/2000/svg"
   xmlns="http://www.w3.org/2000/svg"
   xmlns:sodipodi="http://sodipodi.sourceforge.net/DTD/sodipodi-0.dtd"
   xmlns:inkscape="http://www.inkscape.org/namespaces/inkscape"
   width="529.16669mm"
   height="529.16669mm"
   viewBox="0 0 529.16668 529.1667"
   version="1.1"
   id="svg2218"
   inkscape:version="0.92.2 (5c3e80d, 2017-08-06)"
   sodipodi:docname="background.svg">
  <defs
     id="defs2212" />
  <sodipodi:namedview
     id="base"
     pagecolor="#ffffff"
     bordercolor="#666666"
     borderopacity="1.0"
     inkscape:pageopacity="0.0"
     inkscape:pageshadow="2"
     inkscape:zoom="0.24748738"
     inkscape:cx="1007.0666"
     inkscape:cy="552.11416"
     inkscape:document-units="mm"
     inkscape:current-layer="g1063"
     showgrid="false"
     fit-margin-top="0"
     fit-margin-left="0"
     fit-margin-right="0"
     fit-margin-bottom="0"
     inkscape:window-width="1278"
     inkscape:window-height="1368"
     inkscape:window-x="1273"
     inkscape:window-y="0"
     inkscape:window-maximized="0" />
  <metadata
     id="metadata2215">
    <rdf:RDF>
      <cc:Work
         rdf:about="">
        <dc:format>image/svg+xml</dc:format>
        <dc:type
           rdf:resource="http://purl.org/dc/dcmitype/StillImage" />
        <dc:title></dc:title>
      </cc:Work>
    </rdf:RDF>
  </metadata>
  <g
     inkscape:label="Layer 1"
     inkscape:groupmode="layer"
     id="layer1"
     transform="translate(116.13545,62.669506)">
    <g
       transform="translate(193.39268,264.2245)"
       style="display:inline"
       id="g1063">
      <g
         transform="translate(-627.02813,540.27262)"
         style="display:inline"
         id="g24861">
        <rect
           ry="0"
           rx="0"
           y="-867.16663"
           x="317.5"
           height="529.16669"
           width="529.16669"
           id="rect24857"
           style="opacity:1;fill:#e9e9e9;fill-opacity:1;stroke:none;stroke-width:1.05833328;stroke-linecap:butt;stroke-linejoin:miter;stroke-miterlimit:4;stroke-dasharray:none;stroke-dashoffset:0;stroke-opacity:1" />
        <path
           inkscape:connector-curvature="0"
           id="circle20174-6"
           d="m 568.85415,-860.17638 a 6.2387305,6.2387305 0 0 0 -6.2389,6.23887 6.2387305,6.2387305 0 0 0 6.2389,6.23891 6.2387305,6.2387305 0 0 0 6.23891,-6.23891 6.2387305,6.2387305 0 0 0 -6.23891,-6.23887 z m 26.45834,0 a 6.2387305,6.2387305 0 0 0 -6.2389,6.23887 6.2387305,6.2387305 0 0 0 6.2389,6.23891 6.2387305,6.2387305 0 0 0 6.2389,-6.23891 6.2387305,6.2387305 0 0 0 -6.2389,-6.23887 z m -52.91667,0.5674 a 5.6715731,5.6715731 0 0 0 -5.67147,5.67147 5.6715731,5.6715731 0 0 0 5.67147,5.67151 5.6715731,5.6715731 0 0 0 5.67148,-5.67151 5.6715731,5.6715731 0 0 0 -5.67148,-5.67147 z m 79.375,0 a 5.6715731,5.6715731 0 0 0 -5.67148,5.67147 5.6715731,5.6715731 0 0 0 5.67148,5.67151 5.6715731,5.6715731 0 0 0 5.67148,-5.67151 5.6715731,5.6715731 0 0 0 -5.67148,-5.67147 z m -105.83333,0.51572 a 5.1559758,5.1559758 0 0 0 -5.15575,5.15575 5.1559758,5.1559758 0 0 0 5.15575,5.15578 5.1559758,5.1559758 0 0 0 5.15575,-5.15578 5.1559758,5.1559758 0 0 0 -5.15575,-5.15575 z m 132.29166,0 a 5.1559758,5.1559758 0 0 0 -5.15575,5.15575 5.1559758,5.1559758 0 0 0 5.15575,5.15578 5.1559758,5.1559758 0 0 0 5.15575,-5.15578 5.1559758,5.1559758 0 0 0 -5.15575,-5.15575 z m -158.74999,0.46871 a 4.6872506,4.6872506 0 0 0 -4.68705,4.68704 4.6872506,4.6872506 0 0 0 4.68705,4.68707 4.6872506,4.6872506 0 0 0 4.68704,-4.68707 4.6872506,4.6872506 0 0 0 -4.68704,-4.68704 z m 185.20833,0 a 4.6872506,4.6872506 0 0 0 -4.68704,4.68704 4.6872506,4.6872506 0 0 0 4.68704,4.68707 4.6872506,4.6872506 0 0 0 4.68704,-4.68707 4.6872506,4.6872506 0 0 0 -4.68704,-4.68704 z m -211.66667,0.42582 a 4.261137,4.261137 0 0 0 -4.26124,4.26122 4.261137,4.261137 0 0 0 4.26124,4.26125 4.261137,4.261137 0 0 0 4.26125,-4.26125 4.261137,4.261137 0 0 0 -4.26125,-4.26122 z m 238.125,0 a 4.261137,4.261137 0 0 0 -4.26125,4.26122 4.261137,4.261137 0 0 0 4.26125,4.26125 4.261137,4.261137 0 0 0 4.26125,-4.26125 4.261137,4.261137 0 0 0 -4.26125,-4.26122 z m -264.58333,0.38757 a 3.8737606,3.8737606 0 0 0 -3.87366,3.87365 3.8737606,3.8737606 0 0 0 3.87366,3.87369 3.8737606,3.8737606 0 0 0 3.87366,-3.87369 3.8737606,3.8737606 0 0 0 -3.87366,-3.87365 z m 291.04166,0 a 3.8737606,3.8737606 0 0 0 -3.87366,3.87365 3.8737606,3.8737606 0 0 0 3.87366,3.87369 3.8737606,3.8737606 0 0 0 3.87366,-3.87369 3.8737606,3.8737606 0 0 0 -3.87366,-3.87365 z m -317.49999,0.35192 a 3.5216007,3.5216007 0 0 0 -3.52174,3.52173 3.5216007,3.5216007 0 0 0 3.52174,3.52177 3.5216007,3.5216007 0 0 0 3.52173,-3.52177 3.5216007,3.5216007 0 0 0 -3.52173,-3.52173 z m 343.95833,0 a 3.5216007,3.5216007 0 0 0 -3.52174,3.52173 3.5216007,3.5216007 0 0 0 3.52174,3.52177 3.5216007,3.5216007 0 0 0 3.52173,-3.52177 3.5216007,3.5216007 0 0 0 -3.52173,-3.52173 z m -370.41667,0.32038 a 3.2014551,3.2014551 0 0 0 -3.20135,3.20135 3.2014551,3.2014551 0 0 0 3.20135,3.20136 3.2014551,3.2014551 0 0 0 3.20136,-3.20136 3.2014551,3.2014551 0 0 0 -3.20136,-3.20135 z m 396.875,0 a 3.2014551,3.2014551 0 0 0 -3.20135,3.20135 3.2014551,3.2014551 0 0 0 3.20135,3.20136 3.2014551,3.2014551 0 0 0 3.20135,-3.20136 3.2014551,3.2014551 0 0 0 -3.20135,-3.20135 z m -423.33333,0.29094 a 2.9104137,2.9104137 0 0 0 -2.91042,2.91041 2.9104137,2.9104137 0 0 0 2.91042,2.91042 2.9104137,2.9104137 0 0 0 2.91042,-2.91042 2.9104137,2.9104137 0 0 0 -2.91042,-2.91041 z m 449.79166,0 a 2.9104137,2.9104137 0 0 0 -2.91042,2.91041 2.9104137,2.9104137 0 0 0 2.91042,2.91042 2.9104137,2.9104137 0 0 0 2.91042,-2.91042 2.9104137,2.9104137 0 0 0 -2.91042,-2.91041 z m -476.24999,0.26458 a 2.6458306,2.6458306 0 0 0 -2.64584,2.64583 2.6458306,2.6458306 0 0 0 2.64584,2.64584 2.6458306,2.6458306 0 0 0 2.64583,-2.64584 2.6458306,2.6458306 0 0 0 -2.64583,-2.64583 z m 502.70832,0 a 2.6458306,2.6458306 0 0 0 -2.64583,2.64583 2.6458306,2.6458306 0 0 0 2.64583,2.64584 2.6458306,2.6458306 0 0 0 2.64584,-2.64584 2.6458306,2.6458306 0 0 0 -2.64584,-2.64583 z m -291.04166,22.86529 a 6.2387305,6.2387305 0 0 0 -6.2389,6.23888 6.2387305,6.2387305 0 0 0 6.2389,6.2389 6.2387305,6.2387305 0 0 0 6.2389,-6.2389 6.2387305,6.2387305 0 0 0 -6.2389,-6.23888 z m 79.375,0 a 6.2387305,6.2387305 0 0 0 -6.2389,6.23888 6.2387305,6.2387305 0 0 0 6.2389,6.2389 6.2387305,6.2387305 0 0 0 6.2389,-6.2389 6.2387305,6.2387305 0 0 0 -6.2389,-6.23888 z m -105.83333,0.5674 a 5.6715731,5.6715731 0 0 0 -5.67148,5.67148 5.6715731,5.6715731 0 0 0 5.67148,5.6715 5.6715731,5.6715731 0 0 0 5.67147,-5.6715 5.6715731,5.6715731 0 0 0 -5.67147,-5.67148 z m 52.91666,0 a 5.6715731,5.6715731 0 0 0 -5.67147,5.67148 5.6715731,5.6715731 0 0 0 5.67147,5.6715 5.6715731,5.6715731 0 0 0 5.67148,-5.6715 5.6715731,5.6715731 0 0 0 -5.67148,-5.67148 z m 26.45834,0 a 5.6715731,5.6715731 0 0 0 -5.67148,5.67148 5.6715731,5.6715731 0 0 0 5.67148,5.6715 5.6715731,5.6715731 0 0 0 5.67147,-5.6715 5.6715731,5.6715731 0 0 0 -5.67147,-5.67148 z m 52.91666,0 a 5.6715731,5.6715731 0 0 0 -5.67147,5.67148 5.6715731,5.6715731 0 0 0 5.67147,5.6715 5.6715731,5.6715731 0 0 0 5.67148,-5.6715 5.6715731,5.6715731 0 0 0 -5.67148,-5.67148 z m -158.74999,0.51573 a 5.1559758,5.1559758 0 0 0 -5.15575,5.15575 5.1559758,5.1559758 0 0 0 5.15575,5.15628 5.1559758,5.1559758 0 0 0 5.15575,-5.15628 5.1559758,5.1559758 0 0 0 -5.15575,-5.15575 z m 185.20833,0 a 5.1559758,5.1559758 0 0 0 -5.15575,5.15575 5.1559758,5.1559758 0 0 0 5.15575,5.15628 5.1559758,5.1559758 0 0 0 5.15575,-5.15628 5.1559758,5.1559758 0 0 0 -5.15575,-5.15575 z m -211.66667,0.46871 a 4.6872506,4.6872506 0 0 0 -4.68704,4.68704 4.6872506,4.6872506 0 0 0 4.68704,4.68757 4.6872506,4.6872506 0 0 0 4.68704,-4.68757 4.6872506,4.6872506 0 0 0 -4.68704,-4.68704 z m 238.125,0 a 4.6872506,4.6872506 0 0 0 -4.68704,4.68704 4.6872506,4.6872506 0 0 0 4.68704,4.68757 4.6872506,4.6872506 0 0 0 4.68704,-4.68757 4.6872506,4.6872506 0 0 0 -4.68704,-4.68704 z m -264.58333,0.42582 a 4.261137,4.261137 0 0 0 -4.26125,4.26122 4.261137,4.261137 0 0 0 4.26125,4.26124 4.261137,4.261137 0 0 0 4.26125,-4.26124 4.261137,4.261137 0 0 0 -4.26125,-4.26122 z m 291.04166,0 a 4.261137,4.261137 0 0 0 -4.26124,4.26122 4.261137,4.261137 0 0 0 4.26124,4.26124 4.261137,4.261137 0 0 0 4.26125,-4.26124 4.261137,4.261137 0 0 0 -4.26125,-4.26122 z m -317.49999,0.38756 a 3.8737606,3.8737606 0 0 0 -3.87366,3.87366 3.8737606,3.8737606 0 0 0 3.87366,3.87368 3.8737606,3.8737606 0 0 0 3.87366,-3.87368 3.8737606,3.8737606 0 0 0 -3.87366,-3.87366 z m 343.95833,0 a 3.8737606,3.8737606 0 0 0 -3.87366,3.87366 3.8737606,3.8737606 0 0 0 3.87366,3.87368 3.8737606,3.8737606 0 0 0 3.87365,-3.87368 3.8737606,3.8737606 0 0 0 -3.87365,-3.87366 z m -370.41667,0.35192 a 3.5216007,3.5216007 0 0 0 -3.52173,3.52174 3.5216007,3.5216007 0 0 0 3.52173,3.52176 3.5216007,3.5216007 0 0 0 3.52174,-3.52176 3.5216007,3.5216007 0 0 0 -3.52174,-3.52174 z m 396.875,0 a 3.5216007,3.5216007 0 0 0 -3.52174,3.52174 3.5216007,3.5216007 0 0 0 3.52174,3.52176 3.5216007,3.5216007 0 0 0 3.52173,-3.52176 3.5216007,3.5216007 0 0 0 -3.52173,-3.52174 z m -423.33333,0.32039 a 3.2014551,3.2014551 0 0 0 -3.20135,3.20135 3.2014551,3.2014551 0 0 0 3.20135,3.20135 3.2014551,3.2014551 0 0 0 3.20135,-3.20135 3.2014551,3.2014551 0 0 0 -3.20135,-3.20135 z m 449.79166,0 a 3.2014551,3.2014551 0 0 0 -3.20135,3.20135 3.2014551,3.2014551 0 0 0 3.20135,3.20135 3.2014551,3.2014551 0 0 0 3.20135,-3.20135 3.2014551,3.2014551 0 0 0 -3.20135,-3.20135 z m -476.24999,0.29093 a 2.9104137,2.9104137 0 0 0 -2.91042,2.91042 2.9104137,2.9104137 0 0 0 2.91042,2.91041 2.9104137,2.9104137 0 0 0 2.91041,-2.91041 2.9104137,2.9104137 0 0 0 -2.91041,-2.91042 z m 502.70832,0 a 2.9104137,2.9104137 0 0 0 -2.91041,2.91042 2.9104137,2.9104137 0 0 0 2.91041,2.91041 2.9104137,2.9104137 0 0 0 2.91042,-2.91041 2.9104137,2.9104137 0 0 0 -2.91042,-2.91042 z m -317.49999,23.12988 a 6.2387305,6.2387305 0 0 0 -6.2389,6.23887 6.2387305,6.2387305 0 0 0 6.2389,6.2389 6.2387305,6.2387305 0 0 0 6.2389,-6.2389 6.2387305,6.2387305 0 0 0 -6.2389,-6.23887 z m 132.29166,0 a 6.2387305,6.2387305 0 0 0 -6.2389,6.23887 6.2387305,6.2387305 0 0 0 6.2389,6.2389 6.2387305,6.2387305 0 0 0 6.2389,-6.2389 6.2387305,6.2387305 0 0 0 -6.2389,-6.23887 z m -158.74999,0.56739 a 5.6715731,5.6715731 0 0 0 -5.67148,5.67148 5.6715731,5.6715731 0 0 0 5.67148,5.6715 5.6715731,5.6715731 0 0 0 5.67147,-5.6715 5.6715731,5.6715731 0 0 0 -5.67147,-5.67148 z m 52.91666,0 a 5.6715731,5.6715731 0 0 0 -5.67147,5.67148 5.6715731,5.6715731 0 0 0 5.67147,5.6715 5.6715731,5.6715731 0 0 0 5.67148,-5.6715 5.6715731,5.6715731 0 0 0 -5.67148,-5.67148 z m 79.375,0 a 5.6715731,5.6715731 0 0 0 -5.67148,5.67148 5.6715731,5.6715731 0 0 0 5.67148,5.6715 5.6715731,5.6715731 0 0 0 5.67148,-5.6715 5.6715731,5.6715731 0 0 0 -5.67148,-5.67148 z m 52.91667,0 a 5.6715731,5.6715731 0 0 0 -5.67148,5.67148 5.6715731,5.6715731 0 0 0 5.67148,5.6715 5.6715731,5.6715731 0 0 0 5.67147,-5.6715 5.6715731,5.6715731 0 0 0 -5.67147,-5.67148 z m -211.66667,0.51573 a 5.1559758,5.1559758 0 0 0 -5.15628,5.15575 5.1559758,5.1559758 0 0 0 5.15628,5.15628 5.1559758,5.1559758 0 0 0 5.15575,-5.15628 5.1559758,5.1559758 0 0 0 -5.15575,-5.15575 z m 105.83333,0 a 5.1559758,5.1559758 0 0 0 -5.15575,5.15575 5.1559758,5.1559758 0 0 0 5.15575,5.15628 5.1559758,5.1559758 0 0 0 5.15575,-5.15628 5.1559758,5.1559758 0 0 0 -5.15575,-5.15575 z m 26.45834,0 a 5.1559758,5.1559758 0 0 0 -5.15575,5.15575 5.1559758,5.1559758 0 0 0 5.15575,5.15628 5.1559758,5.1559758 0 0 0 5.15575,-5.15628 5.1559758,5.1559758 0 0 0 -5.15575,-5.15575 z m 105.83333,0 a 5.1559758,5.1559758 0 0 0 -5.15575,5.15575 5.1559758,5.1559758 0 0 0 5.15575,5.15628 5.1559758,5.1559758 0 0 0 5.15575,-5.15628 5.1559758,5.1559758 0 0 0 -5.15575,-5.15575 z m -264.58333,0.46871 a 4.6872506,4.6872506 0 0 0 -4.68704,4.68704 4.6872506,4.6872506 0 0 0 4.68704,4.68707 4.6872506,4.6872506 0 0 0 4.68704,-4.68707 4.6872506,4.6872506 0 0 0 -4.68704,-4.68704 z m 291.04166,0 a 4.6872506,4.6872506 0 0 0 -4.68704,4.68704 4.6872506,4.6872506 0 0 0 4.68704,4.68707 4.6872506,4.6872506 0 0 0 4.68704,-4.68707 4.6872506,4.6872506 0 0 0 -4.68704,-4.68704 z m -317.49999,0.42582 a 4.261137,4.261137 0 0 0 -4.26125,4.26122 4.261137,4.261137 0 0 0 4.26125,4.26125 4.261137,4.261137 0 0 0 4.26124,-4.26125 4.261137,4.261137 0 0 0 -4.26124,-4.26122 z m 343.95833,0 a 4.261137,4.261137 0 0 0 -4.26125,4.26122 4.261137,4.261137 0 0 0 4.26125,4.26125 4.261137,4.261137 0 0 0 4.26124,-4.26125 4.261137,4.261137 0 0 0 -4.26124,-4.26122 z m -370.41667,0.38756 a 3.8737606,3.8737606 0 0 0 -3.87366,3.87366 3.8737606,3.8737606 0 0 0 3.87366,3.87369 3.8737606,3.8737606 0 0 0 3.87366,-3.87369 3.8737606,3.8737606 0 0 0 -3.87366,-3.87366 z m 396.875,0 a 3.8737606,3.8737606 0 0 0 -3.87366,3.87366 3.8737606,3.8737606 0 0 0 3.87366,3.87369 3.8737606,3.8737606 0 0 0 3.87366,-3.87369 3.8737606,3.8737606 0 0 0 -3.87366,-3.87366 z m -423.33333,0.35192 a 3.5216007,3.5216007 0 0 0 -3.52174,3.52174 3.5216007,3.5216007 0 0 0 3.52174,3.52176 3.5216007,3.5216007 0 0 0 3.52174,-3.52176 3.5216007,3.5216007 0 0 0 -3.52174,-3.52174 z m 449.79166,0 a 3.5216007,3.5216007 0 0 0 -3.52173,3.52174 3.5216007,3.5216007 0 0 0 3.52173,3.52176 3.5216007,3.5216007 0 0 0 3.52174,-3.52176 3.5216007,3.5216007 0 0 0 -3.52174,-3.52174 z m -476.24999,0.32039 a 3.2014551,3.2014551 0 0 0 -3.20135,3.20135 3.2014551,3.2014551 0 0 0 3.20135,3.20135 3.2014551,3.2014551 0 0 0 3.20135,-3.20135 3.2014551,3.2014551 0 0 0 -3.20135,-3.20135 z m 502.70832,0 a 3.2014551,3.2014551 0 0 0 -3.20135,3.20135 3.2014551,3.2014551 0 0 0 3.20135,3.20135 3.2014551,3.2014551 0 0 0 3.20136,-3.20135 3.2014551,3.2014551 0 0 0 -3.20136,-3.20135 z m -343.95832,23.42081 a 6.2387305,6.2387305 0 0 0 -6.23891,6.23887 6.2387305,6.2387305 0 0 0 6.23891,6.2389 6.2387305,6.2387305 0 0 0 6.2389,-6.2389 6.2387305,6.2387305 0 0 0 -6.2389,-6.23887 z m 185.20833,0 a 6.2387305,6.2387305 0 0 0 -6.2389,6.23887 6.2387305,6.2387305 0 0 0 6.2389,6.2389 6.2387305,6.2387305 0 0 0 6.2389,-6.2389 6.2387305,6.2387305 0 0 0 -6.2389,-6.23887 z m -211.66667,0.5674 a 5.6715731,5.6715731 0 0 0 -5.67147,5.67147 5.6715731,5.6715731 0 0 0 5.67147,5.67151 5.6715731,5.6715731 0 0 0 5.67148,-5.67151 5.6715731,5.6715731 0 0 0 -5.67148,-5.67147 z m 52.91667,0 a 5.6715731,5.6715731 0 0 0 -5.67148,5.67147 5.6715731,5.6715731 0 0 0 5.67148,5.67151 5.6715731,5.6715731 0 0 0 5.67147,-5.67151 5.6715731,5.6715731 0 0 0 -5.67147,-5.67147 z m 132.29166,0 a 5.6715731,5.6715731 0 0 0 -5.67147,5.67147 5.6715731,5.6715731 0 0 0 5.67147,5.67151 5.6715731,5.6715731 0 0 0 5.67148,-5.67151 5.6715731,5.6715731 0 0 0 -5.67148,-5.67147 z m 52.91667,0 a 5.6715731,5.6715731 0 0 0 -5.67148,5.67147 5.6715731,5.6715731 0 0 0 5.67148,5.67151 5.6715731,5.6715731 0 0 0 5.67148,-5.67151 5.6715731,5.6715731 0 0 0 -5.67148,-5.67147 z m -264.58333,0.51572 a 5.1559758,5.1559758 0 0 0 -5.15575,5.15575 5.1559758,5.1559758 0 0 0 5.15575,5.15628 5.1559758,5.1559758 0 0 0 5.15575,-5.15628 5.1559758,5.1559758 0 0 0 -5.15575,-5.15575 z m 105.83333,0 a 5.1559758,5.1559758 0 0 0 -5.15575,5.15575 5.1559758,5.1559758 0 0 0 5.15575,5.15628 5.1559758,5.1559758 0 0 0 5.15575,-5.15628 5.1559758,5.1559758 0 0 0 -5.15575,-5.15575 z m 79.375,0 a 5.1559758,5.1559758 0 0 0 -5.15628,5.15575 5.1559758,5.1559758 0 0 0 5.15628,5.15628 5.1559758,5.1559758 0 0 0 5.15575,-5.15628 5.1559758,5.1559758 0 0 0 -5.15575,-5.15575 z m 105.83333,0 a 5.1559758,5.1559758 0 0 0 -5.15575,5.15575 5.1559758,5.1559758 0 0 0 5.15575,5.15628 5.1559758,5.1559758 0 0 0 5.15575,-5.15628 5.1559758,5.1559758 0 0 0 -5.15575,-5.15575 z m -317.49999,0.46871 a 4.6872506,4.6872506 0 0 0 -4.68704,4.68704 4.6872506,4.6872506 0 0 0 4.68704,4.68757 4.6872506,4.6872506 0 0 0 4.68704,-4.68757 4.6872506,4.6872506 0 0 0 -4.68704,-4.68704 z m 158.74999,0 a 4.6872506,4.6872506 0 0 0 -4.68704,4.68704 4.6872506,4.6872506 0 0 0 4.68704,4.68757 4.6872506,4.6872506 0 0 0 4.68705,-4.68757 4.6872506,4.6872506 0 0 0 -4.68705,-4.68704 z m 26.45834,0 a 4.6872506,4.6872506 0 0 0 -4.68704,4.68704 4.6872506,4.6872506 0 0 0 4.68704,4.68757 4.6872506,4.6872506 0 0 0 4.68704,-4.68757 4.6872506,4.6872506 0 0 0 -4.68704,-4.68704 z m 158.75,0 a 4.6872506,4.6872506 0 0 0 -4.68705,4.68704 4.6872506,4.6872506 0 0 0 4.68705,4.68757 4.6872506,4.6872506 0 0 0 4.68704,-4.68757 4.6872506,4.6872506 0 0 0 -4.68704,-4.68704 z m -370.41667,0.42582 a 4.261137,4.261137 0 0 0 -4.26124,4.26122 4.261137,4.261137 0 0 0 4.26124,4.26125 4.261137,4.261137 0 0 0 4.26125,-4.26125 4.261137,4.261137 0 0 0 -4.26125,-4.26122 z m 396.875,0 a 4.261137,4.261137 0 0 0 -4.26125,4.26122 4.261137,4.261137 0 0 0 4.26125,4.26125 4.261137,4.261137 0 0 0 4.26125,-4.26125 4.261137,4.261137 0 0 0 -4.26125,-4.26122 z m -423.33333,0.38756 a 3.8737606,3.8737606 0 0 0 -3.87366,3.87366 3.8737606,3.8737606 0 0 0 3.87366,3.87369 3.8737606,3.8737606 0 0 0 3.87366,-3.87369 3.8737606,3.8737606 0 0 0 -3.87366,-3.87366 z m 449.79166,0 a 3.8737606,3.8737606 0 0 0 -3.87366,3.87366 3.8737606,3.8737606 0 0 0 3.87366,3.87369 3.8737606,3.8737606 0 0 0 3.87366,-3.87369 3.8737606,3.8737606 0 0 0 -3.87366,-3.87366 z m -476.24999,0.35193 a 3.5216007,3.5216007 0 0 0 -3.52174,3.52173 3.5216007,3.5216007 0 0 0 3.52174,3.52177 3.5216007,3.5216007 0 0 0 3.52173,-3.52177 3.5216007,3.5216007 0 0 0 -3.52173,-3.52173 z m 502.70832,0 a 3.5216007,3.5216007 0 0 0 -3.52173,3.52173 3.5216007,3.5216007 0 0 0 3.52173,3.52177 3.5216007,3.5216007 0 0 0 3.52174,-3.52177 3.5216007,3.5216007 0 0 0 -3.52174,-3.52173 z m -370.41666,23.74119 a 6.2387305,6.2387305 0 0 0 -6.2389,6.23888 6.2387305,6.2387305 0 0 0 6.2389,6.2389 6.2387305,6.2387305 0 0 0 6.2389,-6.2389 6.2387305,6.2387305 0 0 0 -6.2389,-6.23888 z m 238.125,0 a 6.2387305,6.2387305 0 0 0 -6.2389,6.23888 6.2387305,6.2387305 0 0 0 6.2389,6.2389 6.2387305,6.2387305 0 0 0 6.2389,-6.2389 6.2387305,6.2387305 0 0 0 -6.2389,-6.23888 z m -264.58333,0.5674 a 5.6715731,5.6715731 0 0 0 -5.67148,5.67148 5.6715731,5.6715731 0 0 0 5.67148,5.6715 5.6715731,5.6715731 0 0 0 5.67148,-5.6715 5.6715731,5.6715731 0 0 0 -5.67148,-5.67148 z m 52.91667,0 a 5.6715731,5.6715731 0 0 0 -5.67148,5.67148 5.6715731,5.6715731 0 0 0 5.67148,5.6715 5.6715731,5.6715731 0 0 0 5.67147,-5.6715 5.6715731,5.6715731 0 0 0 -5.67147,-5.67148 z m 185.20833,0 a 5.6715731,5.6715731 0 0 0 -5.67148,5.67148 5.6715731,5.6715731 0 0 0 5.67148,5.6715 5.6715731,5.6715731 0 0 0 5.67147,-5.6715 5.6715731,5.6715731 0 0 0 -5.67147,-5.67148 z m 52.91666,0 a 5.6715731,5.6715731 0 0 0 -5.67147,5.67148 5.6715731,5.6715731 0 0 0 5.67147,5.6715 5.6715731,5.6715731 0 0 0 5.67148,-5.6715 5.6715731,5.6715731 0 0 0 -5.67148,-5.67148 z m -317.49999,0.51573 a 5.1559758,5.1559758 0 0 0 -5.15575,5.15575 5.1559758,5.1559758 0 0 0 5.15575,5.15577 5.1559758,5.1559758 0 0 0 5.15575,-5.15577 5.1559758,5.1559758 0 0 0 -5.15575,-5.15575 z m 105.83333,0 a 5.1559758,5.1559758 0 0 0 -5.15575,5.15575 5.1559758,5.1559758 0 0 0 5.15575,5.15577 5.1559758,5.1559758 0 0 0 5.15575,-5.15577 5.1559758,5.1559758 0 0 0 -5.15575,-5.15575 z m 132.29166,0 a 5.1559758,5.1559758 0 0 0 -5.15575,5.15575 5.1559758,5.1559758 0 0 0 5.15575,5.15577 5.1559758,5.1559758 0 0 0 5.15575,-5.15577 5.1559758,5.1559758 0 0 0 -5.15575,-5.15575 z m 105.83334,0 a 5.1559758,5.1559758 0 0 0 -5.15575,5.15575 5.1559758,5.1559758 0 0 0 5.15575,5.15577 5.1559758,5.1559758 0 0 0 5.15575,-5.15577 5.1559758,5.1559758 0 0 0 -5.15575,-5.15575 z m -370.41667,0.46871 a 4.6872506,4.6872506 0 0 0 -4.68704,4.68704 4.6872506,4.6872506 0 0 0 4.68704,4.68706 4.6872506,4.6872506 0 0 0 4.68704,-4.68706 4.6872506,4.6872506 0 0 0 -4.68704,-4.68704 z m 158.75,0 a 4.6872506,4.6872506 0 0 0 -4.68704,4.68704 4.6872506,4.6872506 0 0 0 4.68704,4.68706 4.6872506,4.6872506 0 0 0 4.68704,-4.68706 4.6872506,4.6872506 0 0 0 -4.68704,-4.68704 z m 79.375,0 a 4.6872506,4.6872506 0 0 0 -4.68704,4.68704 4.6872506,4.6872506 0 0 0 4.68704,4.68706 4.6872506,4.6872506 0 0 0 4.68704,-4.68706 4.6872506,4.6872506 0 0 0 -4.68704,-4.68704 z m 158.75,0 a 4.6872506,4.6872506 0 0 0 -4.68704,4.68704 4.6872506,4.6872506 0 0 0 4.68704,4.68706 4.6872506,4.6872506 0 0 0 4.68704,-4.68706 4.6872506,4.6872506 0 0 0 -4.68704,-4.68704 z m -423.33333,0.42582 a 4.261137,4.261137 0 0 0 -4.26125,4.26122 4.261137,4.261137 0 0 0 4.26125,4.26124 4.261137,4.261137 0 0 0 4.26125,-4.26124 4.261137,4.261137 0 0 0 -4.26125,-4.26122 z m 211.66666,0 a 4.261137,4.261137 0 0 0 -4.26124,4.26122 4.261137,4.261137 0 0 0 4.26124,4.26124 4.261137,4.261137 0 0 0 4.26125,-4.26124 4.261137,4.261137 0 0 0 -4.26125,-4.26122 z m 26.45834,0 a 4.261137,4.261137 0 0 0 -4.26125,4.26122 4.261137,4.261137 0 0 0 4.26125,4.26124 4.261137,4.261137 0 0 0 4.26124,-4.26124 4.261137,4.261137 0 0 0 -4.26124,-4.26122 z m 211.66666,0 a 4.261137,4.261137 0 0 0 -4.26125,4.26122 4.261137,4.261137 0 0 0 4.26125,4.26124 4.261137,4.261137 0 0 0 4.26125,-4.26124 4.261137,4.261137 0 0 0 -4.26125,-4.26122 z m -476.24999,0.38756 a 3.8737606,3.8737606 0 0 0 -3.87366,3.87366 3.8737606,3.8737606 0 0 0 3.87366,3.87368 3.8737606,3.8737606 0 0 0 3.87366,-3.87368 3.8737606,3.8737606 0 0 0 -3.87366,-3.87366 z m 502.70832,0 a 3.8737606,3.8737606 0 0 0 -3.87365,3.87366 3.8737606,3.8737606 0 0 0 3.87365,3.87368 3.8737606,3.8737606 0 0 0 3.87366,-3.87368 3.8737606,3.8737606 0 0 0 -3.87366,-3.87366 z m -396.87499,24.09311 a 6.2387305,6.2387305 0 0 0 -6.2389,6.23888 6.2387305,6.2387305 0 0 0 6.2389,6.2389 6.2387305,6.2387305 0 0 0 6.2389,-6.2389 6.2387305,6.2387305 0 0 0 -6.2389,-6.23888 z m 291.04166,0 a 6.2387305,6.2387305 0 0 0 -6.2389,6.23888 6.2387305,6.2387305 0 0 0 6.2389,6.2389 6.2387305,6.2387305 0 0 0 6.2389,-6.2389 6.2387305,6.2387305 0 0 0 -6.2389,-6.23888 z m -317.49999,0.5674 a 5.6715731,5.6715731 0 0 0 -5.67148,5.67148 5.6715731,5.6715731 0 0 0 5.67148,5.6715 5.6715731,5.6715731 0 0 0 5.67147,-5.6715 5.6715731,5.6715731 0 0 0 -5.67147,-5.67148 z m 52.91666,0 a 5.6715731,5.6715731 0 0 0 -5.67147,5.67148 5.6715731,5.6715731 0 0 0 5.67147,5.6715 5.6715731,5.6715731 0 0 0 5.67148,-5.6715 5.6715731,5.6715731 0 0 0 -5.67148,-5.67148 z m 238.125,0 a 5.6715731,5.6715731 0 0 0 -5.67148,5.67148 5.6715731,5.6715731 0 0 0 5.67148,5.6715 5.6715731,5.6715731 0 0 0 5.67148,-5.6715 5.6715731,5.6715731 0 0 0 -5.67148,-5.67148 z m 52.91667,0 a 5.6715731,5.6715731 0 0 0 -5.67148,5.67148 5.6715731,5.6715731 0 0 0 5.67148,5.6715 5.6715731,5.6715731 0 0 0 5.67147,-5.6715 5.6715731,5.6715731 0 0 0 -5.67147,-5.67148 z m -370.41667,0.51573 a 5.1559758,5.1559758 0 0 0 -5.15575,5.15575 5.1559758,5.1559758 0 0 0 5.15575,5.15578 5.1559758,5.1559758 0 0 0 5.15575,-5.15578 5.1559758,5.1559758 0 0 0 -5.15575,-5.15575 z m 105.83334,0 a 5.1559758,5.1559758 0 0 0 -5.15575,5.15575 5.1559758,5.1559758 0 0 0 5.15575,5.15578 5.1559758,5.1559758 0 0 0 5.15575,-5.15578 5.1559758,5.1559758 0 0 0 -5.15575,-5.15575 z m 185.20833,0 a 5.1559758,5.1559758 0 0 0 -5.15575,5.15575 5.1559758,5.1559758 0 0 0 5.15575,5.15578 5.1559758,5.1559758 0 0 0 5.15575,-5.15578 5.1559758,5.1559758 0 0 0 -5.15575,-5.15575 z m 105.83333,0 a 5.1559758,5.1559758 0 0 0 -5.15628,5.15575 5.1559758,5.1559758 0 0 0 5.15628,5.15578 5.1559758,5.1559758 0 0 0 5.15575,-5.15578 5.1559758,5.1559758 0 0 0 -5.15575,-5.15575 z m -423.33333,0.46871 a 4.6872506,4.6872506 0 0 0 -4.68704,4.68704 4.6872506,4.6872506 0 0 0 4.68704,4.68707 4.6872506,4.6872506 0 0 0 4.68704,-4.68707 4.6872506,4.6872506 0 0 0 -4.68704,-4.68704 z m 158.75,0 a 4.6872506,4.6872506 0 0 0 -4.68704,4.68704 4.6872506,4.6872506 0 0 0 4.68704,4.68707 4.6872506,4.6872506 0 0 0 4.68704,-4.68707 4.6872506,4.6872506 0 0 0 -4.68704,-4.68704 z m 132.29166,0 a 4.6872506,4.6872506 0 0 0 -4.68704,4.68704 4.6872506,4.6872506 0 0 0 4.68704,4.68707 4.6872506,4.6872506 0 0 0 4.68704,-4.68707 4.6872506,4.6872506 0 0 0 -4.68704,-4.68704 z m 158.75,0 a 4.6872506,4.6872506 0 0 0 -4.68757,4.68704 4.6872506,4.6872506 0 0 0 4.68757,4.68707 4.6872506,4.6872506 0 0 0 4.68704,-4.68707 4.6872506,4.6872506 0 0 0 -4.68704,-4.68704 z m -476.24999,0.42582 a 4.261137,4.261137 0 0 0 -4.26125,4.26122 4.261137,4.261137 0 0 0 4.26125,4.26125 4.261137,4.261137 0 0 0 4.26124,-4.26125 4.261137,4.261137 0 0 0 -4.26124,-4.26122 z m 211.66666,0 a 4.261137,4.261137 0 0 0 -4.26125,4.26122 4.261137,4.261137 0 0 0 4.26125,4.26125 4.261137,4.261137 0 0 0 4.26125,-4.26125 4.261137,4.261137 0 0 0 -4.26125,-4.26122 z m 79.375,0 a 4.261137,4.261137 0 0 0 -4.26125,4.26122 4.261137,4.261137 0 0 0 4.26125,4.26125 4.261137,4.261137 0 0 0 4.26125,-4.26125 4.261137,4.261137 0 0 0 -4.26125,-4.26122 z m 211.66666,0 a 4.261137,4.261137 0 0 0 -4.26124,4.26122 4.261137,4.261137 0 0 0 4.26124,4.26125 4.261137,4.261137 0 0 0 4.26125,-4.26125 4.261137,4.261137 0 0 0 -4.26125,-4.26122 z m -264.58333,0.38756 a 3.8737606,3.8737606 0 0 0 -3.87365,3.87366 3.8737606,3.8737606 0 0 0 3.87365,3.87368 3.8737606,3.8737606 0 0 0 3.87366,-3.87368 3.8737606,3.8737606 0 0 0 -3.87366,-3.87366 z m 26.45834,0 a 3.8737606,3.8737606 0 0 0 -3.87366,3.87366 3.8737606,3.8737606 0 0 0 3.87366,3.87368 3.8737606,3.8737606 0 0 0 3.87366,-3.87368 3.8737606,3.8737606 0 0 0 -3.87366,-3.87366 z m -185.20833,24.09312 a 6.2387305,6.2387305 0 0 0 -6.2389,6.23887 6.2387305,6.2387305 0 0 0 6.2389,6.2389 6.2387305,6.2387305 0 0 0 6.2389,-6.2389 6.2387305,6.2387305 0 0 0 -6.2389,-6.23887 z m 343.95833,0 a 6.2387305,6.2387305 0 0 0 -6.23891,6.23887 6.2387305,6.2387305 0 0 0 6.23891,6.2389 6.2387305,6.2387305 0 0 0 6.2389,-6.2389 6.2387305,6.2387305 0 0 0 -6.2389,-6.23887 z m -370.41667,0.5674 a 5.6715731,5.6715731 0 0 0 -5.67147,5.67147 5.6715731,5.6715731 0 0 0 5.67147,5.6715 5.6715731,5.6715731 0 0 0 5.67148,-5.6715 5.6715731,5.6715731 0 0 0 -5.67148,-5.67147 z m 52.91667,0 a 5.6715731,5.6715731 0 0 0 -5.67148,5.67147 5.6715731,5.6715731 0 0 0 5.67148,5.6715 5.6715731,5.6715731 0 0 0 5.67148,-5.6715 5.6715731,5.6715731 0 0 0 -5.67148,-5.67147 z m 291.04166,0 a 5.6715731,5.6715731 0 0 0 -5.67147,5.67147 5.6715731,5.6715731 0 0 0 5.67147,5.6715 5.6715731,5.6715731 0 0 0 5.67148,-5.6715 5.6715731,5.6715731 0 0 0 -5.67148,-5.67147 z m 52.91667,0 a 5.6715731,5.6715731 0 0 0 -5.67148,5.67147 5.6715731,5.6715731 0 0 0 5.67148,5.6715 5.6715731,5.6715731 0 0 0 5.67147,-5.6715 5.6715731,5.6715731 0 0 0 -5.67147,-5.67147 z m -423.33333,0.51572 a 5.1559758,5.1559758 0 0 0 -5.15575,5.15575 5.1559758,5.1559758 0 0 0 5.15575,5.15578 5.1559758,5.1559758 0 0 0 5.15575,-5.15578 5.1559758,5.1559758 0 0 0 -5.15575,-5.15575 z m 105.83333,0 a 5.1559758,5.1559758 0 0 0 -5.15628,5.15575 5.1559758,5.1559758 0 0 0 5.15628,5.15578 5.1559758,5.1559758 0 0 0 5.15575,-5.15578 5.1559758,5.1559758 0 0 0 -5.15575,-5.15575 z m 238.125,0 a 5.1559758,5.1559758 0 0 0 -5.15575,5.15575 5.1559758,5.1559758 0 0 0 5.15575,5.15578 5.1559758,5.1559758 0 0 0 5.15575,-5.15578 5.1559758,5.1559758 0 0 0 -5.15575,-5.15575 z m 105.83333,0 a 5.1559758,5.1559758 0 0 0 -5.15628,5.15575 5.1559758,5.1559758 0 0 0 5.15628,5.15578 5.1559758,5.1559758 0 0 0 5.15575,-5.15578 5.1559758,5.1559758 0 0 0 -5.15575,-5.15575 z m -476.24999,0.46871 a 4.6872506,4.6872506 0 0 0 -4.68704,4.68704 4.6872506,4.6872506 0 0 0 4.68704,4.68707 4.6872506,4.6872506 0 0 0 4.68704,-4.68707 4.6872506,4.6872506 0 0 0 -4.68704,-4.68704 z m 158.75,0 a 4.6872506,4.6872506 0 0 0 -4.68705,4.68704 4.6872506,4.6872506 0 0 0 4.68705,4.68707 4.6872506,4.6872506 0 0 0 4.68704,-4.68707 4.6872506,4.6872506 0 0 0 -4.68704,-4.68704 z m 185.20833,0 a 4.6872506,4.6872506 0 0 0 -4.68704,4.68704 4.6872506,4.6872506 0 0 0 4.68704,4.68707 4.6872506,4.6872506 0 0 0 4.68704,-4.68707 4.6872506,4.6872506 0 0 0 -4.68704,-4.68704 z m 158.74999,0 a 4.6872506,4.6872506 0 0 0 -4.68757,4.68704 4.6872506,4.6872506 0 0 0 4.68757,4.68707 4.6872506,4.6872506 0 0 0 4.68705,-4.68707 4.6872506,4.6872506 0 0 0 -4.68705,-4.68704 z m -317.49999,0.42582 a 4.261137,4.261137 0 0 0 -4.26125,4.26122 4.261137,4.261137 0 0 0 4.26125,4.26125 4.261137,4.261137 0 0 0 4.26125,-4.26125 4.261137,4.261137 0 0 0 -4.26125,-4.26122 z m 132.29166,0 a 4.261137,4.261137 0 0 0 -4.26124,4.26122 4.261137,4.261137 0 0 0 4.26124,4.26125 4.261137,4.261137 0 0 0 4.26125,-4.26125 4.261137,4.261137 0 0 0 -4.26125,-4.26122 z m -105.83333,0.38756 a 3.8737606,3.8737606 0 0 0 -3.87366,3.87366 3.8737606,3.8737606 0 0 0 3.87366,3.87369 3.8737606,3.8737606 0 0 0 3.87366,-3.87369 3.8737606,3.8737606 0 0 0 -3.87366,-3.87366 z m 79.375,0 a 3.8737606,3.8737606 0 0 0 -3.87366,3.87366 3.8737606,3.8737606 0 0 0 3.87366,3.87369 3.8737606,3.8737606 0 0 0 3.87366,-3.87369 3.8737606,3.8737606 0 0 0 -3.87366,-3.87366 z m -52.91667,0.35193 a 3.5216007,3.5216007 0 0 0 -3.52173,3.52173 3.5216007,3.5216007 0 0 0 3.52173,3.52177 3.5216007,3.5216007 0 0 0 3.52174,-3.52177 3.5216007,3.5216007 0 0 0 -3.52174,-3.52173 z m 26.45834,0 a 3.5216007,3.5216007 0 0 0 -3.52174,3.52173 3.5216007,3.5216007 0 0 0 3.52174,3.52177 3.5216007,3.5216007 0 0 0 3.52173,-3.52177 3.5216007,3.5216007 0 0 0 -3.52173,-3.52173 z m -211.66667,23.74119 a 6.2387305,6.2387305 0 0 0 -6.2389,6.23888 6.2387305,6.2387305 0 0 0 6.2389,6.2389 6.2387305,6.2387305 0 0 0 6.2389,-6.2389 6.2387305,6.2387305 0 0 0 -6.2389,-6.23888 z m 396.875,0 a 6.2387305,6.2387305 0 0 0 -6.2389,6.23888 6.2387305,6.2387305 0 0 0 6.2389,6.2389 6.2387305,6.2387305 0 0 0 6.2389,-6.2389 6.2387305,6.2387305 0 0 0 -6.2389,-6.23888 z m -423.33333,0.5674 a 5.6715731,5.6715731 0 0 0 -5.67148,5.67148 5.6715731,5.6715731 0 0 0 5.67148,5.6715 5.6715731,5.6715731 0 0 0 5.67148,-5.6715 5.6715731,5.6715731 0 0 0 -5.67148,-5.67148 z m 52.91667,0 a 5.6715731,5.6715731 0 0 0 -5.67148,5.67148 5.6715731,5.6715731 0 0 0 5.67148,5.6715 5.6715731,5.6715731 0 0 0 5.67147,-5.6715 5.6715731,5.6715731 0 0 0 -5.67147,-5.67148 z m 343.95833,0 a 5.6715731,5.6715731 0 0 0 -5.67148,5.67148 5.6715731,5.6715731 0 0 0 5.67148,5.6715 5.6715731,5.6715731 0 0 0 5.67147,-5.6715 5.6715731,5.6715731 0 0 0 -5.67147,-5.67148 z m 52.91666,0 a 5.6715731,5.6715731 0 0 0 -5.67147,5.67148 5.6715731,5.6715731 0 0 0 5.67147,5.6715 5.6715731,5.6715731 0 0 0 5.67148,-5.6715 5.6715731,5.6715731 0 0 0 -5.67148,-5.67148 z m -476.24999,0.51573 a 5.1559758,5.1559758 0 0 0 -5.15575,5.15575 5.1559758,5.1559758 0 0 0 5.15575,5.15577 5.1559758,5.1559758 0 0 0 5.15575,-5.15577 5.1559758,5.1559758 0 0 0 -5.15575,-5.15575 z m 105.83333,0 a 5.1559758,5.1559758 0 0 0 -5.15575,5.15575 5.1559758,5.1559758 0 0 0 5.15575,5.15577 5.1559758,5.1559758 0 0 0 5.15575,-5.15577 5.1559758,5.1559758 0 0 0 -5.15575,-5.15575 z m 291.04166,0 a 5.1559758,5.1559758 0 0 0 -5.15575,5.15575 5.1559758,5.1559758 0 0 0 5.15575,5.15577 5.1559758,5.1559758 0 0 0 5.15575,-5.15577 5.1559758,5.1559758 0 0 0 -5.15575,-5.15575 z m 105.83333,0 a 5.1559758,5.1559758 0 0 0 -5.15627,5.15575 5.1559758,5.1559758 0 0 0 5.15627,5.15577 5.1559758,5.1559758 0 0 0 5.15575,-5.15577 5.1559758,5.1559758 0 0 0 -5.15575,-5.15575 z m -370.41666,0.4687 a 4.6872506,4.6872506 0 0 0 -4.68704,4.68705 4.6872506,4.6872506 0 0 0 4.68704,4.68706 4.6872506,4.6872506 0 0 0 4.68704,-4.68706 4.6872506,4.6872506 0 0 0 -4.68704,-4.68705 z m 238.125,0 a 4.6872506,4.6872506 0 0 0 -4.68704,4.68705 4.6872506,4.6872506 0 0 0 4.68704,4.68706 4.6872506,4.6872506 0 0 0 4.68704,-4.68706 4.6872506,4.6872506 0 0 0 -4.68704,-4.68705 z m -211.66666,0.42583 a 4.261137,4.261137 0 0 0 -4.26125,4.26122 4.261137,4.261137 0 0 0 4.26125,4.26124 4.261137,4.261137 0 0 0 4.26124,-4.26124 4.261137,4.261137 0 0 0 -4.26124,-4.26122 z m 185.20833,0 a 4.261137,4.261137 0 0 0 -4.26125,4.26122 4.261137,4.261137 0 0 0 4.26125,4.26124 4.261137,4.261137 0 0 0 4.26124,-4.26124 4.261137,4.261137 0 0 0 -4.26124,-4.26122 z m -158.75,0.38756 a 3.8737606,3.8737606 0 0 0 -3.87366,3.87366 3.8737606,3.8737606 0 0 0 3.87366,3.87368 3.8737606,3.8737606 0 0 0 3.87366,-3.87368 3.8737606,3.8737606 0 0 0 -3.87366,-3.87366 z m 132.29166,0 a 3.8737606,3.8737606 0 0 0 -3.87366,3.87366 3.8737606,3.8737606 0 0 0 3.87366,3.87368 3.8737606,3.8737606 0 0 0 3.87366,-3.87368 3.8737606,3.8737606 0 0 0 -3.87366,-3.87366 z m -105.83333,0.35192 a 3.5216007,3.5216007 0 0 0 -3.52173,3.52174 3.5216007,3.5216007 0 0 0 3.52173,3.52176 3.5216007,3.5216007 0 0 0 3.52174,-3.52176 3.5216007,3.5216007 0 0 0 -3.52174,-3.52174 z m 79.375,0 a 3.5216007,3.5216007 0 0 0 -3.52174,3.52174 3.5216007,3.5216007 0 0 0 3.52174,3.52176 3.5216007,3.5216007 0 0 0 3.52174,-3.52176 3.5216007,3.5216007 0 0 0 -3.52174,-3.52174 z m -52.91667,0.32038 a 3.2014551,3.2014551 0 0 0 -3.20135,3.20136 3.2014551,3.2014551 0 0 0 3.20135,3.20135 3.2014551,3.2014551 0 0 0 3.20136,-3.20135 3.2014551,3.2014551 0 0 0 -3.20136,-3.20136 z m 26.45834,0 a 3.2014551,3.2014551 0 0 0 -3.20135,3.20136 3.2014551,3.2014551 0 0 0 3.20135,3.20135 3.2014551,3.2014551 0 0 0 3.20135,-3.20135 3.2014551,3.2014551 0 0 0 -3.20135,-3.20136 z m -238.125,23.42081 a 6.2387305,6.2387305 0 0 0 -6.2389,6.23888 6.2387305,6.2387305 0 0 0 6.2389,6.2389 6.2387305,6.2387305 0 0 0 6.2389,-6.2389 6.2387305,6.2387305 0 0 0 -6.2389,-6.23888 z m 449.79166,0 a 6.2387305,6.2387305 0 0 0 -6.2389,6.23888 6.2387305,6.2387305 0 0 0 6.2389,6.2389 6.2387305,6.2387305 0 0 0 6.2389,-6.2389 6.2387305,6.2387305 0 0 0 -6.2389,-6.23888 z m -476.24999,0.5674 a 5.6715731,5.6715731 0 0 0 -5.67148,5.67148 5.6715731,5.6715731 0 0 0 5.67148,5.6715 5.6715731,5.6715731 0 0 0 5.67147,-5.6715 5.6715731,5.6715731 0 0 0 -5.67147,-5.67148 z m 52.91666,0 a 5.6715731,5.6715731 0 0 0 -5.67147,5.67148 5.6715731,5.6715731 0 0 0 5.67147,5.6715 5.6715731,5.6715731 0 0 0 5.67148,-5.6715 5.6715731,5.6715731 0 0 0 -5.67148,-5.67148 z m 396.875,0 a 5.6715731,5.6715731 0 0 0 -5.67148,5.67148 5.6715731,5.6715731 0 0 0 5.67148,5.6715 5.6715731,5.6715731 0 0 0 5.67147,-5.6715 5.6715731,5.6715731 0 0 0 -5.67147,-5.67148 z m 52.91666,0 a 5.6715731,5.6715731 0 0 0 -5.67147,5.67148 5.6715731,5.6715731 0 0 0 5.67147,5.6715 5.6715731,5.6715731 0 0 0 5.67148,-5.6715 5.6715731,5.6715731 0 0 0 -5.67148,-5.67148 z m -423.33332,0.51573 a 5.1559758,5.1559758 0 0 0 -5.15575,5.15575 5.1559758,5.1559758 0 0 0 5.15575,5.15578 5.1559758,5.1559758 0 0 0 5.15575,-5.15578 5.1559758,5.1559758 0 0 0 -5.15575,-5.15575 z m 343.95833,0 a 5.1559758,5.1559758 0 0 0 -5.15575,5.15575 5.1559758,5.1559758 0 0 0 5.15575,5.15578 5.1559758,5.1559758 0 0 0 5.15575,-5.15578 5.1559758,5.1559758 0 0 0 -5.15575,-5.15575 z m -317.5,0.46871 a 4.6872506,4.6872506 0 0 0 -4.68704,4.68704 4.6872506,4.6872506 0 0 0 4.68704,4.68707 4.6872506,4.6872506 0 0 0 4.68704,-4.68707 4.6872506,4.6872506 0 0 0 -4.68704,-4.68704 z m 291.04166,0 a 4.6872506,4.6872506 0 0 0 -4.68704,4.68704 4.6872506,4.6872506 0 0 0 4.68704,4.68707 4.6872506,4.6872506 0 0 0 4.68704,-4.68707 4.6872506,4.6872506 0 0 0 -4.68704,-4.68704 z m -264.58333,0.42582 a 4.261137,4.261137 0 0 0 -4.26124,4.26122 4.261137,4.261137 0 0 0 4.26124,4.26125 4.261137,4.261137 0 0 0 4.26125,-4.26125 4.261137,4.261137 0 0 0 -4.26125,-4.26122 z m 238.125,0 a 4.261137,4.261137 0 0 0 -4.26125,4.26122 4.261137,4.261137 0 0 0 4.26125,4.26125 4.261137,4.261137 0 0 0 4.26125,-4.26125 4.261137,4.261137 0 0 0 -4.26125,-4.26122 z m -211.66666,0.38756 a 3.8737606,3.8737606 0 0 0 -3.87366,3.87366 3.8737606,3.8737606 0 0 0 3.87366,3.87368 3.8737606,3.8737606 0 0 0 3.87365,-3.87368 3.8737606,3.8737606 0 0 0 -3.87365,-3.87366 z m 185.20833,0 a 3.8737606,3.8737606 0 0 0 -3.87366,3.87366 3.8737606,3.8737606 0 0 0 3.87366,3.87368 3.8737606,3.8737606 0 0 0 3.87366,-3.87368 3.8737606,3.8737606 0 0 0 -3.87366,-3.87366 z m -158.75,0.35192 a 3.5216007,3.5216007 0 0 0 -3.52174,3.52174 3.5216007,3.5216007 0 0 0 3.52174,3.52176 3.5216007,3.5216007 0 0 0 3.52173,-3.52176 3.5216007,3.5216007 0 0 0 -3.52173,-3.52174 z m 132.29166,0 a 3.5216007,3.5216007 0 0 0 -3.52173,3.52174 3.5216007,3.5216007 0 0 0 3.52173,3.52176 3.5216007,3.5216007 0 0 0 3.52174,-3.52176 3.5216007,3.5216007 0 0 0 -3.52174,-3.52174 z m -105.83333,0.32039 a 3.2014551,3.2014551 0 0 0 -3.20135,3.20135 3.2014551,3.2014551 0 0 0 3.20135,3.20135 3.2014551,3.2014551 0 0 0 3.20135,-3.20135 3.2014551,3.2014551 0 0 0 -3.20135,-3.20135 z m 79.375,0 a 3.2014551,3.2014551 0 0 0 -3.20135,3.20135 3.2014551,3.2014551 0 0 0 3.20135,3.20135 3.2014551,3.2014551 0 0 0 3.20135,-3.20135 3.2014551,3.2014551 0 0 0 -3.20135,-3.20135 z m -52.91667,0.29093 a 2.9104137,2.9104137 0 0 0 -2.91041,2.91042 2.9104137,2.9104137 0 0 0 2.91041,2.91042 2.9104137,2.9104137 0 0 0 2.91042,-2.91042 2.9104137,2.9104137 0 0 0 -2.91042,-2.91042 z m 26.45834,0 a 2.9104137,2.9104137 0 0 0 -2.91042,2.91042 2.9104137,2.9104137 0 0 0 2.91042,2.91042 2.9104137,2.9104137 0 0 0 2.91041,-2.91042 2.9104137,2.9104137 0 0 0 -2.91041,-2.91042 z m -264.58333,23.12988 a 6.2387305,6.2387305 0 0 0 -6.2389,6.23887 6.2387305,6.2387305 0 0 0 6.2389,6.2389 6.2387305,6.2387305 0 0 0 6.2389,-6.2389 6.2387305,6.2387305 0 0 0 -6.2389,-6.23887 z m 502.70832,0 a 6.2387305,6.2387305 0 0 0 -6.2389,6.23887 6.2387305,6.2387305 0 0 0 6.2389,6.2389 6.2387305,6.2387305 0 0 0 6.23891,-6.2389 6.2387305,6.2387305 0 0 0 -6.23891,-6.23887 z m -476.24999,0.5674 a 5.6715731,5.6715731 0 0 0 -5.67148,5.67147 5.6715731,5.6715731 0 0 0 5.67148,5.6715 5.6715731,5.6715731 0 0 0 5.67148,-5.6715 5.6715731,5.6715731 0 0 0 -5.67148,-5.67147 z m 449.79166,0 a 5.6715731,5.6715731 0 0 0 -5.67147,5.67147 5.6715731,5.6715731 0 0 0 5.67147,5.6715 5.6715731,5.6715731 0 0 0 5.67148,-5.6715 5.6715731,5.6715731 0 0 0 -5.67148,-5.67147 z m -423.33333,0.51572 a 5.1559758,5.1559758 0 0 0 -5.15575,5.15575 5.1559758,5.1559758 0 0 0 5.15575,5.15578 5.1559758,5.1559758 0 0 0 5.15575,-5.15578 5.1559758,5.1559758 0 0 0 -5.15575,-5.15575 z m 396.875,0 a 5.1559758,5.1559758 0 0 0 -5.15628,5.15575 5.1559758,5.1559758 0 0 0 5.15628,5.15578 5.1559758,5.1559758 0 0 0 5.15575,-5.15578 5.1559758,5.1559758 0 0 0 -5.15575,-5.15575 z m -370.41666,0.46871 a 4.6872506,4.6872506 0 0 0 -4.68704,4.68704 4.6872506,4.6872506 0 0 0 4.68704,4.68707 4.6872506,4.6872506 0 0 0 4.68704,-4.68707 4.6872506,4.6872506 0 0 0 -4.68704,-4.68704 z m 343.95833,0 a 4.6872506,4.6872506 0 0 0 -4.68705,4.68704 4.6872506,4.6872506 0 0 0 4.68705,4.68707 4.6872506,4.6872506 0 0 0 4.68704,-4.68707 4.6872506,4.6872506 0 0 0 -4.68704,-4.68704 z m -317.5,0.42582 a 4.261137,4.261137 0 0 0 -4.26125,4.26122 4.261137,4.261137 0 0 0 4.26125,4.26125 4.261137,4.261137 0 0 0 4.26125,-4.26125 4.261137,4.261137 0 0 0 -4.26125,-4.26122 z m 291.04166,0 a 4.261137,4.261137 0 0 0 -4.26124,4.26122 4.261137,4.261137 0 0 0 4.26124,4.26125 4.261137,4.261137 0 0 0 4.26125,-4.26125 4.261137,4.261137 0 0 0 -4.26125,-4.26122 z m -264.58333,0.38756 a 3.8737606,3.8737606 0 0 0 -3.87366,3.87366 3.8737606,3.8737606 0 0 0 3.87366,3.87369 3.8737606,3.8737606 0 0 0 3.87366,-3.87369 3.8737606,3.8737606 0 0 0 -3.87366,-3.87366 z m 238.125,0 a 3.8737606,3.8737606 0 0 0 -3.87366,3.87366 3.8737606,3.8737606 0 0 0 3.87366,3.87369 3.8737606,3.8737606 0 0 0 3.87366,-3.87369 3.8737606,3.8737606 0 0 0 -3.87366,-3.87366 z m -211.66666,0.35193 a 3.5216007,3.5216007 0 0 0 -3.52174,3.52173 3.5216007,3.5216007 0 0 0 3.52174,3.52176 3.5216007,3.5216007 0 0 0 3.52173,-3.52176 3.5216007,3.5216007 0 0 0 -3.52173,-3.52173 z m 185.20833,0 a 3.5216007,3.5216007 0 0 0 -3.52174,3.52173 3.5216007,3.5216007 0 0 0 3.52174,3.52176 3.5216007,3.5216007 0 0 0 3.52173,-3.52176 3.5216007,3.5216007 0 0 0 -3.52173,-3.52173 z m -158.75,0.32038 a 3.2014551,3.2014551 0 0 0 -3.20135,3.20135 3.2014551,3.2014551 0 0 0 3.20135,3.20135 3.2014551,3.2014551 0 0 0 3.20135,-3.20135 3.2014551,3.2014551 0 0 0 -3.20135,-3.20135 z m 132.29166,0 a 3.2014551,3.2014551 0 0 0 -3.20135,3.20135 3.2014551,3.2014551 0 0 0 3.20135,3.20135 3.2014551,3.2014551 0 0 0 3.20136,-3.20135 3.2014551,3.2014551 0 0 0 -3.20136,-3.20135 z m -105.83333,0.29093 a 2.9104137,2.9104137 0 0 0 -2.91042,2.91042 2.9104137,2.9104137 0 0 0 2.91042,2.91042 2.9104137,2.9104137 0 0 0 2.91042,-2.91042 2.9104137,2.9104137 0 0 0 -2.91042,-2.91042 z m 79.375,0 a 2.9104137,2.9104137 0 0 0 -2.91042,2.91042 2.9104137,2.9104137 0 0 0 2.91042,2.91042 2.9104137,2.9104137 0 0 0 2.91042,-2.91042 2.9104137,2.9104137 0 0 0 -2.91042,-2.91042 z m -52.91667,0.26459 a 2.6458306,2.6458306 0 0 0 -2.64583,2.64583 2.6458306,2.6458306 0 0 0 2.64583,2.64583 2.6458306,2.6458306 0 0 0 2.64584,-2.64583 2.6458306,2.6458306 0 0 0 -2.64584,-2.64583 z m 26.45834,0 a 2.6458306,2.6458306 0 0 0 -2.64584,2.64583 2.6458306,2.6458306 0 0 0 2.64584,2.64583 2.6458306,2.6458306 0 0 0 2.64583,-2.64583 2.6458306,2.6458306 0 0 0 -2.64583,-2.64583 z m -264.58333,22.86529 a 6.2387305,6.2387305 0 0 0 -6.2389,6.23887 6.2387305,6.2387305 0 0 0 6.2389,6.23891 6.2387305,6.2387305 0 0 0 6.2389,-6.23891 6.2387305,6.2387305 0 0 0 -6.2389,-6.23887 z m 502.70832,0 a 6.2387305,6.2387305 0 0 0 -6.2389,6.23887 6.2387305,6.2387305 0 0 0 6.2389,6.23891 6.2387305,6.2387305 0 0 0 6.23891,-6.23891 6.2387305,6.2387305 0 0 0 -6.23891,-6.23887 z m -476.24999,0.5674 a 5.6715731,5.6715731 0 0 0 -5.67148,5.67147 5.6715731,5.6715731 0 0 0 5.67148,5.67151 5.6715731,5.6715731 0 0 0 5.67148,-5.67151 5.6715731,5.6715731 0 0 0 -5.67148,-5.67147 z m 449.79166,0 a 5.6715731,5.6715731 0 0 0 -5.67147,5.67147 5.6715731,5.6715731 0 0 0 5.67147,5.67151 5.6715731,5.6715731 0 0 0 5.67148,-5.67151 5.6715731,5.6715731 0 0 0 -5.67148,-5.67147 z m -423.33333,0.51572 a 5.1559758,5.1559758 0 0 0 -5.15575,5.15575 5.1559758,5.1559758 0 0 0 5.15575,5.15578 5.1559758,5.1559758 0 0 0 5.15575,-5.15578 5.1559758,5.1559758 0 0 0 -5.15575,-5.15575 z m 396.875,0 a 5.1559758,5.1559758 0 0 0 -5.15628,5.15575 5.1559758,5.1559758 0 0 0 5.15628,5.15578 5.1559758,5.1559758 0 0 0 5.15575,-5.15578 5.1559758,5.1559758 0 0 0 -5.15575,-5.15575 z m -370.41666,0.46871 a 4.6872506,4.6872506 0 0 0 -4.68704,4.68704 4.6872506,4.6872506 0 0 0 4.68704,4.68707 4.6872506,4.6872506 0 0 0 4.68704,-4.68707 4.6872506,4.6872506 0 0 0 -4.68704,-4.68704 z m 343.95833,0 a 4.6872506,4.6872506 0 0 0 -4.68705,4.68704 4.6872506,4.6872506 0 0 0 4.68705,4.68707 4.6872506,4.6872506 0 0 0 4.68704,-4.68707 4.6872506,4.6872506 0 0 0 -4.68704,-4.68704 z m -317.5,0.42582 a 4.261137,4.261137 0 0 0 -4.26125,4.26122 4.261137,4.261137 0 0 0 4.26125,4.26125 4.261137,4.261137 0 0 0 4.26125,-4.26125 4.261137,4.261137 0 0 0 -4.26125,-4.26122 z m 291.04166,0 a 4.261137,4.261137 0 0 0 -4.26124,4.26122 4.261137,4.261137 0 0 0 4.26124,4.26125 4.261137,4.261137 0 0 0 4.26125,-4.26125 4.261137,4.261137 0 0 0 -4.26125,-4.26122 z m -264.58333,0.38757 a 3.8737606,3.8737606 0 0 0 -3.87366,3.87365 3.8737606,3.8737606 0 0 0 3.87366,3.87369 3.8737606,3.8737606 0 0 0 3.87366,-3.87369 3.8737606,3.8737606 0 0 0 -3.87366,-3.87365 z m 238.125,0 a 3.8737606,3.8737606 0 0 0 -3.87366,3.87365 3.8737606,3.8737606 0 0 0 3.87366,3.87369 3.8737606,3.8737606 0 0 0 3.87366,-3.87369 3.8737606,3.8737606 0 0 0 -3.87366,-3.87365 z m -211.66666,0.35192 a 3.5216007,3.5216007 0 0 0 -3.52174,3.52173 3.5216007,3.5216007 0 0 0 3.52174,3.52177 3.5216007,3.5216007 0 0 0 3.52173,-3.52177 3.5216007,3.5216007 0 0 0 -3.52173,-3.52173 z m 185.20833,0 a 3.5216007,3.5216007 0 0 0 -3.52174,3.52173 3.5216007,3.5216007 0 0 0 3.52174,3.52177 3.5216007,3.5216007 0 0 0 3.52173,-3.52177 3.5216007,3.5216007 0 0 0 -3.52173,-3.52173 z m -158.75,0.32038 a 3.2014551,3.2014551 0 0 0 -3.20135,3.20135 3.2014551,3.2014551 0 0 0 3.20135,3.20136 3.2014551,3.2014551 0 0 0 3.20135,-3.20136 3.2014551,3.2014551 0 0 0 -3.20135,-3.20135 z m 132.29166,0 a 3.2014551,3.2014551 0 0 0 -3.20135,3.20135 3.2014551,3.2014551 0 0 0 3.20135,3.20136 3.2014551,3.2014551 0 0 0 3.20136,-3.20136 3.2014551,3.2014551 0 0 0 -3.20136,-3.20135 z m -105.83333,0.29094 a 2.9104137,2.9104137 0 0 0 -2.91042,2.91041 2.9104137,2.9104137 0 0 0 2.91042,2.91042 2.9104137,2.9104137 0 0 0 2.91042,-2.91042 2.9104137,2.9104137 0 0 0 -2.91042,-2.91041 z m 79.375,0 a 2.9104137,2.9104137 0 0 0 -2.91042,2.91041 2.9104137,2.9104137 0 0 0 2.91042,2.91042 2.9104137,2.9104137 0 0 0 2.91042,-2.91042 2.9104137,2.9104137 0 0 0 -2.91042,-2.91041 z m -52.91667,0.26458 a 2.6458306,2.6458306 0 0 0 -2.64583,2.64583 2.6458306,2.6458306 0 0 0 2.64583,2.64584 2.6458306,2.6458306 0 0 0 2.64584,-2.64584 2.6458306,2.6458306 0 0 0 -2.64584,-2.64583 z m 26.45834,0 a 2.6458306,2.6458306 0 0 0 -2.64584,2.64583 2.6458306,2.6458306 0 0 0 2.64584,2.64584 2.6458306,2.6458306 0 0 0 2.64583,-2.64584 2.6458306,2.6458306 0 0 0 -2.64583,-2.64583 z m -238.125,22.86529 a 6.2387305,6.2387305 0 0 0 -6.2389,6.23888 6.2387305,6.2387305 0 0 0 6.2389,6.2389 6.2387305,6.2387305 0 0 0 6.2389,-6.2389 6.2387305,6.2387305 0 0 0 -6.2389,-6.23888 z m 449.79166,0 a 6.2387305,6.2387305 0 0 0 -6.2389,6.23888 6.2387305,6.2387305 0 0 0 6.2389,6.2389 6.2387305,6.2387305 0 0 0 6.2389,-6.2389 6.2387305,6.2387305 0 0 0 -6.2389,-6.23888 z m -476.24999,0.5674 a 5.6715731,5.6715731 0 0 0 -5.67148,5.67148 5.6715731,5.6715731 0 0 0 5.67148,5.6715 5.6715731,5.6715731 0 0 0 5.67147,-5.6715 5.6715731,5.6715731 0 0 0 -5.67147,-5.67148 z m 52.91666,0 a 5.6715731,5.6715731 0 0 0 -5.67147,5.67148 5.6715731,5.6715731 0 0 0 5.67147,5.6715 5.6715731,5.6715731 0 0 0 5.67148,-5.6715 5.6715731,5.6715731 0 0 0 -5.67148,-5.67148 z m 396.875,0 a 5.6715731,5.6715731 0 0 0 -5.67148,5.67148 5.6715731,5.6715731 0 0 0 5.67148,5.6715 5.6715731,5.6715731 0 0 0 5.67147,-5.6715 5.6715731,5.6715731 0 0 0 -5.67147,-5.67148 z m 52.91666,0 a 5.6715731,5.6715731 0 0 0 -5.67147,5.67148 5.6715731,5.6715731 0 0 0 5.67147,5.6715 5.6715731,5.6715731 0 0 0 5.67148,-5.6715 5.6715731,5.6715731 0 0 0 -5.67148,-5.67148 z m -423.33332,0.51573 a 5.1559758,5.1559758 0 0 0 -5.15575,5.15575 5.1559758,5.1559758 0 0 0 5.15575,5.15628 5.1559758,5.1559758 0 0 0 5.15575,-5.15628 5.1559758,5.1559758 0 0 0 -5.15575,-5.15575 z m 343.95833,0 a 5.1559758,5.1559758 0 0 0 -5.15575,5.15575 5.1559758,5.1559758 0 0 0 5.15575,5.15628 5.1559758,5.1559758 0 0 0 5.15575,-5.15628 5.1559758,5.1559758 0 0 0 -5.15575,-5.15575 z m -317.5,0.46871 a 4.6872506,4.6872506 0 0 0 -4.68704,4.68704 4.6872506,4.6872506 0 0 0 4.68704,4.68757 4.6872506,4.6872506 0 0 0 4.68704,-4.68757 4.6872506,4.6872506 0 0 0 -4.68704,-4.68704 z m 291.04166,0 a 4.6872506,4.6872506 0 0 0 -4.68704,4.68704 4.6872506,4.6872506 0 0 0 4.68704,4.68757 4.6872506,4.6872506 0 0 0 4.68704,-4.68757 4.6872506,4.6872506 0 0 0 -4.68704,-4.68704 z m -264.58333,0.42582 a 4.261137,4.261137 0 0 0 -4.26124,4.26122 4.261137,4.261137 0 0 0 4.26124,4.26124 4.261137,4.261137 0 0 0 4.26125,-4.26124 4.261137,4.261137 0 0 0 -4.26125,-4.26122 z m 238.125,0 a 4.261137,4.261137 0 0 0 -4.26125,4.26122 4.261137,4.261137 0 0 0 4.26125,4.26124 4.261137,4.261137 0 0 0 4.26125,-4.26124 4.261137,4.261137 0 0 0 -4.26125,-4.26122 z m -211.66666,0.38756 a 3.8737606,3.8737606 0 0 0 -3.87366,3.87366 3.8737606,3.8737606 0 0 0 3.87366,3.87368 3.8737606,3.8737606 0 0 0 3.87365,-3.87368 3.8737606,3.8737606 0 0 0 -3.87365,-3.87366 z m 185.20833,0 a 3.8737606,3.8737606 0 0 0 -3.87366,3.87366 3.8737606,3.8737606 0 0 0 3.87366,3.87368 3.8737606,3.8737606 0 0 0 3.87366,-3.87368 3.8737606,3.8737606 0 0 0 -3.87366,-3.87366 z m -158.75,0.35192 a 3.5216007,3.5216007 0 0 0 -3.52174,3.52174 3.5216007,3.5216007 0 0 0 3.52174,3.52176 3.5216007,3.5216007 0 0 0 3.52173,-3.52176 3.5216007,3.5216007 0 0 0 -3.52173,-3.52174 z m 132.29166,0 a 3.5216007,3.5216007 0 0 0 -3.52173,3.52174 3.5216007,3.5216007 0 0 0 3.52173,3.52176 3.5216007,3.5216007 0 0 0 3.52174,-3.52176 3.5216007,3.5216007 0 0 0 -3.52174,-3.52174 z m -105.83333,0.32039 a 3.2014551,3.2014551 0 0 0 -3.20135,3.20135 3.2014551,3.2014551 0 0 0 3.20135,3.20135 3.2014551,3.2014551 0 0 0 3.20135,-3.20135 3.2014551,3.2014551 0 0 0 -3.20135,-3.20135 z m 79.375,0 a 3.2014551,3.2014551 0 0 0 -3.20135,3.20135 3.2014551,3.2014551 0 0 0 3.20135,3.20135 3.2014551,3.2014551 0 0 0 3.20135,-3.20135 3.2014551,3.2014551 0 0 0 -3.20135,-3.20135 z m -52.91667,0.29093 a 2.9104137,2.9104137 0 0 0 -2.91041,2.91042 2.9104137,2.9104137 0 0 0 2.91041,2.91041 2.9104137,2.9104137 0 0 0 2.91042,-2.91041 2.9104137,2.9104137 0 0 0 -2.91042,-2.91042 z m 26.45834,0 a 2.9104137,2.9104137 0 0 0 -2.91042,2.91042 2.9104137,2.9104137 0 0 0 2.91042,2.91041 2.9104137,2.9104137 0 0 0 2.91041,-2.91041 2.9104137,2.9104137 0 0 0 -2.91041,-2.91042 z m -211.66667,23.12988 a 6.2387305,6.2387305 0 0 0 -6.2389,6.23887 6.2387305,6.2387305 0 0 0 6.2389,6.2389 6.2387305,6.2387305 0 0 0 6.2389,-6.2389 6.2387305,6.2387305 0 0 0 -6.2389,-6.23887 z m 396.875,0 a 6.2387305,6.2387305 0 0 0 -6.2389,6.23887 6.2387305,6.2387305 0 0 0 6.2389,6.2389 6.2387305,6.2387305 0 0 0 6.2389,-6.2389 6.2387305,6.2387305 0 0 0 -6.2389,-6.23887 z m -423.33333,0.56739 a 5.6715731,5.6715731 0 0 0 -5.67148,5.67148 5.6715731,5.6715731 0 0 0 5.67148,5.6715 5.6715731,5.6715731 0 0 0 5.67148,-5.6715 5.6715731,5.6715731 0 0 0 -5.67148,-5.67148 z m 52.91667,0 a 5.6715731,5.6715731 0 0 0 -5.67148,5.67148 5.6715731,5.6715731 0 0 0 5.67148,5.6715 5.6715731,5.6715731 0 0 0 5.67147,-5.6715 5.6715731,5.6715731 0 0 0 -5.67147,-5.67148 z m 343.95833,0 a 5.6715731,5.6715731 0 0 0 -5.67148,5.67148 5.6715731,5.6715731 0 0 0 5.67148,5.6715 5.6715731,5.6715731 0 0 0 5.67147,-5.6715 5.6715731,5.6715731 0 0 0 -5.67147,-5.67148 z m 52.91666,0 a 5.6715731,5.6715731 0 0 0 -5.67147,5.67148 5.6715731,5.6715731 0 0 0 5.67147,5.6715 5.6715731,5.6715731 0 0 0 5.67148,-5.6715 5.6715731,5.6715731 0 0 0 -5.67148,-5.67148 z m -476.24999,0.51573 a 5.1559758,5.1559758 0 0 0 -5.15575,5.15575 5.1559758,5.1559758 0 0 0 5.15575,5.15578 5.1559758,5.1559758 0 0 0 5.15575,-5.15578 5.1559758,5.1559758 0 0 0 -5.15575,-5.15575 z m 105.83333,0 a 5.1559758,5.1559758 0 0 0 -5.15575,5.15575 5.1559758,5.1559758 0 0 0 5.15575,5.15578 5.1559758,5.1559758 0 0 0 5.15575,-5.15578 5.1559758,5.1559758 0 0 0 -5.15575,-5.15575 z m 291.04166,0 a 5.1559758,5.1559758 0 0 0 -5.15575,5.15575 5.1559758,5.1559758 0 0 0 5.15575,5.15578 5.1559758,5.1559758 0 0 0 5.15575,-5.15578 5.1559758,5.1559758 0 0 0 -5.15575,-5.15575 z m 105.83333,0 a 5.1559758,5.1559758 0 0 0 -5.15627,5.15575 5.1559758,5.1559758 0 0 0 5.15627,5.15578 5.1559758,5.1559758 0 0 0 5.15575,-5.15578 5.1559758,5.1559758 0 0 0 -5.15575,-5.15575 z m -370.41666,0.46871 a 4.6872506,4.6872506 0 0 0 -4.68704,4.68704 4.6872506,4.6872506 0 0 0 4.68704,4.68707 4.6872506,4.6872506 0 0 0 4.68704,-4.68707 4.6872506,4.6872506 0 0 0 -4.68704,-4.68704 z m 238.125,0 a 4.6872506,4.6872506 0 0 0 -4.68704,4.68704 4.6872506,4.6872506 0 0 0 4.68704,4.68707 4.6872506,4.6872506 0 0 0 4.68704,-4.68707 4.6872506,4.6872506 0 0 0 -4.68704,-4.68704 z m -211.66666,0.42582 a 4.261137,4.261137 0 0 0 -4.26125,4.26122 4.261137,4.261137 0 0 0 4.26125,4.26125 4.261137,4.261137 0 0 0 4.26124,-4.26125 4.261137,4.261137 0 0 0 -4.26124,-4.26122 z m 185.20833,0 a 4.261137,4.261137 0 0 0 -4.26125,4.26122 4.261137,4.261137 0 0 0 4.26125,4.26125 4.261137,4.261137 0 0 0 4.26124,-4.26125 4.261137,4.261137 0 0 0 -4.26124,-4.26122 z m -158.75,0.38756 a 3.8737606,3.8737606 0 0 0 -3.87366,3.87366 3.8737606,3.8737606 0 0 0 3.87366,3.87369 3.8737606,3.8737606 0 0 0 3.87366,-3.87369 3.8737606,3.8737606 0 0 0 -3.87366,-3.87366 z m 132.29166,0 a 3.8737606,3.8737606 0 0 0 -3.87366,3.87366 3.8737606,3.8737606 0 0 0 3.87366,3.87369 3.8737606,3.8737606 0 0 0 3.87366,-3.87369 3.8737606,3.8737606 0 0 0 -3.87366,-3.87366 z m -105.83333,0.35192 a 3.5216007,3.5216007 0 0 0 -3.52173,3.52174 3.5216007,3.5216007 0 0 0 3.52173,3.52176 3.5216007,3.5216007 0 0 0 3.52174,-3.52176 3.5216007,3.5216007 0 0 0 -3.52174,-3.52174 z m 79.375,0 a 3.5216007,3.5216007 0 0 0 -3.52174,3.52174 3.5216007,3.5216007 0 0 0 3.52174,3.52176 3.5216007,3.5216007 0 0 0 3.52174,-3.52176 3.5216007,3.5216007 0 0 0 -3.52174,-3.52174 z m -52.91667,0.32039 a 3.2014551,3.2014551 0 0 0 -3.20135,3.20135 3.2014551,3.2014551 0 0 0 3.20135,3.20135 3.2014551,3.2014551 0 0 0 3.20136,-3.20135 3.2014551,3.2014551 0 0 0 -3.20136,-3.20135 z m 26.45834,0 a 3.2014551,3.2014551 0 0 0 -3.20135,3.20135 3.2014551,3.2014551 0 0 0 3.20135,3.20135 3.2014551,3.2014551 0 0 0 3.20135,-3.20135 3.2014551,3.2014551 0 0 0 -3.20135,-3.20135 z m -185.20833,23.42081 a 6.2387305,6.2387305 0 0 0 -6.2389,6.23887 6.2387305,6.2387305 0 0 0 6.2389,6.2389 6.2387305,6.2387305 0 0 0 6.2389,-6.2389 6.2387305,6.2387305 0 0 0 -6.2389,-6.23887 z m 343.95833,0 a 6.2387305,6.2387305 0 0 0 -6.23891,6.23887 6.2387305,6.2387305 0 0 0 6.23891,6.2389 6.2387305,6.2387305 0 0 0 6.2389,-6.2389 6.2387305,6.2387305 0 0 0 -6.2389,-6.23887 z m -370.41667,0.5674 a 5.6715731,5.6715731 0 0 0 -5.67147,5.67147 5.6715731,5.6715731 0 0 0 5.67147,5.67151 5.6715731,5.6715731 0 0 0 5.67148,-5.67151 5.6715731,5.6715731 0 0 0 -5.67148,-5.67147 z m 52.91667,0 a 5.6715731,5.6715731 0 0 0 -5.67148,5.67147 5.6715731,5.6715731 0 0 0 5.67148,5.67151 5.6715731,5.6715731 0 0 0 5.67148,-5.67151 5.6715731,5.6715731 0 0 0 -5.67148,-5.67147 z m 291.04166,0 a 5.6715731,5.6715731 0 0 0 -5.67147,5.67147 5.6715731,5.6715731 0 0 0 5.67147,5.67151 5.6715731,5.6715731 0 0 0 5.67148,-5.67151 5.6715731,5.6715731 0 0 0 -5.67148,-5.67147 z m 52.91667,0 a 5.6715731,5.6715731 0 0 0 -5.67148,5.67147 5.6715731,5.6715731 0 0 0 5.67148,5.67151 5.6715731,5.6715731 0 0 0 5.67147,-5.67151 5.6715731,5.6715731 0 0 0 -5.67147,-5.67147 z m -423.33333,0.51572 a 5.1559758,5.1559758 0 0 0 -5.15575,5.15575 5.1559758,5.1559758 0 0 0 5.15575,5.15628 5.1559758,5.1559758 0 0 0 5.15575,-5.15628 5.1559758,5.1559758 0 0 0 -5.15575,-5.15575 z m 105.83333,0 a 5.1559758,5.1559758 0 0 0 -5.15628,5.15575 5.1559758,5.1559758 0 0 0 5.15628,5.15628 5.1559758,5.1559758 0 0 0 5.15575,-5.15628 5.1559758,5.1559758 0 0 0 -5.15575,-5.15575 z m 238.125,0 a 5.1559758,5.1559758 0 0 0 -5.15575,5.15575 5.1559758,5.1559758 0 0 0 5.15575,5.15628 5.1559758,5.1559758 0 0 0 5.15575,-5.15628 5.1559758,5.1559758 0 0 0 -5.15575,-5.15575 z m 105.83333,0 a 5.1559758,5.1559758 0 0 0 -5.15628,5.15575 5.1559758,5.1559758 0 0 0 5.15628,5.15628 5.1559758,5.1559758 0 0 0 5.15575,-5.15628 5.1559758,5.1559758 0 0 0 -5.15575,-5.15575 z m -476.24999,0.46871 a 4.6872506,4.6872506 0 0 0 -4.68704,4.68704 4.6872506,4.6872506 0 0 0 4.68704,4.68757 4.6872506,4.6872506 0 0 0 4.68704,-4.68757 4.6872506,4.6872506 0 0 0 -4.68704,-4.68704 z m 158.75,0 a 4.6872506,4.6872506 0 0 0 -4.68705,4.68704 4.6872506,4.6872506 0 0 0 4.68705,4.68757 4.6872506,4.6872506 0 0 0 4.68704,-4.68757 4.6872506,4.6872506 0 0 0 -4.68704,-4.68704 z m 185.20833,0 a 4.6872506,4.6872506 0 0 0 -4.68704,4.68704 4.6872506,4.6872506 0 0 0 4.68704,4.68757 4.6872506,4.6872506 0 0 0 4.68704,-4.68757 4.6872506,4.6872506 0 0 0 -4.68704,-4.68704 z m 158.74999,0 a 4.6872506,4.6872506 0 0 0 -4.68757,4.68704 4.6872506,4.6872506 0 0 0 4.68757,4.68757 4.6872506,4.6872506 0 0 0 4.68705,-4.68757 4.6872506,4.6872506 0 0 0 -4.68705,-4.68704 z m -317.49999,0.42582 a 4.261137,4.261137 0 0 0 -4.26125,4.26122 4.261137,4.261137 0 0 0 4.26125,4.26125 4.261137,4.261137 0 0 0 4.26125,-4.26125 4.261137,4.261137 0 0 0 -4.26125,-4.26122 z m 132.29166,0 a 4.261137,4.261137 0 0 0 -4.26124,4.26122 4.261137,4.261137 0 0 0 4.26124,4.26125 4.261137,4.261137 0 0 0 4.26125,-4.26125 4.261137,4.261137 0 0 0 -4.26125,-4.26122 z m -105.83333,0.38756 a 3.8737606,3.8737606 0 0 0 -3.87366,3.87366 3.8737606,3.8737606 0 0 0 3.87366,3.87369 3.8737606,3.8737606 0 0 0 3.87366,-3.87369 3.8737606,3.8737606 0 0 0 -3.87366,-3.87366 z m 79.375,0 a 3.8737606,3.8737606 0 0 0 -3.87366,3.87366 3.8737606,3.8737606 0 0 0 3.87366,3.87369 3.8737606,3.8737606 0 0 0 3.87366,-3.87369 3.8737606,3.8737606 0 0 0 -3.87366,-3.87366 z m -52.91667,0.35193 a 3.5216007,3.5216007 0 0 0 -3.52173,3.52173 3.5216007,3.5216007 0 0 0 3.52173,3.52177 3.5216007,3.5216007 0 0 0 3.52174,-3.52177 3.5216007,3.5216007 0 0 0 -3.52174,-3.52173 z m 26.45834,0 a 3.5216007,3.5216007 0 0 0 -3.52174,3.52173 3.5216007,3.5216007 0 0 0 3.52174,3.52177 3.5216007,3.5216007 0 0 0 3.52173,-3.52177 3.5216007,3.5216007 0 0 0 -3.52173,-3.52173 z m -158.75,23.74119 a 6.2387305,6.2387305 0 0 0 -6.2389,6.23888 6.2387305,6.2387305 0 0 0 6.2389,6.2389 6.2387305,6.2387305 0 0 0 6.2389,-6.2389 6.2387305,6.2387305 0 0 0 -6.2389,-6.23888 z m 291.04166,0 a 6.2387305,6.2387305 0 0 0 -6.2389,6.23888 6.2387305,6.2387305 0 0 0 6.2389,6.2389 6.2387305,6.2387305 0 0 0 6.2389,-6.2389 6.2387305,6.2387305 0 0 0 -6.2389,-6.23888 z m -317.49999,0.5674 a 5.6715731,5.6715731 0 0 0 -5.67148,5.67148 5.6715731,5.6715731 0 0 0 5.67148,5.67149 5.6715731,5.6715731 0 0 0 5.67147,-5.67149 5.6715731,5.6715731 0 0 0 -5.67147,-5.67148 z m 52.91666,0 a 5.6715731,5.6715731 0 0 0 -5.67147,5.67148 5.6715731,5.6715731 0 0 0 5.67147,5.67149 5.6715731,5.6715731 0 0 0 5.67148,-5.67149 5.6715731,5.6715731 0 0 0 -5.67148,-5.67148 z m 238.125,0 a 5.6715731,5.6715731 0 0 0 -5.67148,5.67148 5.6715731,5.6715731 0 0 0 5.67148,5.67149 5.6715731,5.6715731 0 0 0 5.67148,-5.67149 5.6715731,5.6715731 0 0 0 -5.67148,-5.67148 z m 52.91667,0 a 5.6715731,5.6715731 0 0 0 -5.67148,5.67148 5.6715731,5.6715731 0 0 0 5.67148,5.67149 5.6715731,5.6715731 0 0 0 5.67147,-5.67149 5.6715731,5.6715731 0 0 0 -5.67147,-5.67148 z m -370.41667,0.51573 a 5.1559758,5.1559758 0 0 0 -5.15575,5.15575 5.1559758,5.1559758 0 0 0 5.15575,5.15628 5.1559758,5.1559758 0 0 0 5.15575,-5.15628 5.1559758,5.1559758 0 0 0 -5.15575,-5.15575 z m 105.83334,0 a 5.1559758,5.1559758 0 0 0 -5.15575,5.15575 5.1559758,5.1559758 0 0 0 5.15575,5.15628 5.1559758,5.1559758 0 0 0 5.15575,-5.15628 5.1559758,5.1559758 0 0 0 -5.15575,-5.15575 z m 185.20833,0 a 5.1559758,5.1559758 0 0 0 -5.15575,5.15575 5.1559758,5.1559758 0 0 0 5.15575,5.15628 5.1559758,5.1559758 0 0 0 5.15575,-5.15628 5.1559758,5.1559758 0 0 0 -5.15575,-5.15575 z m 105.83333,0 a 5.1559758,5.1559758 0 0 0 -5.15628,5.15575 5.1559758,5.1559758 0 0 0 5.15628,5.15628 5.1559758,5.1559758 0 0 0 5.15575,-5.15628 5.1559758,5.1559758 0 0 0 -5.15575,-5.15575 z m -423.33333,0.4687 a 4.6872506,4.6872506 0 0 0 -4.68704,4.68705 4.6872506,4.6872506 0 0 0 4.68704,4.68706 4.6872506,4.6872506 0 0 0 4.68704,-4.68706 4.6872506,4.6872506 0 0 0 -4.68704,-4.68705 z m 158.75,0 a 4.6872506,4.6872506 0 0 0 -4.68704,4.68705 4.6872506,4.6872506 0 0 0 4.68704,4.68706 4.6872506,4.6872506 0 0 0 4.68704,-4.68706 4.6872506,4.6872506 0 0 0 -4.68704,-4.68705 z m 132.29166,0 a 4.6872506,4.6872506 0 0 0 -4.68704,4.68705 4.6872506,4.6872506 0 0 0 4.68704,4.68706 4.6872506,4.6872506 0 0 0 4.68704,-4.68706 4.6872506,4.6872506 0 0 0 -4.68704,-4.68705 z m 158.75,0 a 4.6872506,4.6872506 0 0 0 -4.68757,4.68705 4.6872506,4.6872506 0 0 0 4.68757,4.68706 4.6872506,4.6872506 0 0 0 4.68704,-4.68706 4.6872506,4.6872506 0 0 0 -4.68704,-4.68705 z m -476.24999,0.42582 a 4.261137,4.261137 0 0 0 -4.26125,4.26123 4.261137,4.261137 0 0 0 4.26125,4.26124 4.261137,4.261137 0 0 0 4.26124,-4.26124 4.261137,4.261137 0 0 0 -4.26124,-4.26123 z m 211.66666,0 a 4.261137,4.261137 0 0 0 -4.26125,4.26123 4.261137,4.261137 0 0 0 4.26125,4.26124 4.261137,4.261137 0 0 0 4.26125,-4.26124 4.261137,4.261137 0 0 0 -4.26125,-4.26123 z m 79.375,0 a 4.261137,4.261137 0 0 0 -4.26125,4.26123 4.261137,4.261137 0 0 0 4.26125,4.26124 4.261137,4.261137 0 0 0 4.26125,-4.26124 4.261137,4.261137 0 0 0 -4.26125,-4.26123 z m 211.66666,0 a 4.261137,4.261137 0 0 0 -4.26124,4.26123 4.261137,4.261137 0 0 0 4.26124,4.26124 4.261137,4.261137 0 0 0 4.26125,-4.26124 4.261137,4.261137 0 0 0 -4.26125,-4.26123 z m -264.58333,0.38757 a 3.8737606,3.8737606 0 0 0 -3.87365,3.87366 3.8737606,3.8737606 0 0 0 3.87365,3.87367 3.8737606,3.8737606 0 0 0 3.87366,-3.87367 3.8737606,3.8737606 0 0 0 -3.87366,-3.87366 z m 26.45834,0 a 3.8737606,3.8737606 0 0 0 -3.87366,3.87366 3.8737606,3.8737606 0 0 0 3.87366,3.87367 3.8737606,3.8737606 0 0 0 3.87366,-3.87367 3.8737606,3.8737606 0 0 0 -3.87366,-3.87366 z m -132.29167,24.0931 a 6.2387305,6.2387305 0 0 0 -6.2389,6.2389 6.2387305,6.2387305 0 0 0 6.2389,6.23889 6.2387305,6.2387305 0 0 0 6.2389,-6.23889 6.2387305,6.2387305 0 0 0 -6.2389,-6.2389 z m 238.125,0 a 6.2387305,6.2387305 0 0 0 -6.2389,6.2389 6.2387305,6.2387305 0 0 0 6.2389,6.23889 6.2387305,6.2387305 0 0 0 6.2389,-6.23889 6.2387305,6.2387305 0 0 0 -6.2389,-6.2389 z m -264.58333,0.56741 a 5.6715731,5.6715731 0 0 0 -5.67148,5.67149 5.6715731,5.6715731 0 0 0 5.67148,5.67149 5.6715731,5.6715731 0 0 0 5.67148,-5.67149 5.6715731,5.6715731 0 0 0 -5.67148,-5.67149 z m 52.91667,0 a 5.6715731,5.6715731 0 0 0 -5.67148,5.67149 5.6715731,5.6715731 0 0 0 5.67148,5.67149 5.6715731,5.6715731 0 0 0 5.67147,-5.67149 5.6715731,5.6715731 0 0 0 -5.67147,-5.67149 z m 185.20833,0 a 5.6715731,5.6715731 0 0 0 -5.67148,5.67149 5.6715731,5.6715731 0 0 0 5.67148,5.67149 5.6715731,5.6715731 0 0 0 5.67147,-5.67149 5.6715731,5.6715731 0 0 0 -5.67147,-5.67149 z m 52.91666,0 a 5.6715731,5.6715731 0 0 0 -5.67147,5.67149 5.6715731,5.6715731 0 0 0 5.67147,5.67149 5.6715731,5.6715731 0 0 0 5.67148,-5.67149 5.6715731,5.6715731 0 0 0 -5.67148,-5.67149 z m -317.49999,0.51573 a 5.1559758,5.1559758 0 0 0 -5.15575,5.15576 5.1559758,5.1559758 0 0 0 5.15575,5.15627 5.1559758,5.1559758 0 0 0 5.15575,-5.15627 5.1559758,5.1559758 0 0 0 -5.15575,-5.15576 z m 105.83333,0 a 5.1559758,5.1559758 0 0 0 -5.15575,5.15576 5.1559758,5.1559758 0 0 0 5.15575,5.15627 5.1559758,5.1559758 0 0 0 5.15575,-5.15627 5.1559758,5.1559758 0 0 0 -5.15575,-5.15576 z m 132.29166,0 a 5.1559758,5.1559758 0 0 0 -5.15575,5.15576 5.1559758,5.1559758 0 0 0 5.15575,5.15627 5.1559758,5.1559758 0 0 0 5.15575,-5.15627 5.1559758,5.1559758 0 0 0 -5.15575,-5.15576 z m 105.83334,0 a 5.1559758,5.1559758 0 0 0 -5.15575,5.15576 5.1559758,5.1559758 0 0 0 5.15575,5.15627 5.1559758,5.1559758 0 0 0 5.15575,-5.15627 5.1559758,5.1559758 0 0 0 -5.15575,-5.15576 z m -370.41667,0.46871 a 4.6872506,4.6872506 0 0 0 -4.68704,4.68705 4.6872506,4.6872506 0 0 0 4.68704,4.68705 4.6872506,4.6872506 0 0 0 4.68704,-4.68705 4.6872506,4.6872506 0 0 0 -4.68704,-4.68705 z m 158.75,0 a 4.6872506,4.6872506 0 0 0 -4.68704,4.68705 4.6872506,4.6872506 0 0 0 4.68704,4.68705 4.6872506,4.6872506 0 0 0 4.68704,-4.68705 4.6872506,4.6872506 0 0 0 -4.68704,-4.68705 z m 79.375,0 a 4.6872506,4.6872506 0 0 0 -4.68704,4.68705 4.6872506,4.6872506 0 0 0 4.68704,4.68757 4.6872506,4.6872506 0 0 0 4.68704,-4.68757 4.6872506,4.6872506 0 0 0 -4.68704,-4.68705 z m 158.75,0 a 4.6872506,4.6872506 0 0 0 -4.68704,4.68705 4.6872506,4.6872506 0 0 0 4.68704,4.68757 4.6872506,4.6872506 0 0 0 4.68704,-4.68757 4.6872506,4.6872506 0 0 0 -4.68704,-4.68705 z m -423.33333,0.42581 a 4.261137,4.261137 0 0 0 -4.26125,4.26124 4.261137,4.261137 0 0 0 4.26125,4.26124 4.261137,4.261137 0 0 0 4.26125,-4.26124 4.261137,4.261137 0 0 0 -4.26125,-4.26124 z m 211.66666,0 a 4.261137,4.261137 0 0 0 -4.26124,4.26124 4.261137,4.261137 0 0 0 4.26124,4.26124 4.261137,4.261137 0 0 0 4.26125,-4.26124 4.261137,4.261137 0 0 0 -4.26125,-4.26124 z m 26.45834,0 a 4.261137,4.261137 0 0 0 -4.26125,4.26124 4.261137,4.261137 0 0 0 4.26125,4.26124 4.261137,4.261137 0 0 0 4.26124,-4.26124 4.261137,4.261137 0 0 0 -4.26124,-4.26124 z m 211.66666,0 a 4.261137,4.261137 0 0 0 -4.26125,4.26124 4.261137,4.261137 0 0 0 4.26125,4.26124 4.261137,4.261137 0 0 0 4.26125,-4.26124 4.261137,4.261137 0 0 0 -4.26125,-4.26124 z m -476.24999,0.38757 a 3.8737606,3.8737606 0 0 0 -3.87366,3.87367 3.8737606,3.8737606 0 0 0 3.87366,3.87366 3.8737606,3.8737606 0 0 0 3.87366,-3.87366 3.8737606,3.8737606 0 0 0 -3.87366,-3.87367 z m 502.70832,0 a 3.8737606,3.8737606 0 0 0 -3.87365,3.87367 3.8737606,3.8737606 0 0 0 3.87365,3.87366 3.8737606,3.8737606 0 0 0 3.87366,-3.87366 3.8737606,3.8737606 0 0 0 -3.87366,-3.87367 z m -343.95832,24.0931 a 6.2387305,6.2387305 0 0 0 -6.23891,6.2389 6.2387305,6.2387305 0 0 0 6.23891,6.2389 6.2387305,6.2387305 0 0 0 6.2389,-6.2389 6.2387305,6.2387305 0 0 0 -6.2389,-6.2389 z m 185.20833,0 a 6.2387305,6.2387305 0 0 0 -6.2389,6.2389 6.2387305,6.2387305 0 0 0 6.2389,6.2389 6.2387305,6.2387305 0 0 0 6.2389,-6.2389 6.2387305,6.2387305 0 0 0 -6.2389,-6.2389 z m -211.66667,0.56741 a 5.6715731,5.6715731 0 0 0 -5.67147,5.67149 5.6715731,5.6715731 0 0 0 5.67147,5.67149 5.6715731,5.6715731 0 0 0 5.67148,-5.67149 5.6715731,5.6715731 0 0 0 -5.67148,-5.67149 z m 52.91667,0 a 5.6715731,5.6715731 0 0 0 -5.67148,5.67149 5.6715731,5.6715731 0 0 0 5.67148,5.67149 5.6715731,5.6715731 0 0 0 5.67147,-5.67149 5.6715731,5.6715731 0 0 0 -5.67147,-5.67149 z m 132.29166,0 a 5.6715731,5.6715731 0 0 0 -5.67147,5.67149 5.6715731,5.6715731 0 0 0 5.67147,5.67149 5.6715731,5.6715731 0 0 0 5.67148,-5.67149 5.6715731,5.6715731 0 0 0 -5.67148,-5.67149 z m 52.91667,0 a 5.6715731,5.6715731 0 0 0 -5.67148,5.67149 5.6715731,5.6715731 0 0 0 5.67148,5.67149 5.6715731,5.6715731 0 0 0 5.67148,-5.67149 5.6715731,5.6715731 0 0 0 -5.67148,-5.67149 z m -264.58333,0.51573 a 5.1559758,5.1559758 0 0 0 -5.15575,5.15576 5.1559758,5.1559758 0 0 0 5.15575,5.15576 5.1559758,5.1559758 0 0 0 5.15575,-5.15576 5.1559758,5.1559758 0 0 0 -5.15575,-5.15576 z m 105.83333,0 a 5.1559758,5.1559758 0 0 0 -5.15575,5.15576 5.1559758,5.1559758 0 0 0 5.15575,5.15576 5.1559758,5.1559758 0 0 0 5.15575,-5.15576 5.1559758,5.1559758 0 0 0 -5.15575,-5.15576 z m 79.375,0 a 5.1559758,5.1559758 0 0 0 -5.15628,5.15576 5.1559758,5.1559758 0 0 0 5.15628,5.15576 5.1559758,5.1559758 0 0 0 5.15575,-5.15576 5.1559758,5.1559758 0 0 0 -5.15575,-5.15576 z m 105.83333,0 a 5.1559758,5.1559758 0 0 0 -5.15575,5.15576 5.1559758,5.1559758 0 0 0 5.15575,5.15576 5.1559758,5.1559758 0 0 0 5.15575,-5.15576 5.1559758,5.1559758 0 0 0 -5.15575,-5.15576 z m -317.49999,0.46871 a 4.6872506,4.6872506 0 0 0 -4.68704,4.68705 4.6872506,4.6872506 0 0 0 4.68704,4.68705 4.6872506,4.6872506 0 0 0 4.68704,-4.68705 4.6872506,4.6872506 0 0 0 -4.68704,-4.68705 z m 158.74999,0 a 4.6872506,4.6872506 0 0 0 -4.68704,4.68705 4.6872506,4.6872506 0 0 0 4.68704,4.68705 4.6872506,4.6872506 0 0 0 4.68705,-4.68705 4.6872506,4.6872506 0 0 0 -4.68705,-4.68705 z m 26.45834,0 a 4.6872506,4.6872506 0 0 0 -4.68704,4.68705 4.6872506,4.6872506 0 0 0 4.68704,4.68705 4.6872506,4.6872506 0 0 0 4.68704,-4.68705 4.6872506,4.6872506 0 0 0 -4.68704,-4.68705 z m 158.75,0 a 4.6872506,4.6872506 0 0 0 -4.68705,4.68705 4.6872506,4.6872506 0 0 0 4.68705,4.68705 4.6872506,4.6872506 0 0 0 4.68704,-4.68705 4.6872506,4.6872506 0 0 0 -4.68704,-4.68705 z m -370.41667,0.42581 a 4.261137,4.261137 0 0 0 -4.26124,4.26124 4.261137,4.261137 0 0 0 4.26124,4.26124 4.261137,4.261137 0 0 0 4.26125,-4.26124 4.261137,4.261137 0 0 0 -4.26125,-4.26124 z m 396.875,0 a 4.261137,4.261137 0 0 0 -4.26125,4.26124 4.261137,4.261137 0 0 0 4.26125,4.26124 4.261137,4.261137 0 0 0 4.26125,-4.26124 4.261137,4.261137 0 0 0 -4.26125,-4.26124 z m -423.33333,0.38758 a 3.8737606,3.8737606 0 0 0 -3.87366,3.87366 3.8737606,3.8737606 0 0 0 3.87366,3.87367 3.8737606,3.8737606 0 0 0 3.87366,-3.87367 3.8737606,3.8737606 0 0 0 -3.87366,-3.87366 z m 449.79166,0 a 3.8737606,3.8737606 0 0 0 -3.87366,3.87366 3.8737606,3.8737606 0 0 0 3.87366,3.87367 3.8737606,3.8737606 0 0 0 3.87366,-3.87367 3.8737606,3.8737606 0 0 0 -3.87366,-3.87366 z m -476.24999,0.35191 a 3.5216007,3.5216007 0 0 0 -3.52174,3.52175 3.5216007,3.5216007 0 0 0 3.52174,3.52175 3.5216007,3.5216007 0 0 0 3.52173,-3.52175 3.5216007,3.5216007 0 0 0 -3.52173,-3.52175 z m 502.70832,0 a 3.5216007,3.5216007 0 0 0 -3.52173,3.52175 3.5216007,3.5216007 0 0 0 3.52173,3.52175 3.5216007,3.5216007 0 0 0 3.52174,-3.52175 3.5216007,3.5216007 0 0 0 -3.52174,-3.52175 z m -317.49999,23.74119 a 6.2387305,6.2387305 0 0 0 -6.2389,6.23889 6.2387305,6.2387305 0 0 0 6.2389,6.2389 6.2387305,6.2387305 0 0 0 6.2389,-6.2389 6.2387305,6.2387305 0 0 0 -6.2389,-6.23889 z m 132.29166,0 a 6.2387305,6.2387305 0 0 0 -6.2389,6.23889 6.2387305,6.2387305 0 0 0 6.2389,6.2389 6.2387305,6.2387305 0 0 0 6.2389,-6.2389 6.2387305,6.2387305 0 0 0 -6.2389,-6.23889 z m -158.74999,0.5674 a 5.6715731,5.6715731 0 0 0 -5.67148,5.67149 5.6715731,5.6715731 0 0 0 5.67148,5.67149 5.6715731,5.6715731 0 0 0 5.67147,-5.67149 5.6715731,5.6715731 0 0 0 -5.67147,-5.67149 z m 52.91666,0 a 5.6715731,5.6715731 0 0 0 -5.67147,5.67149 5.6715731,5.6715731 0 0 0 5.67147,5.67149 5.6715731,5.6715731 0 0 0 5.67148,-5.67149 5.6715731,5.6715731 0 0 0 -5.67148,-5.67149 z m 79.375,0 a 5.6715731,5.6715731 0 0 0 -5.67148,5.67149 5.6715731,5.6715731 0 0 0 5.67148,5.67149 5.6715731,5.6715731 0 0 0 5.67148,-5.67149 5.6715731,5.6715731 0 0 0 -5.67148,-5.67149 z m 52.91667,0 a 5.6715731,5.6715731 0 0 0 -5.67148,5.67149 5.6715731,5.6715731 0 0 0 5.67148,5.67149 5.6715731,5.6715731 0 0 0 5.67147,-5.67149 5.6715731,5.6715731 0 0 0 -5.67147,-5.67149 z m -211.66667,0.51574 a 5.1559758,5.1559758 0 0 0 -5.15628,5.15575 5.1559758,5.1559758 0 0 0 5.15628,5.15576 5.1559758,5.1559758 0 0 0 5.15575,-5.15576 5.1559758,5.1559758 0 0 0 -5.15575,-5.15575 z m 105.83333,0 a 5.1559758,5.1559758 0 0 0 -5.15575,5.15575 5.1559758,5.1559758 0 0 0 5.15575,5.15576 5.1559758,5.1559758 0 0 0 5.15575,-5.15576 5.1559758,5.1559758 0 0 0 -5.15575,-5.15575 z m 26.45834,0 a 5.1559758,5.1559758 0 0 0 -5.15575,5.15575 5.1559758,5.1559758 0 0 0 5.15575,5.15576 5.1559758,5.1559758 0 0 0 5.15575,-5.15576 5.1559758,5.1559758 0 0 0 -5.15575,-5.15575 z m 105.83333,0 a 5.1559758,5.1559758 0 0 0 -5.15575,5.15575 5.1559758,5.1559758 0 0 0 5.15575,5.15576 5.1559758,5.1559758 0 0 0 5.15575,-5.15576 5.1559758,5.1559758 0 0 0 -5.15575,-5.15575 z m -264.58333,0.4687 a 4.6872506,4.6872506 0 0 0 -4.68704,4.68705 4.6872506,4.6872506 0 0 0 4.68704,4.68706 4.6872506,4.6872506 0 0 0 4.68704,-4.68706 4.6872506,4.6872506 0 0 0 -4.68704,-4.68705 z m 291.04166,0 a 4.6872506,4.6872506 0 0 0 -4.68704,4.68705 4.6872506,4.6872506 0 0 0 4.68704,4.68706 4.6872506,4.6872506 0 0 0 4.68704,-4.68706 4.6872506,4.6872506 0 0 0 -4.68704,-4.68705 z m -317.49999,0.42581 a 4.261137,4.261137 0 0 0 -4.26125,4.26124 4.261137,4.261137 0 0 0 4.26125,4.26124 4.261137,4.261137 0 0 0 4.26124,-4.26124 4.261137,4.261137 0 0 0 -4.26124,-4.26124 z m 343.95833,0 a 4.261137,4.261137 0 0 0 -4.26125,4.26124 4.261137,4.261137 0 0 0 4.26125,4.26124 4.261137,4.261137 0 0 0 4.26124,-4.26124 4.261137,4.261137 0 0 0 -4.26124,-4.26124 z m -370.41667,0.38758 a 3.8737606,3.8737606 0 0 0 -3.87366,3.87366 3.8737606,3.8737606 0 0 0 3.87366,3.87367 3.8737606,3.8737606 0 0 0 3.87366,-3.87367 3.8737606,3.8737606 0 0 0 -3.87366,-3.87366 z m 396.875,0 a 3.8737606,3.8737606 0 0 0 -3.87366,3.87366 3.8737606,3.8737606 0 0 0 3.87366,3.87367 3.8737606,3.8737606 0 0 0 3.87366,-3.87367 3.8737606,3.8737606 0 0 0 -3.87366,-3.87366 z m -423.33333,0.35191 a 3.5216007,3.5216007 0 0 0 -3.52174,3.52175 3.5216007,3.5216007 0 0 0 3.52174,3.52175 3.5216007,3.5216007 0 0 0 3.52174,-3.52175 3.5216007,3.5216007 0 0 0 -3.52174,-3.52175 z m 449.79166,0 a 3.5216007,3.5216007 0 0 0 -3.52173,3.52175 3.5216007,3.5216007 0 0 0 3.52173,3.52175 3.5216007,3.5216007 0 0 0 3.52174,-3.52175 3.5216007,3.5216007 0 0 0 -3.52174,-3.52175 z m -476.24999,0.3204 a 3.2014551,3.2014551 0 0 0 -3.20135,3.20135 3.2014551,3.2014551 0 0 0 3.20135,3.20136 3.2014551,3.2014551 0 0 0 3.20135,-3.20136 3.2014551,3.2014551 0 0 0 -3.20135,-3.20135 z m 502.70832,0 a 3.2014551,3.2014551 0 0 0 -3.20135,3.20135 3.2014551,3.2014551 0 0 0 3.20135,3.20136 3.2014551,3.2014551 0 0 0 3.20136,-3.20136 3.2014551,3.2014551 0 0 0 -3.20136,-3.20135 z m -291.04166,23.42079 a 6.2387305,6.2387305 0 0 0 -6.2389,6.2389 6.2387305,6.2387305 0 0 0 6.2389,6.23889 6.2387305,6.2387305 0 0 0 6.2389,-6.23889 6.2387305,6.2387305 0 0 0 -6.2389,-6.2389 z m 79.375,0 a 6.2387305,6.2387305 0 0 0 -6.2389,6.2389 6.2387305,6.2387305 0 0 0 6.2389,6.23889 6.2387305,6.2387305 0 0 0 6.2389,-6.23889 6.2387305,6.2387305 0 0 0 -6.2389,-6.2389 z m -105.83333,0.56741 a 5.6715731,5.6715731 0 0 0 -5.67148,5.67149 5.6715731,5.6715731 0 0 0 5.67148,5.67149 5.6715731,5.6715731 0 0 0 5.67147,-5.67149 5.6715731,5.6715731 0 0 0 -5.67147,-5.67149 z m 52.91666,0 a 5.6715731,5.6715731 0 0 0 -5.67147,5.67149 5.6715731,5.6715731 0 0 0 5.67147,5.67149 5.6715731,5.6715731 0 0 0 5.67148,-5.67149 5.6715731,5.6715731 0 0 0 -5.67148,-5.67149 z m 26.45834,0 a 5.6715731,5.6715731 0 0 0 -5.67148,5.67149 5.6715731,5.6715731 0 0 0 5.67148,5.67149 5.6715731,5.6715731 0 0 0 5.67147,-5.67149 5.6715731,5.6715731 0 0 0 -5.67147,-5.67149 z m 52.91666,0 a 5.6715731,5.6715731 0 0 0 -5.67147,5.67149 5.6715731,5.6715731 0 0 0 5.67147,5.67149 5.6715731,5.6715731 0 0 0 5.67148,-5.67149 5.6715731,5.6715731 0 0 0 -5.67148,-5.67149 z m -158.74999,0.51573 a 5.1559758,5.1559758 0 0 0 -5.15575,5.15576 5.1559758,5.1559758 0 0 0 5.15575,5.15575 5.1559758,5.1559758 0 0 0 5.15575,-5.15575 5.1559758,5.1559758 0 0 0 -5.15575,-5.15576 z m 185.20833,0 a 5.1559758,5.1559758 0 0 0 -5.15575,5.15576 5.1559758,5.1559758 0 0 0 5.15575,5.15575 5.1559758,5.1559758 0 0 0 5.15575,-5.15575 5.1559758,5.1559758 0 0 0 -5.15575,-5.15576 z m -211.66667,0.46871 a 4.6872506,4.6872506 0 0 0 -4.68704,4.68705 4.6872506,4.6872506 0 0 0 4.68704,4.68705 4.6872506,4.6872506 0 0 0 4.68704,-4.68705 4.6872506,4.6872506 0 0 0 -4.68704,-4.68705 z m 238.125,0 a 4.6872506,4.6872506 0 0 0 -4.68704,4.68705 4.6872506,4.6872506 0 0 0 4.68704,4.68705 4.6872506,4.6872506 0 0 0 4.68704,-4.68705 4.6872506,4.6872506 0 0 0 -4.68704,-4.68705 z m -264.58333,0.42581 a 4.261137,4.261137 0 0 0 -4.26125,4.26124 4.261137,4.261137 0 0 0 4.26125,4.26124 4.261137,4.261137 0 0 0 4.26125,-4.26124 4.261137,4.261137 0 0 0 -4.26125,-4.26124 z m 291.04166,0 a 4.261137,4.261137 0 0 0 -4.26124,4.26124 4.261137,4.261137 0 0 0 4.26124,4.26124 4.261137,4.261137 0 0 0 4.26125,-4.26124 4.261137,4.261137 0 0 0 -4.26125,-4.26124 z m -317.49999,0.38757 a 3.8737606,3.8737606 0 0 0 -3.87366,3.87367 3.8737606,3.8737606 0 0 0 3.87366,3.87366 3.8737606,3.8737606 0 0 0 3.87366,-3.87366 3.8737606,3.8737606 0 0 0 -3.87366,-3.87367 z m 343.95833,0 a 3.8737606,3.8737606 0 0 0 -3.87366,3.87367 3.8737606,3.8737606 0 0 0 3.87366,3.87366 3.8737606,3.8737606 0 0 0 3.87365,-3.87366 3.8737606,3.8737606 0 0 0 -3.87365,-3.87367 z m -370.41667,0.35192 a 3.5216007,3.5216007 0 0 0 -3.52173,3.52175 3.5216007,3.5216007 0 0 0 3.52173,3.52175 3.5216007,3.5216007 0 0 0 3.52174,-3.52175 3.5216007,3.5216007 0 0 0 -3.52174,-3.52175 z m 396.875,0 a 3.5216007,3.5216007 0 0 0 -3.52174,3.52175 3.5216007,3.5216007 0 0 0 3.52174,3.52175 3.5216007,3.5216007 0 0 0 3.52173,-3.52175 3.5216007,3.5216007 0 0 0 -3.52173,-3.52175 z m -423.33333,0.32039 a 3.2014551,3.2014551 0 0 0 -3.20135,3.20136 3.2014551,3.2014551 0 0 0 3.20135,3.20135 3.2014551,3.2014551 0 0 0 3.20135,-3.20135 3.2014551,3.2014551 0 0 0 -3.20135,-3.20136 z m 449.79166,0 a 3.2014551,3.2014551 0 0 0 -3.20135,3.20136 3.2014551,3.2014551 0 0 0 3.20135,3.20135 3.2014551,3.2014551 0 0 0 3.20135,-3.20135 3.2014551,3.2014551 0 0 0 -3.20135,-3.20136 z m -476.24999,0.29094 a 2.9104137,2.9104137 0 0 0 -2.91042,2.91042 2.9104137,2.9104137 0 0 0 2.91042,2.91041 2.9104137,2.9104137 0 0 0 2.91041,-2.91041 2.9104137,2.9104137 0 0 0 -2.91041,-2.91042 z m 502.70832,0 a 2.9104137,2.9104137 0 0 0 -2.91041,2.91042 2.9104137,2.9104137 0 0 0 2.91041,2.91041 2.9104137,2.9104137 0 0 0 2.91042,-2.91041 2.9104137,2.9104137 0 0 0 -2.91042,-2.91042 z m -264.58333,23.12985 a 6.2387305,6.2387305 0 0 0 -6.2389,6.2389 6.2387305,6.2387305 0 0 0 6.2389,6.2389 6.2387305,6.2387305 0 0 0 6.23891,-6.2389 6.2387305,6.2387305 0 0 0 -6.23891,-6.2389 z m 26.45834,0 a 6.2387305,6.2387305 0 0 0 -6.2389,6.2389 6.2387305,6.2387305 0 0 0 6.2389,6.2389 6.2387305,6.2387305 0 0 0 6.2389,-6.2389 6.2387305,6.2387305 0 0 0 -6.2389,-6.2389 z m -52.91667,0.56741 a 5.6715731,5.6715731 0 0 0 -5.67147,5.67149 5.6715731,5.6715731 0 0 0 5.67147,5.67149 5.6715731,5.6715731 0 0 0 5.67148,-5.67149 5.6715731,5.6715731 0 0 0 -5.67148,-5.67149 z m 79.375,0 a 5.6715731,5.6715731 0 0 0 -5.67148,5.67149 5.6715731,5.6715731 0 0 0 5.67148,5.67149 5.6715731,5.6715731 0 0 0 5.67148,-5.67149 5.6715731,5.6715731 0 0 0 -5.67148,-5.67149 z m -105.83333,0.51573 a 5.1559758,5.1559758 0 0 0 -5.15575,5.15576 5.1559758,5.1559758 0 0 0 5.15575,5.15576 5.1559758,5.1559758 0 0 0 5.15575,-5.15576 5.1559758,5.1559758 0 0 0 -5.15575,-5.15576 z m 132.29166,0 a 5.1559758,5.1559758 0 0 0 -5.15575,5.15576 5.1559758,5.1559758 0 0 0 5.15575,5.15576 5.1559758,5.1559758 0 0 0 5.15575,-5.15576 5.1559758,5.1559758 0 0 0 -5.15575,-5.15576 z m -158.74999,0.46871 a 4.6872506,4.6872506 0 0 0 -4.68705,4.68705 4.6872506,4.6872506 0 0 0 4.68705,4.68705 4.6872506,4.6872506 0 0 0 4.68704,-4.68705 4.6872506,4.6872506 0 0 0 -4.68704,-4.68705 z m 185.20833,0 a 4.6872506,4.6872506 0 0 0 -4.68704,4.68705 4.6872506,4.6872506 0 0 0 4.68704,4.68705 4.6872506,4.6872506 0 0 0 4.68704,-4.68705 4.6872506,4.6872506 0 0 0 -4.68704,-4.68705 z m -211.66667,0.42581 a 4.261137,4.261137 0 0 0 -4.26124,4.26124 4.261137,4.261137 0 0 0 4.26124,4.26124 4.261137,4.261137 0 0 0 4.26125,-4.26124 4.261137,4.261137 0 0 0 -4.26125,-4.26124 z m 238.125,0 a 4.261137,4.261137 0 0 0 -4.26125,4.26124 4.261137,4.261137 0 0 0 4.26125,4.26124 4.261137,4.261137 0 0 0 4.26125,-4.26124 4.261137,4.261137 0 0 0 -4.26125,-4.26124 z m -264.58333,0.38758 a 3.8737606,3.8737606 0 0 0 -3.87366,3.87366 3.8737606,3.8737606 0 0 0 3.87366,3.87367 3.8737606,3.8737606 0 0 0 3.87366,-3.87367 3.8737606,3.8737606 0 0 0 -3.87366,-3.87366 z m 291.04166,0 a 3.8737606,3.8737606 0 0 0 -3.87366,3.87366 3.8737606,3.8737606 0 0 0 3.87366,3.87367 3.8737606,3.8737606 0 0 0 3.87366,-3.87367 3.8737606,3.8737606 0 0 0 -3.87366,-3.87366 z m -317.49999,0.35191 a 3.5216007,3.5216007 0 0 0 -3.52174,3.52175 3.5216007,3.5216007 0 0 0 3.52174,3.52175 3.5216007,3.5216007 0 0 0 3.52173,-3.52175 3.5216007,3.5216007 0 0 0 -3.52173,-3.52175 z m 343.95833,0 a 3.5216007,3.5216007 0 0 0 -3.52174,3.52175 3.5216007,3.5216007 0 0 0 3.52174,3.52175 3.5216007,3.5216007 0 0 0 3.52173,-3.52175 3.5216007,3.5216007 0 0 0 -3.52173,-3.52175 z m -370.41667,0.32039 a 3.2014551,3.2014551 0 0 0 -3.20135,3.20136 3.2014551,3.2014551 0 0 0 3.20135,3.20135 3.2014551,3.2014551 0 0 0 3.20136,-3.20135 3.2014551,3.2014551 0 0 0 -3.20136,-3.20136 z m 396.875,0 a 3.2014551,3.2014551 0 0 0 -3.20135,3.20136 3.2014551,3.2014551 0 0 0 3.20135,3.20135 3.2014551,3.2014551 0 0 0 3.20135,-3.20135 3.2014551,3.2014551 0 0 0 -3.20135,-3.20136 z m -423.33333,0.29094 a 2.9104137,2.9104137 0 0 0 -2.91042,2.91042 2.9104137,2.9104137 0 0 0 2.91042,2.91042 2.9104137,2.9104137 0 0 0 2.91042,-2.91042 2.9104137,2.9104137 0 0 0 -2.91042,-2.91042 z m 449.79166,0 a 2.9104137,2.9104137 0 0 0 -2.91042,2.91042 2.9104137,2.9104137 0 0 0 2.91042,2.91042 2.9104137,2.9104137 0 0 0 2.91042,-2.91042 2.9104137,2.9104137 0 0 0 -2.91042,-2.91042 z m -476.24999,0.26459 a 2.6458306,2.6458306 0 0 0 -2.64584,2.64583 2.6458306,2.6458306 0 0 0 2.64584,2.64583 2.6458306,2.6458306 0 0 0 2.64583,-2.64583 2.6458306,2.6458306 0 0 0 -2.64583,-2.64583 z m 502.70832,0 a 2.6458306,2.6458306 0 0 0 -2.64583,2.64583 2.6458306,2.6458306 0 0 0 2.64583,2.64583 2.6458306,2.6458306 0 0 0 2.64584,-2.64583 2.6458306,2.6458306 0 0 0 -2.64584,-2.64583 z"
           style="display:inline;opacity:1;fill:#e2e2e2;fill-opacity:1;stroke:none;stroke-width:0.2300722;stroke-linecap:butt;stroke-linejoin:miter;stroke-miterlimit:4;stroke-dasharray:none;stroke-dashoffset:0;stroke-opacity:1" />
      </g>
    </g>
  </g>
</svg>
