<?xml version="1.0" encoding="UTF-8" standalone="no"?>
<!-- Created with Inkscape (http://www.inkscape.org/) -->

<svg
   xmlns:dc="http://purl.org/dc/elements/1.1/"
   xmlns:cc="http://creativecommons.org/ns#"
   xmlns:rdf="http://www.w3.org/1999/02/22-rdf-syntax-ns#"
   xmlns:svg="http://www.w3.org/2000/svg"
   xmlns="http://www.w3.org/2000/svg"
   xmlns:sodipodi="http://sodipodi.sourceforge.net/DTD/sodipodi-0.dtd"
   xmlns:inkscape="http://www.inkscape.org/namespaces/inkscape"
   width="186.26666mm"
   height="159.80833mm"
   viewBox="0 0 186.26666 159.80833"
   version="1.1"
   id="svg2218"
   inkscape:version="0.92.2 (5c3e80d, 2017-08-06)"
   sodipodi:docname="boardBack.svg">
  <defs
     id="defs2212" />
  <sodipodi:namedview
     id="base"
     pagecolor="#ffffff"
     bordercolor="#666666"
     borderopacity="1.0"
     inkscape:pageopacity="0.0"
     inkscape:pageshadow="2"
     inkscape:zoom="0.49497475"
     inkscape:cx="580.20484"
     inkscape:cy="289.93425"
     inkscape:document-units="mm"
     inkscape:current-layer="layer1"
     showgrid="false"
     fit-margin-top="0"
     fit-margin-left="0"
     fit-margin-right="0"
     fit-margin-bottom="0"
     inkscape:window-width="1278"
     inkscape:window-height="1368"
     inkscape:window-x="1273"
     inkscape:window-y="0"
     inkscape:window-maximized="0" />
  <metadata
     id="metadata2215">
    <rdf:RDF>
      <cc:Work
         rdf:about="">
        <dc:format>image/svg+xml</dc:format>
        <dc:type
           rdf:resource="http://purl.org/dc/dcmitype/StillImage" />
        <dc:title></dc:title>
      </cc:Work>
    </rdf:RDF>
  </metadata>
  <g
     inkscape:label="Layer 1"
     inkscape:groupmode="layer"
     id="layer1"
     transform="translate(-7.7710134,-86.926153)">
    <g
       transform="translate(431.63351,359.30953)"
       style="display:inline"
       id="g2785">
      <path
         inkscape:connector-curvature="0"
         style="opacity:1;fill:#596ba8;fill-opacity:1;stroke:#000000;stroke-width:1.05833328;stroke-linecap:butt;stroke-linejoin:miter;stroke-miterlimit:4;stroke-dasharray:none;stroke-dashoffset:15.87401676;stroke-opacity:1"
         d="m -410.10416,-271.85421 c -7.32896,0 -13.22917,5.90021 -13.22917,13.22917 v 132.29167 c 0,7.32896 5.90021,13.22916 13.22917,13.22916 h 158.75 c 7.32895,0 13.22916,-5.9002 13.22916,-13.22916 v -132.29167 c 0,-7.32896 -5.90021,-13.22917 -13.22916,-13.22917 z m 0,2.64583 a 10.583333,10.583333 0 0 1 10.58333,10.58334 10.583333,10.583333 0 0 1 -10.58333,10.58334 10.583333,10.583333 0 0 1 -10.58333,-10.58334 10.583333,10.583333 0 0 1 10.58333,-10.58334 z m 26.45833,0 a 10.583333,10.583333 0 0 1 10.58333,10.58334 10.583333,10.583333 0 0 1 -10.58333,10.58334 10.583333,10.583333 0 0 1 -10.58333,-10.58334 10.583333,10.583333 0 0 1 10.58333,-10.58334 z m 26.45833,0 a 10.583333,10.583333 0 0 1 10.58334,10.58334 10.583333,10.583333 0 0 1 -10.58334,10.58334 10.583333,10.583333 0 0 1 -10.58333,-10.58334 10.583333,10.583333 0 0 1 10.58333,-10.58334 z m 26.45834,0 a 10.583333,10.583333 0 0 1 10.58333,10.58334 10.583333,10.583333 0 0 1 -10.58333,10.58334 10.583333,10.583333 0 0 1 -10.58334,-10.58334 10.583333,10.583333 0 0 1 10.58334,-10.58334 z m 26.45833,0 a 10.583333,10.583333 0 0 1 10.58333,10.58334 10.583333,10.583333 0 0 1 -10.58333,10.58334 10.583333,10.583333 0 0 1 -10.58333,-10.58334 10.583333,10.583333 0 0 1 10.58333,-10.58334 z m 26.45833,0 a 10.583333,10.583333 0 0 1 10.58334,10.58334 10.583333,10.583333 0 0 1 -10.58334,10.58334 10.583333,10.583333 0 0 1 -10.58333,-10.58334 10.583333,10.583333 0 0 1 10.58333,-10.58334 z m 26.45834,0 a 10.583333,10.583333 0 0 1 10.58333,10.58334 10.583333,10.583333 0 0 1 -10.58333,10.58334 10.583333,10.583333 0 0 1 -10.58334,-10.58334 10.583333,10.583333 0 0 1 10.58334,-10.58334 z m -158.75,26.45834 a 10.583333,10.583333 0 0 1 10.58333,10.58334 10.583333,10.583333 0 0 1 -10.58333,10.58333 10.583333,10.583333 0 0 1 -10.58333,-10.58333 10.583333,10.583333 0 0 1 10.58333,-10.58334 z m 26.45833,0 a 10.583333,10.583333 0 0 1 10.58333,10.58334 10.583333,10.583333 0 0 1 -10.58333,10.58333 10.583333,10.583333 0 0 1 -10.58333,-10.58333 10.583333,10.583333 0 0 1 10.58333,-10.58334 z m 26.45833,0 a 10.583333,10.583333 0 0 1 10.58334,10.58334 10.583333,10.583333 0 0 1 -10.58334,10.58333 10.583333,10.583333 0 0 1 -10.58333,-10.58333 10.583333,10.583333 0 0 1 10.58333,-10.58334 z m 26.45834,0 a 10.583333,10.583333 0 0 1 10.58333,10.58334 10.583333,10.583333 0 0 1 -10.58333,10.58333 10.583333,10.583333 0 0 1 -10.58334,-10.58333 10.583333,10.583333 0 0 1 10.58334,-10.58334 z m 26.45833,0 a 10.583333,10.583333 0 0 1 10.58333,10.58334 10.583333,10.583333 0 0 1 -10.58333,10.58333 10.583333,10.583333 0 0 1 -10.58333,-10.58333 10.583333,10.583333 0 0 1 10.58333,-10.58334 z m 26.45833,0 a 10.583333,10.583333 0 0 1 10.58334,10.58334 10.583333,10.583333 0 0 1 -10.58334,10.58333 10.583333,10.583333 0 0 1 -10.58333,-10.58333 10.583333,10.583333 0 0 1 10.58333,-10.58334 z m 26.45834,0 a 10.583333,10.583333 0 0 1 10.58333,10.58334 10.583333,10.583333 0 0 1 -10.58333,10.58333 10.583333,10.583333 0 0 1 -10.58334,-10.58333 10.583333,10.583333 0 0 1 10.58334,-10.58334 z m -158.75,26.45834 a 10.583333,10.583333 0 0 1 10.58333,10.58333 10.583333,10.583333 0 0 1 -10.58333,10.58333 10.583333,10.583333 0 0 1 -10.58333,-10.58333 10.583333,10.583333 0 0 1 10.58333,-10.58333 z m 26.45833,0 a 10.583333,10.583333 0 0 1 10.58333,10.58333 10.583333,10.583333 0 0 1 -10.58333,10.58333 10.583333,10.583333 0 0 1 -10.58333,-10.58333 10.583333,10.583333 0 0 1 10.58333,-10.58333 z m 26.45833,0 a 10.583333,10.583333 0 0 1 10.58334,10.58333 10.583333,10.583333 0 0 1 -10.58334,10.58333 10.583333,10.583333 0 0 1 -10.58333,-10.58333 10.583333,10.583333 0 0 1 10.58333,-10.58333 z m 26.45834,0 a 10.583333,10.583333 0 0 1 10.58333,10.58333 10.583333,10.583333 0 0 1 -10.58333,10.58333 10.583333,10.583333 0 0 1 -10.58334,-10.58333 10.583333,10.583333 0 0 1 10.58334,-10.58333 z m 26.45833,0 a 10.583333,10.583333 0 0 1 10.58333,10.58333 10.583333,10.583333 0 0 1 -10.58333,10.58333 10.583333,10.583333 0 0 1 -10.58333,-10.58333 10.583333,10.583333 0 0 1 10.58333,-10.58333 z m 26.45833,0 a 10.583333,10.583333 0 0 1 10.58334,10.58333 10.583333,10.583333 0 0 1 -10.58334,10.58333 10.583333,10.583333 0 0 1 -10.58333,-10.58333 10.583333,10.583333 0 0 1 10.58333,-10.58333 z m 26.45834,0 a 10.583333,10.583333 0 0 1 10.58333,10.58333 10.583333,10.583333 0 0 1 -10.58333,10.58333 10.583333,10.583333 0 0 1 -10.58334,-10.58333 10.583333,10.583333 0 0 1 10.58334,-10.58333 z m -158.75,26.45833 a 10.583333,10.583333 0 0 1 10.58333,10.58333 10.583333,10.583333 0 0 1 -10.58333,10.58333 10.583333,10.583333 0 0 1 -10.58333,-10.58333 10.583333,10.583333 0 0 1 10.58333,-10.58333 z m 26.45833,0 a 10.583333,10.583333 0 0 1 10.58333,10.58333 10.583333,10.583333 0 0 1 -10.58333,10.58333 10.583333,10.583333 0 0 1 -10.58333,-10.58333 10.583333,10.583333 0 0 1 10.58333,-10.58333 z m 26.45833,0 a 10.583333,10.583333 0 0 1 10.58334,10.58333 10.583333,10.583333 0 0 1 -10.58334,10.58333 10.583333,10.583333 0 0 1 -10.58333,-10.58333 10.583333,10.583333 0 0 1 10.58333,-10.58333 z m 26.45834,0 a 10.583333,10.583333 0 0 1 10.58333,10.58333 10.583333,10.583333 0 0 1 -10.58333,10.58333 10.583333,10.583333 0 0 1 -10.58334,-10.58333 10.583333,10.583333 0 0 1 10.58334,-10.58333 z m 26.45833,0 a 10.583333,10.583333 0 0 1 10.58333,10.58333 10.583333,10.583333 0 0 1 -10.58333,10.58333 10.583333,10.583333 0 0 1 -10.58333,-10.58333 10.583333,10.583333 0 0 1 10.58333,-10.58333 z m 26.45833,0 a 10.583333,10.583333 0 0 1 10.58334,10.58333 10.583333,10.583333 0 0 1 -10.58334,10.58333 10.583333,10.583333 0 0 1 -10.58333,-10.58333 10.583333,10.583333 0 0 1 10.58333,-10.58333 z m 26.45834,0 a 10.583333,10.583333 0 0 1 10.58333,10.58333 10.583333,10.583333 0 0 1 -10.58333,10.58333 10.583333,10.583333 0 0 1 -10.58334,-10.58333 10.583333,10.583333 0 0 1 10.58334,-10.58333 z m -158.75,26.45833 a 10.583333,10.583333 0 0 1 10.58333,10.58333 10.583333,10.583333 0 0 1 -10.58333,10.58334 10.583333,10.583333 0 0 1 -10.58333,-10.58334 10.583333,10.583333 0 0 1 10.58333,-10.58333 z m 26.45833,0 a 10.583333,10.583333 0 0 1 10.58333,10.58333 10.583333,10.583333 0 0 1 -10.58333,10.58334 10.583333,10.583333 0 0 1 -10.58333,-10.58334 10.583333,10.583333 0 0 1 10.58333,-10.58333 z m 26.45833,0 a 10.583333,10.583333 0 0 1 10.58334,10.58333 10.583333,10.583333 0 0 1 -10.58334,10.58334 10.583333,10.583333 0 0 1 -10.58333,-10.58334 10.583333,10.583333 0 0 1 10.58333,-10.58333 z m 26.45834,0 a 10.583333,10.583333 0 0 1 10.58333,10.58333 10.583333,10.583333 0 0 1 -10.58333,10.58334 10.583333,10.583333 0 0 1 -10.58334,-10.58334 10.583333,10.583333 0 0 1 10.58334,-10.58333 z m 26.45833,0 a 10.583333,10.583333 0 0 1 10.58333,10.58333 10.583333,10.583333 0 0 1 -10.58333,10.58334 10.583333,10.583333 0 0 1 -10.58333,-10.58334 10.583333,10.583333 0 0 1 10.58333,-10.58333 z m 26.45833,0 a 10.583333,10.583333 0 0 1 10.58334,10.58333 10.583333,10.583333 0 0 1 -10.58334,10.58334 10.583333,10.583333 0 0 1 -10.58333,-10.58334 10.583333,10.583333 0 0 1 10.58333,-10.58333 z m 26.45834,0 a 10.583333,10.583333 0 0 1 10.58333,10.58333 10.583333,10.583333 0 0 1 -10.58333,10.58334 10.583333,10.583333 0 0 1 -10.58334,-10.58334 10.583333,10.583333 0 0 1 10.58334,-10.58333 z m -158.75,26.45833 a 10.583333,10.583333 0 0 1 10.58333,10.58334 10.583333,10.583333 0 0 1 -10.58333,10.58333 10.583333,10.583333 0 0 1 -10.58333,-10.58333 10.583333,10.583333 0 0 1 10.58333,-10.58334 z m 26.45833,0 a 10.583333,10.583333 0 0 1 10.58333,10.58334 10.583333,10.583333 0 0 1 -10.58333,10.58333 10.583333,10.583333 0 0 1 -10.58333,-10.58333 10.583333,10.583333 0 0 1 10.58333,-10.58334 z m 26.45833,0 a 10.583333,10.583333 0 0 1 10.58334,10.58334 10.583333,10.583333 0 0 1 -10.58334,10.58333 10.583333,10.583333 0 0 1 -10.58333,-10.58333 10.583333,10.583333 0 0 1 10.58333,-10.58334 z m 26.45834,0 a 10.583333,10.583333 0 0 1 10.58333,10.58334 10.583333,10.583333 0 0 1 -10.58333,10.58333 10.583333,10.583333 0 0 1 -10.58334,-10.58333 10.583333,10.583333 0 0 1 10.58334,-10.58334 z m 26.45833,0 a 10.583333,10.583333 0 0 1 10.58333,10.58334 10.583333,10.583333 0 0 1 -10.58333,10.58333 10.583333,10.583333 0 0 1 -10.58333,-10.58333 10.583333,10.583333 0 0 1 10.58333,-10.58334 z m 26.45833,0 a 10.583333,10.583333 0 0 1 10.58334,10.58334 10.583333,10.583333 0 0 1 -10.58334,10.58333 10.583333,10.583333 0 0 1 -10.58333,-10.58333 10.583333,10.583333 0 0 1 10.58333,-10.58334 z m 26.45834,0 a 10.583333,10.583333 0 0 1 10.58333,10.58334 10.583333,10.583333 0 0 1 -10.58333,10.58333 10.583333,10.583333 0 0 1 -10.58334,-10.58333 10.583333,10.583333 0 0 1 10.58334,-10.58334 z"
         id="path2198" />
      <path
         inkscape:connector-curvature="0"
         id="path2200"
         d="m -396.875,-271.85416 v 26.45833"
         style="fill:none;stroke:#000000;stroke-width:1.0583334;stroke-linecap:butt;stroke-linejoin:miter;stroke-miterlimit:4;stroke-dasharray:none;stroke-opacity:1" />
      <path
         inkscape:connector-curvature="0"
         id="path2202"
         d="m -370.41666,-271.85416 v 26.45833"
         style="fill:none;stroke:#000000;stroke-width:1.0583334;stroke-linecap:butt;stroke-linejoin:miter;stroke-miterlimit:4;stroke-dasharray:none;stroke-opacity:1" />
      <path
         style="fill:none;stroke:#000000;stroke-width:1.0583334;stroke-linecap:butt;stroke-linejoin:miter;stroke-miterlimit:4;stroke-dasharray:none;stroke-opacity:1"
         d="m -343.95833,-271.85416 v 26.45833"
         id="path2204"
         inkscape:connector-curvature="0" />
      <path
         style="fill:none;stroke:#000000;stroke-width:1.0583334;stroke-linecap:butt;stroke-linejoin:miter;stroke-miterlimit:4;stroke-dasharray:none;stroke-opacity:1"
         d="m -317.49999,-271.85416 v 26.45833"
         id="path2206"
         inkscape:connector-curvature="0" />
      <path
         inkscape:connector-curvature="0"
         id="path2208"
         d="m -291.04166,-271.85416 v 26.45833"
         style="fill:none;stroke:#000000;stroke-width:1.0583334;stroke-linecap:butt;stroke-linejoin:miter;stroke-miterlimit:4;stroke-dasharray:none;stroke-opacity:1" />
      <path
         inkscape:connector-curvature="0"
         id="path2210"
         d="m -264.58332,-271.85416 v 26.45833"
         style="fill:none;stroke:#000000;stroke-width:1.0583334;stroke-linecap:butt;stroke-linejoin:miter;stroke-miterlimit:4;stroke-dasharray:none;stroke-opacity:1" />
    </g>
  </g>
</svg>
