<?xml version="1.0" encoding="UTF-8" standalone="no"?>
<!-- Created with Inkscape (http://www.inkscape.org/) -->

<svg
   xmlns:dc="http://purl.org/dc/elements/1.1/"
   xmlns:cc="http://creativecommons.org/ns#"
   xmlns:rdf="http://www.w3.org/1999/02/22-rdf-syntax-ns#"
   xmlns:svg="http://www.w3.org/2000/svg"
   xmlns="http://www.w3.org/2000/svg"
   xmlns:sodipodi="http://sodipodi.sourceforge.net/DTD/sodipodi-0.dtd"
   xmlns:inkscape="http://www.inkscape.org/namespaces/inkscape"
   width="186.26666mm"
   height="159.80833mm"
   viewBox="0 0 186.26666 159.80833"
   version="1.1"
   id="svg2218"
   inkscape:version="0.92.2 (5c3e80d, 2017-08-06)"
   sodipodi:docname="boardFront.svg">
  <defs
     id="defs2212" />
  <sodipodi:namedview
     id="base"
     pagecolor="#ffffff"
     bordercolor="#666666"
     borderopacity="1.0"
     inkscape:pageopacity="0.0"
     inkscape:pageshadow="2"
     inkscape:zoom="0.49497475"
     inkscape:cx="541.35214"
     inkscape:cy="288.9597"
     inkscape:document-units="mm"
     inkscape:current-layer="layer1"
     showgrid="false"
     fit-margin-top="0"
     fit-margin-left="0"
     fit-margin-right="0"
     fit-margin-bottom="0"
     inkscape:window-width="1278"
     inkscape:window-height="1368"
     inkscape:window-x="1273"
     inkscape:window-y="0"
     inkscape:window-maximized="0" />
  <metadata
     id="metadata2215">
    <rdf:RDF>
      <cc:Work
         rdf:about="">
        <dc:format>image/svg+xml</dc:format>
        <dc:type
           rdf:resource="http://purl.org/dc/dcmitype/StillImage" />
        <dc:title></dc:title>
      </cc:Work>
    </rdf:RDF>
  </metadata>
  <g
     inkscape:label="Layer 1"
     inkscape:groupmode="layer"
     id="layer1"
     transform="translate(-18.05079,-86.668302)">
    <path
       inkscape:connector-curvature="0"
       style="display:inline;opacity:1;fill:#6e84cf;fill-opacity:1;stroke:#000000;stroke-width:1.05833328;stroke-linecap:butt;stroke-linejoin:miter;stroke-miterlimit:4;stroke-dasharray:none;stroke-dashoffset:15.87401676;stroke-opacity:1"
       d="m 31.809123,87.197469 c -7.328958,0 -13.229166,5.900208 -13.229166,13.229171 v 132.29167 c 0,7.32896 5.900208,13.22916 13.229166,13.22916 H 190.55912 c 7.32896,0 13.22917,-5.9002 13.22917,-13.22916 V 100.42664 c 0,-7.328963 -5.90021,-13.229171 -13.22917,-13.229171 z m 0,2.645833 A 10.583333,10.583333 0 0 1 42.392457,100.42664 10.583333,10.583333 0 0 1 31.809123,111.00998 10.583333,10.583333 0 0 1 21.22579,100.42664 10.583333,10.583333 0 0 1 31.809123,89.843302 Z m 26.458334,0 A 10.583333,10.583333 0 0 1 68.85079,100.42664 10.583333,10.583333 0 0 1 58.267457,111.00998 10.583333,10.583333 0 0 1 47.684123,100.42664 10.583333,10.583333 0 0 1 58.267457,89.843302 Z m 26.458333,0 A 10.583333,10.583333 0 0 1 95.309123,100.42664 10.583333,10.583333 0 0 1 84.72579,111.00998 10.583333,10.583333 0 0 1 74.142457,100.42664 10.583333,10.583333 0 0 1 84.72579,89.843302 Z m 26.45833,0 a 10.583333,10.583333 0 0 1 10.58334,10.583338 10.583333,10.583333 0 0 1 -10.58334,10.58334 10.583333,10.583333 0 0 1 -10.58333,-10.58334 10.583333,10.583333 0 0 1 10.58333,-10.583338 z m 26.45834,0 a 10.583333,10.583333 0 0 1 10.58333,10.583338 10.583333,10.583333 0 0 1 -10.58333,10.58334 10.583333,10.583333 0 0 1 -10.58334,-10.58334 10.583333,10.583333 0 0 1 10.58334,-10.583338 z m 26.45833,0 a 10.583333,10.583333 0 0 1 10.58333,10.583338 10.583333,10.583333 0 0 1 -10.58333,10.58334 10.583333,10.583333 0 0 1 -10.58333,-10.58334 10.583333,10.583333 0 0 1 10.58333,-10.583338 z m 26.45833,0 a 10.583333,10.583333 0 0 1 10.58334,10.583338 10.583333,10.583333 0 0 1 -10.58334,10.58334 10.583333,10.583333 0 0 1 -10.58333,-10.58334 10.583333,10.583333 0 0 1 10.58333,-10.583338 z M 31.809123,116.30164 A 10.583333,10.583333 0 0 1 42.392457,126.88498 10.583333,10.583333 0 0 1 31.809123,137.46831 10.583333,10.583333 0 0 1 21.22579,126.88498 10.583333,10.583333 0 0 1 31.809123,116.30164 Z m 26.458334,0 A 10.583333,10.583333 0 0 1 68.85079,126.88498 10.583333,10.583333 0 0 1 58.267457,137.46831 10.583333,10.583333 0 0 1 47.684123,126.88498 10.583333,10.583333 0 0 1 58.267457,116.30164 Z m 26.458333,0 A 10.583333,10.583333 0 0 1 95.309123,126.88498 10.583333,10.583333 0 0 1 84.72579,137.46831 10.583333,10.583333 0 0 1 74.142457,126.88498 10.583333,10.583333 0 0 1 84.72579,116.30164 Z m 26.45833,0 a 10.583333,10.583333 0 0 1 10.58334,10.58334 10.583333,10.583333 0 0 1 -10.58334,10.58333 10.583333,10.583333 0 0 1 -10.58333,-10.58333 10.583333,10.583333 0 0 1 10.58333,-10.58334 z m 26.45834,0 a 10.583333,10.583333 0 0 1 10.58333,10.58334 10.583333,10.583333 0 0 1 -10.58333,10.58333 10.583333,10.583333 0 0 1 -10.58334,-10.58333 10.583333,10.583333 0 0 1 10.58334,-10.58334 z m 26.45833,0 a 10.583333,10.583333 0 0 1 10.58333,10.58334 10.583333,10.583333 0 0 1 -10.58333,10.58333 10.583333,10.583333 0 0 1 -10.58333,-10.58333 10.583333,10.583333 0 0 1 10.58333,-10.58334 z m 26.45833,0 a 10.583333,10.583333 0 0 1 10.58334,10.58334 10.583333,10.583333 0 0 1 -10.58334,10.58333 10.583333,10.583333 0 0 1 -10.58333,-10.58333 10.583333,10.583333 0 0 1 10.58333,-10.58334 z M 31.809123,142.75998 A 10.583333,10.583333 0 0 1 42.392457,153.34331 10.583333,10.583333 0 0 1 31.809123,163.92664 10.583333,10.583333 0 0 1 21.22579,153.34331 10.583333,10.583333 0 0 1 31.809123,142.75998 Z m 26.458334,0 A 10.583333,10.583333 0 0 1 68.85079,153.34331 10.583333,10.583333 0 0 1 58.267457,163.92664 10.583333,10.583333 0 0 1 47.684123,153.34331 10.583333,10.583333 0 0 1 58.267457,142.75998 Z m 26.458333,0 A 10.583333,10.583333 0 0 1 95.309123,153.34331 10.583333,10.583333 0 0 1 84.72579,163.92664 10.583333,10.583333 0 0 1 74.142457,153.34331 10.583333,10.583333 0 0 1 84.72579,142.75998 Z m 26.45833,0 a 10.583333,10.583333 0 0 1 10.58334,10.58333 10.583333,10.583333 0 0 1 -10.58334,10.58333 10.583333,10.583333 0 0 1 -10.58333,-10.58333 10.583333,10.583333 0 0 1 10.58333,-10.58333 z m 26.45834,0 a 10.583333,10.583333 0 0 1 10.58333,10.58333 10.583333,10.583333 0 0 1 -10.58333,10.58333 10.583333,10.583333 0 0 1 -10.58334,-10.58333 10.583333,10.583333 0 0 1 10.58334,-10.58333 z m 26.45833,0 a 10.583333,10.583333 0 0 1 10.58333,10.58333 10.583333,10.583333 0 0 1 -10.58333,10.58333 10.583333,10.583333 0 0 1 -10.58333,-10.58333 10.583333,10.583333 0 0 1 10.58333,-10.58333 z m 26.45833,0 a 10.583333,10.583333 0 0 1 10.58334,10.58333 10.583333,10.583333 0 0 1 -10.58334,10.58333 10.583333,10.583333 0 0 1 -10.58333,-10.58333 10.583333,10.583333 0 0 1 10.58333,-10.58333 z M 31.809123,169.21831 A 10.583333,10.583333 0 0 1 42.392457,179.80164 10.583333,10.583333 0 0 1 31.809123,190.38497 10.583333,10.583333 0 0 1 21.22579,179.80164 10.583333,10.583333 0 0 1 31.809123,169.21831 Z m 26.458334,0 A 10.583333,10.583333 0 0 1 68.85079,179.80164 10.583333,10.583333 0 0 1 58.267457,190.38497 10.583333,10.583333 0 0 1 47.684123,179.80164 10.583333,10.583333 0 0 1 58.267457,169.21831 Z m 26.458333,0 A 10.583333,10.583333 0 0 1 95.309123,179.80164 10.583333,10.583333 0 0 1 84.72579,190.38497 10.583333,10.583333 0 0 1 74.142457,179.80164 10.583333,10.583333 0 0 1 84.72579,169.21831 Z m 26.45833,0 a 10.583333,10.583333 0 0 1 10.58334,10.58333 10.583333,10.583333 0 0 1 -10.58334,10.58333 10.583333,10.583333 0 0 1 -10.58333,-10.58333 10.583333,10.583333 0 0 1 10.58333,-10.58333 z m 26.45834,0 a 10.583333,10.583333 0 0 1 10.58333,10.58333 10.583333,10.583333 0 0 1 -10.58333,10.58333 10.583333,10.583333 0 0 1 -10.58334,-10.58333 10.583333,10.583333 0 0 1 10.58334,-10.58333 z m 26.45833,0 a 10.583333,10.583333 0 0 1 10.58333,10.58333 10.583333,10.583333 0 0 1 -10.58333,10.58333 10.583333,10.583333 0 0 1 -10.58333,-10.58333 10.583333,10.583333 0 0 1 10.58333,-10.58333 z m 26.45833,0 a 10.583333,10.583333 0 0 1 10.58334,10.58333 10.583333,10.583333 0 0 1 -10.58334,10.58333 10.583333,10.583333 0 0 1 -10.58333,-10.58333 10.583333,10.583333 0 0 1 10.58333,-10.58333 z M 31.809123,195.67664 A 10.583333,10.583333 0 0 1 42.392457,206.25997 10.583333,10.583333 0 0 1 31.809123,216.84331 10.583333,10.583333 0 0 1 21.22579,206.25997 10.583333,10.583333 0 0 1 31.809123,195.67664 Z m 26.458334,0 A 10.583333,10.583333 0 0 1 68.85079,206.25997 10.583333,10.583333 0 0 1 58.267457,216.84331 10.583333,10.583333 0 0 1 47.684123,206.25997 10.583333,10.583333 0 0 1 58.267457,195.67664 Z m 26.458333,0 A 10.583333,10.583333 0 0 1 95.309123,206.25997 10.583333,10.583333 0 0 1 84.72579,216.84331 10.583333,10.583333 0 0 1 74.142457,206.25997 10.583333,10.583333 0 0 1 84.72579,195.67664 Z m 26.45833,0 a 10.583333,10.583333 0 0 1 10.58334,10.58333 10.583333,10.583333 0 0 1 -10.58334,10.58334 10.583333,10.583333 0 0 1 -10.58333,-10.58334 10.583333,10.583333 0 0 1 10.58333,-10.58333 z m 26.45834,0 a 10.583333,10.583333 0 0 1 10.58333,10.58333 10.583333,10.583333 0 0 1 -10.58333,10.58334 10.583333,10.583333 0 0 1 -10.58334,-10.58334 10.583333,10.583333 0 0 1 10.58334,-10.58333 z m 26.45833,0 a 10.583333,10.583333 0 0 1 10.58333,10.58333 10.583333,10.583333 0 0 1 -10.58333,10.58334 10.583333,10.583333 0 0 1 -10.58333,-10.58334 10.583333,10.583333 0 0 1 10.58333,-10.58333 z m 26.45833,0 a 10.583333,10.583333 0 0 1 10.58334,10.58333 10.583333,10.583333 0 0 1 -10.58334,10.58334 10.583333,10.583333 0 0 1 -10.58333,-10.58334 10.583333,10.583333 0 0 1 10.58333,-10.58333 z M 31.809123,222.13497 A 10.583333,10.583333 0 0 1 42.392457,232.71831 10.583333,10.583333 0 0 1 31.809123,243.30164 10.583333,10.583333 0 0 1 21.22579,232.71831 10.583333,10.583333 0 0 1 31.809123,222.13497 Z m 26.458334,0 A 10.583333,10.583333 0 0 1 68.85079,232.71831 10.583333,10.583333 0 0 1 58.267457,243.30164 10.583333,10.583333 0 0 1 47.684123,232.71831 10.583333,10.583333 0 0 1 58.267457,222.13497 Z m 26.458333,0 A 10.583333,10.583333 0 0 1 95.309123,232.71831 10.583333,10.583333 0 0 1 84.72579,243.30164 10.583333,10.583333 0 0 1 74.142457,232.71831 10.583333,10.583333 0 0 1 84.72579,222.13497 Z m 26.45833,0 a 10.583333,10.583333 0 0 1 10.58334,10.58334 10.583333,10.583333 0 0 1 -10.58334,10.58333 10.583333,10.583333 0 0 1 -10.58333,-10.58333 10.583333,10.583333 0 0 1 10.58333,-10.58334 z m 26.45834,0 a 10.583333,10.583333 0 0 1 10.58333,10.58334 10.583333,10.583333 0 0 1 -10.58333,10.58333 10.583333,10.583333 0 0 1 -10.58334,-10.58333 10.583333,10.583333 0 0 1 10.58334,-10.58334 z m 26.45833,0 a 10.583333,10.583333 0 0 1 10.58333,10.58334 10.583333,10.583333 0 0 1 -10.58333,10.58333 10.583333,10.583333 0 0 1 -10.58333,-10.58333 10.583333,10.583333 0 0 1 10.58333,-10.58334 z m 26.45833,0 a 10.583333,10.583333 0 0 1 10.58334,10.58334 10.583333,10.583333 0 0 1 -10.58334,10.58333 10.583333,10.583333 0 0 1 -10.58333,-10.58333 10.583333,10.583333 0 0 1 10.58333,-10.58334 z"
       id="rect2156" />
  </g>
</svg>
