<?xml version="1.0" encoding="UTF-8" standalone="no"?>
<!-- Created with Inkscape (http://www.inkscape.org/) -->

<svg
   xmlns:dc="http://purl.org/dc/elements/1.1/"
   xmlns:cc="http://creativecommons.org/ns#"
   xmlns:rdf="http://www.w3.org/1999/02/22-rdf-syntax-ns#"
   xmlns:svg="http://www.w3.org/2000/svg"
   xmlns="http://www.w3.org/2000/svg"
   xmlns:sodipodi="http://sodipodi.sourceforge.net/DTD/sodipodi-0.dtd"
   xmlns:inkscape="http://www.inkscape.org/namespaces/inkscape"
   width="114.55941mm"
   height="98.232758mm"
   viewBox="0 0 114.55941 98.232758"
   version="1.1"
   id="svg1412"
   inkscape:version="0.92.2 (5c3e80d, 2017-08-06)"
   sodipodi:docname="boardBack.svg">
  <defs
     id="defs1406" />
  <sodipodi:namedview
     id="base"
     pagecolor="#ffffff"
     bordercolor="#666666"
     borderopacity="1.0"
     inkscape:pageopacity="0.0"
     inkscape:pageshadow="2"
     inkscape:zoom="1.4"
     inkscape:cx="259.10416"
     inkscape:cy="-20.24558"
     inkscape:document-units="mm"
     inkscape:current-layer="layer1"
     showgrid="false"
     fit-margin-top="0"
     fit-margin-left="0"
     fit-margin-right="0"
     fit-margin-bottom="0"
     inkscape:window-width="1278"
     inkscape:window-height="1368"
     inkscape:window-x="1273"
     inkscape:window-y="0"
     inkscape:window-maximized="0" />
  <metadata
     id="metadata1409">
    <rdf:RDF>
      <cc:Work
         rdf:about="">
        <dc:format>image/svg+xml</dc:format>
        <dc:type
           rdf:resource="http://purl.org/dc/dcmitype/StillImage" />
        <dc:title></dc:title>
      </cc:Work>
    </rdf:RDF>
  </metadata>
  <g
     inkscape:label="Layer 1"
     inkscape:groupmode="layer"
     id="layer1"
     transform="translate(-19.244165,10.483635)">
    <g
       transform="translate(172.03845,246.20328)"
       id="g1334"
       style="display:inline;fill:#596ba8;fill-opacity:1">
      <path
         inkscape:connector-curvature="0"
         style="opacity:1;fill:#596ba8;fill-opacity:1;stroke:#000000;stroke-width:0.79374999;stroke-linecap:round;stroke-linejoin:miter;stroke-miterlimit:4;stroke-dasharray:none;stroke-opacity:1"
         d="m -143.15922,-256.29004 c -5.11775,0 -9.23819,4.12044 -9.23819,9.23819 v 78.96314 c 0,5.11775 4.12044,9.23768 9.23819,9.23768 h 95.289275 c 5.117753,0 9.238194,-4.11993 9.238194,-9.23768 v -78.96314 c 0,-5.11775 -4.120441,-9.23819 -9.238194,-9.23819 z m -0.13384,2.96777 a 6.5375374,6.5375374 0 0 1 6.53759,6.53759 6.5375374,6.5375374 0 0 1 -6.53759,6.53758 6.5375374,6.5375374 0 0 1 -6.53707,-6.53758 6.5375374,6.5375374 0 0 1 6.53707,-6.53759 z m 15.92823,0 a 6.5375374,6.5375374 0 0 1 6.53758,6.53759 6.5375374,6.5375374 0 0 1 -6.53758,6.53758 6.5375374,6.5375374 0 0 1 -6.53759,-6.53758 6.5375374,6.5375374 0 0 1 6.53759,-6.53759 z m 15.92822,0 a 6.5375374,6.5375374 0 0 1 6.53759,6.53759 6.5375374,6.5375374 0 0 1 -6.53759,6.53758 6.5375374,6.5375374 0 0 1 -6.53758,-6.53758 6.5375374,6.5375374 0 0 1 6.53758,-6.53759 z m 15.92823,0 a 6.5375374,6.5375374 0 0 1 6.537068,6.53759 6.5375374,6.5375374 0 0 1 -6.537068,6.53758 6.5375374,6.5375374 0 0 1 -6.53759,-6.53758 6.5375374,6.5375374 0 0 1 6.53759,-6.53759 z m 15.92771,0 a 6.5375374,6.5375374 0 0 1 6.537584,6.53759 6.5375374,6.5375374 0 0 1 -6.537584,6.53758 6.5375374,6.5375374 0 0 1 -6.537587,-6.53758 6.5375374,6.5375374 0 0 1 6.537587,-6.53759 z m 15.928226,0 a 6.5375374,6.5375374 0 0 1 6.537584,6.53759 6.5375374,6.5375374 0 0 1 -6.537584,6.53758 6.5375374,6.5375374 0 0 1 -6.537587,-6.53758 6.5375374,6.5375374 0 0 1 6.537587,-6.53759 z m 15.928226,0 a 6.5375374,6.5375374 0 0 1 6.537584,6.53759 6.5375374,6.5375374 0 0 1 -6.537584,6.53758 6.5375374,6.5375374 0 0 1 -6.537584,-6.53758 6.5375374,6.5375374 0 0 1 6.537584,-6.53759 z m -95.568842,15.73393 a 6.5375374,6.5375374 0 0 1 6.53759,6.53758 6.5375374,6.5375374 0 0 1 -6.53759,6.53759 6.5375374,6.5375374 0 0 1 -6.53707,-6.53759 6.5375374,6.5375374 0 0 1 6.53707,-6.53758 z m 15.92823,0 a 6.5375374,6.5375374 0 0 1 6.53758,6.53758 6.5375374,6.5375374 0 0 1 -6.53758,6.53759 6.5375374,6.5375374 0 0 1 -6.53759,-6.53759 6.5375374,6.5375374 0 0 1 6.53759,-6.53758 z m 15.92822,0 a 6.5375374,6.5375374 0 0 1 6.53759,6.53758 6.5375374,6.5375374 0 0 1 -6.53759,6.53759 6.5375374,6.5375374 0 0 1 -6.53758,-6.53759 6.5375374,6.5375374 0 0 1 6.53758,-6.53758 z m 15.92823,0 a 6.5375374,6.5375374 0 0 1 6.537068,6.53758 6.5375374,6.5375374 0 0 1 -6.537068,6.53759 6.5375374,6.5375374 0 0 1 -6.53759,-6.53759 6.5375374,6.5375374 0 0 1 6.53759,-6.53758 z m 15.92771,0 a 6.5375374,6.5375374 0 0 1 6.537584,6.53758 6.5375374,6.5375374 0 0 1 -6.537584,6.53759 6.5375374,6.5375374 0 0 1 -6.537587,-6.53759 6.5375374,6.5375374 0 0 1 6.537587,-6.53758 z m 15.928226,0 a 6.5375374,6.5375374 0 0 1 6.537584,6.53758 6.5375374,6.5375374 0 0 1 -6.537584,6.53759 6.5375374,6.5375374 0 0 1 -6.537587,-6.53759 6.5375374,6.5375374 0 0 1 6.537587,-6.53758 z m 15.928226,0 a 6.5375374,6.5375374 0 0 1 6.537584,6.53758 6.5375374,6.5375374 0 0 1 -6.537584,6.53759 6.5375374,6.5375374 0 0 1 -6.537584,-6.53759 6.5375374,6.5375374 0 0 1 6.537584,-6.53758 z m -95.568842,15.73444 a 6.5375374,6.5375374 0 0 1 6.53759,6.53758 6.5375374,6.5375374 0 0 1 -6.53759,6.53707 6.5375374,6.5375374 0 0 1 -6.53707,-6.53707 6.5375374,6.5375374 0 0 1 6.53707,-6.53758 z m 15.92823,0 a 6.5375374,6.5375374 0 0 1 6.53758,6.53758 6.5375374,6.5375374 0 0 1 -6.53758,6.53707 6.5375374,6.5375374 0 0 1 -6.53759,-6.53707 6.5375374,6.5375374 0 0 1 6.53759,-6.53758 z m 15.92822,0 a 6.5375374,6.5375374 0 0 1 6.53759,6.53758 6.5375374,6.5375374 0 0 1 -6.53759,6.53707 6.5375374,6.5375374 0 0 1 -6.53758,-6.53707 6.5375374,6.5375374 0 0 1 6.53758,-6.53758 z m 15.92823,0 a 6.5375374,6.5375374 0 0 1 6.537068,6.53758 6.5375374,6.5375374 0 0 1 -6.537068,6.53707 6.5375374,6.5375374 0 0 1 -6.53759,-6.53707 6.5375374,6.5375374 0 0 1 6.53759,-6.53758 z m 15.92771,0 a 6.5375374,6.5375374 0 0 1 6.537584,6.53758 6.5375374,6.5375374 0 0 1 -6.537584,6.53707 6.5375374,6.5375374 0 0 1 -6.537587,-6.53707 6.5375374,6.5375374 0 0 1 6.537587,-6.53758 z m 15.928226,0 a 6.5375374,6.5375374 0 0 1 6.537584,6.53758 6.5375374,6.5375374 0 0 1 -6.537584,6.53707 6.5375374,6.5375374 0 0 1 -6.537587,-6.53707 6.5375374,6.5375374 0 0 1 6.537587,-6.53758 z m 15.928226,0 a 6.5375374,6.5375374 0 0 1 6.537584,6.53758 6.5375374,6.5375374 0 0 1 -6.537584,6.53707 6.5375374,6.5375374 0 0 1 -6.537584,-6.53707 6.5375374,6.5375374 0 0 1 6.537584,-6.53758 z m -95.568842,15.73392 a 6.5375374,6.5375374 0 0 1 6.53759,6.53759 6.5375374,6.5375374 0 0 1 -6.53759,6.53758 6.5375374,6.5375374 0 0 1 -6.53707,-6.53758 6.5375374,6.5375374 0 0 1 6.53707,-6.53759 z m 15.92823,0 a 6.5375374,6.5375374 0 0 1 6.53758,6.53759 6.5375374,6.5375374 0 0 1 -6.53758,6.53758 6.5375374,6.5375374 0 0 1 -6.53759,-6.53758 6.5375374,6.5375374 0 0 1 6.53759,-6.53759 z m 15.92822,0 a 6.5375374,6.5375374 0 0 1 6.53759,6.53759 6.5375374,6.5375374 0 0 1 -6.53759,6.53758 6.5375374,6.5375374 0 0 1 -6.53758,-6.53758 6.5375374,6.5375374 0 0 1 6.53758,-6.53759 z m 15.92823,0 a 6.5375374,6.5375374 0 0 1 6.537068,6.53759 6.5375374,6.5375374 0 0 1 -6.537068,6.53758 6.5375374,6.5375374 0 0 1 -6.53759,-6.53758 6.5375374,6.5375374 0 0 1 6.53759,-6.53759 z m 15.92771,0 a 6.5375374,6.5375374 0 0 1 6.537584,6.53759 6.5375374,6.5375374 0 0 1 -6.537584,6.53758 6.5375374,6.5375374 0 0 1 -6.537587,-6.53758 6.5375374,6.5375374 0 0 1 6.537587,-6.53759 z m 15.928226,0 a 6.5375374,6.5375374 0 0 1 6.537584,6.53759 6.5375374,6.5375374 0 0 1 -6.537584,6.53758 6.5375374,6.5375374 0 0 1 -6.537587,-6.53758 6.5375374,6.5375374 0 0 1 6.537587,-6.53759 z m 15.928226,0 a 6.5375374,6.5375374 0 0 1 6.537584,6.53759 6.5375374,6.5375374 0 0 1 -6.537584,6.53758 6.5375374,6.5375374 0 0 1 -6.537584,-6.53758 6.5375374,6.5375374 0 0 1 6.537584,-6.53759 z m -95.568842,15.73444 a 6.5375374,6.5375374 0 0 1 6.53759,6.53707 6.5375374,6.5375374 0 0 1 -6.53759,6.53758 6.5375374,6.5375374 0 0 1 -6.53707,-6.53758 6.5375374,6.5375374 0 0 1 6.53707,-6.53707 z m 15.92823,0 a 6.5375374,6.5375374 0 0 1 6.53758,6.53707 6.5375374,6.5375374 0 0 1 -6.53758,6.53758 6.5375374,6.5375374 0 0 1 -6.53759,-6.53758 6.5375374,6.5375374 0 0 1 6.53759,-6.53707 z m 15.92822,0 a 6.5375374,6.5375374 0 0 1 6.53759,6.53707 6.5375374,6.5375374 0 0 1 -6.53759,6.53758 6.5375374,6.5375374 0 0 1 -6.53758,-6.53758 6.5375374,6.5375374 0 0 1 6.53758,-6.53707 z m 15.92823,0 a 6.5375374,6.5375374 0 0 1 6.537068,6.53707 6.5375374,6.5375374 0 0 1 -6.537068,6.53758 6.5375374,6.5375374 0 0 1 -6.53759,-6.53758 6.5375374,6.5375374 0 0 1 6.53759,-6.53707 z m 15.92771,0 a 6.5375374,6.5375374 0 0 1 6.537584,6.53707 6.5375374,6.5375374 0 0 1 -6.537584,6.53758 6.5375374,6.5375374 0 0 1 -6.537587,-6.53758 6.5375374,6.5375374 0 0 1 6.537587,-6.53707 z m 15.928226,0 a 6.5375374,6.5375374 0 0 1 6.537584,6.53707 6.5375374,6.5375374 0 0 1 -6.537584,6.53758 6.5375374,6.5375374 0 0 1 -6.537587,-6.53758 6.5375374,6.5375374 0 0 1 6.537587,-6.53707 z m 15.928226,0 a 6.5375374,6.5375374 0 0 1 6.537584,6.53707 6.5375374,6.5375374 0 0 1 -6.537584,6.53758 6.5375374,6.5375374 0 0 1 -6.537584,-6.53758 6.5375374,6.5375374 0 0 1 6.537584,-6.53707 z m -95.568842,15.73392 a 6.5375374,6.5375374 0 0 1 6.53759,6.53759 6.5375374,6.5375374 0 0 1 -6.53759,6.53758 6.5375374,6.5375374 0 0 1 -6.53707,-6.53758 6.5375374,6.5375374 0 0 1 6.53707,-6.53759 z m 15.92823,0 a 6.5375374,6.5375374 0 0 1 6.53758,6.53759 6.5375374,6.5375374 0 0 1 -6.53758,6.53758 6.5375374,6.5375374 0 0 1 -6.53759,-6.53758 6.5375374,6.5375374 0 0 1 6.53759,-6.53759 z m 15.92822,0 a 6.5375374,6.5375374 0 0 1 6.53759,6.53759 6.5375374,6.5375374 0 0 1 -6.53759,6.53758 6.5375374,6.5375374 0 0 1 -6.53758,-6.53758 6.5375374,6.5375374 0 0 1 6.53758,-6.53759 z m 15.92823,0 a 6.5375374,6.5375374 0 0 1 6.537068,6.53759 6.5375374,6.5375374 0 0 1 -6.537068,6.53758 6.5375374,6.5375374 0 0 1 -6.53759,-6.53758 6.5375374,6.5375374 0 0 1 6.53759,-6.53759 z m 15.92771,0 a 6.5375374,6.5375374 0 0 1 6.537584,6.53759 6.5375374,6.5375374 0 0 1 -6.537584,6.53758 6.5375374,6.5375374 0 0 1 -6.537587,-6.53758 6.5375374,6.5375374 0 0 1 6.537587,-6.53759 z m 15.928226,0 a 6.5375374,6.5375374 0 0 1 6.537584,6.53759 6.5375374,6.5375374 0 0 1 -6.537584,6.53758 6.5375374,6.5375374 0 0 1 -6.537587,-6.53758 6.5375374,6.5375374 0 0 1 6.537587,-6.53759 z m 15.928226,0 a 6.5375374,6.5375374 0 0 1 6.537584,6.53759 6.5375374,6.5375374 0 0 1 -6.537584,6.53758 6.5375374,6.5375374 0 0 1 -6.537584,-6.53758 6.5375374,6.5375374 0 0 1 6.537584,-6.53759 z"
         id="path1309" />
      <path
         inkscape:connector-curvature="0"
         id="path1315"
         d="M -55.641307,-240.77811 V -256.5871"
         style="fill:#596ba8;fill-opacity:1;stroke:#000000;stroke-width:0.79374999;stroke-linecap:butt;stroke-linejoin:miter;stroke-miterlimit:4;stroke-dasharray:none;stroke-opacity:1" />
      <path
         style="fill:#596ba8;fill-opacity:1;stroke:#000000;stroke-width:0.79374999;stroke-linecap:butt;stroke-linejoin:miter;stroke-miterlimit:4;stroke-dasharray:none;stroke-opacity:1"
         d="M -71.534692,-240.77811 V -256.5871"
         id="path1317"
         inkscape:connector-curvature="0" />
      <path
         inkscape:connector-curvature="0"
         id="path1319"
         d="M -87.473472,-240.77811 V -256.5871"
         style="fill:#596ba8;fill-opacity:1;stroke:#000000;stroke-width:0.79374999;stroke-linecap:butt;stroke-linejoin:miter;stroke-miterlimit:4;stroke-dasharray:none;stroke-opacity:1" />
      <path
         style="fill:#596ba8;fill-opacity:1;stroke:#000000;stroke-width:0.79374999;stroke-linecap:butt;stroke-linejoin:miter;stroke-miterlimit:4;stroke-dasharray:none;stroke-opacity:1"
         d="M -103.40609,-240.77811 V -256.5871"
         id="path1321"
         inkscape:connector-curvature="0" />
      <path
         inkscape:connector-curvature="0"
         id="path1323"
         d="M -119.35421,-240.77811 V -256.5871"
         style="fill:#596ba8;fill-opacity:1;stroke:#000000;stroke-width:0.79374999;stroke-linecap:butt;stroke-linejoin:miter;stroke-miterlimit:4;stroke-dasharray:none;stroke-opacity:1" />
      <path
         style="fill:#596ba8;fill-opacity:1;stroke:#000000;stroke-width:0.79374999;stroke-linecap:butt;stroke-linejoin:miter;stroke-miterlimit:4;stroke-dasharray:none;stroke-opacity:1"
         d="M -135.27133,-240.77811 V -256.5871"
         id="path1325"
         inkscape:connector-curvature="0" />
    </g>
  </g>
</svg>
