<?xml version="1.0" encoding="UTF-8" standalone="no"?>
<!-- Created with Inkscape (http://www.inkscape.org/) -->

<svg
   xmlns:dc="http://purl.org/dc/elements/1.1/"
   xmlns:cc="http://creativecommons.org/ns#"
   xmlns:rdf="http://www.w3.org/1999/02/22-rdf-syntax-ns#"
   xmlns:svg="http://www.w3.org/2000/svg"
   xmlns="http://www.w3.org/2000/svg"
   xmlns:sodipodi="http://sodipodi.sourceforge.net/DTD/sodipodi-0.dtd"
   xmlns:inkscape="http://www.inkscape.org/namespaces/inkscape"
   width="114.5594mm"
   height="98.232758mm"
   viewBox="0 0 114.5594 98.232758"
   version="1.1"
   id="svg1412"
   inkscape:version="0.92.2 (5c3e80d, 2017-08-06)"
   sodipodi:docname="boardFront.svg">
  <defs
     id="defs1406" />
  <sodipodi:namedview
     id="base"
     pagecolor="#ffffff"
     bordercolor="#666666"
     borderopacity="1.0"
     inkscape:pageopacity="0.0"
     inkscape:pageshadow="2"
     inkscape:zoom="1.4"
     inkscape:cx="245.47109"
     inkscape:cy="121.97486"
     inkscape:document-units="mm"
     inkscape:current-layer="layer1"
     showgrid="false"
     fit-margin-top="0"
     fit-margin-left="0"
     fit-margin-right="0"
     fit-margin-bottom="0"
     inkscape:window-width="1278"
     inkscape:window-height="1368"
     inkscape:window-x="1273"
     inkscape:window-y="0"
     inkscape:window-maximized="0" />
  <metadata
     id="metadata1409">
    <rdf:RDF>
      <cc:Work
         rdf:about="">
        <dc:format>image/svg+xml</dc:format>
        <dc:type
           rdf:resource="http://purl.org/dc/dcmitype/StillImage" />
        <dc:title></dc:title>
      </cc:Work>
    </rdf:RDF>
  </metadata>
  <g
     inkscape:label="Layer 1"
     inkscape:groupmode="layer"
     id="layer1"
     transform="translate(-22.85125,-27.145525)">
    <path
       style="display:inline;opacity:1;fill:#6e84cf;fill-opacity:1;stroke:#000000;stroke-width:0.79374999;stroke-linecap:round;stroke-linejoin:miter;stroke-miterlimit:4;stroke-dasharray:none;stroke-opacity:1"
       d="m 32.486314,27.5424 c -5.117749,0 -9.238189,4.12044 -9.238189,9.2382 v 78.96314 c 0,5.11775 4.12044,9.23767 9.238189,9.23767 h 95.289276 c 5.11775,0 9.23819,-4.11992 9.23819,-9.23767 V 36.7806 c 0,-5.11776 -4.12044,-9.2382 -9.23819,-9.2382 z m -0.13384,2.96778 a 6.5375372,6.5375372 0 0 1 6.537591,6.53758 6.5375372,6.5375372 0 0 1 -6.537591,6.53759 6.5375372,6.5375372 0 0 1 -6.537069,-6.53759 6.5375372,6.5375372 0 0 1 6.537069,-6.53758 z m 15.92823,0 a 6.5375372,6.5375372 0 0 1 6.537581,6.53758 6.5375372,6.5375372 0 0 1 -6.537581,6.53759 6.5375372,6.5375372 0 0 1 -6.537589,-6.53759 6.5375372,6.5375372 0 0 1 6.537589,-6.53758 z m 15.92822,0 a 6.5375372,6.5375372 0 0 1 6.53759,6.53758 6.5375372,6.5375372 0 0 1 -6.53759,6.53759 6.5375372,6.5375372 0 0 1 -6.537579,-6.53759 6.5375372,6.5375372 0 0 1 6.537579,-6.53758 z m 15.928229,0 a 6.5375372,6.5375372 0 0 1 6.537069,6.53758 6.5375372,6.5375372 0 0 1 -6.537069,6.53759 6.5375372,6.5375372 0 0 1 -6.537589,-6.53759 6.5375372,6.5375372 0 0 1 6.537589,-6.53758 z m 15.927711,0 a 6.5375372,6.5375372 0 0 1 6.537586,6.53758 6.5375372,6.5375372 0 0 1 -6.537586,6.53759 6.5375372,6.5375372 0 0 1 -6.537587,-6.53759 6.5375372,6.5375372 0 0 1 6.537587,-6.53758 z m 15.928226,0 a 6.5375372,6.5375372 0 0 1 6.53758,6.53758 6.5375372,6.5375372 0 0 1 -6.53758,6.53759 6.5375372,6.5375372 0 0 1 -6.53759,-6.53759 6.5375372,6.5375372 0 0 1 6.53759,-6.53758 z m 15.92823,0 a 6.5375372,6.5375372 0 0 1 6.53758,6.53758 6.5375372,6.5375372 0 0 1 -6.53758,6.53759 6.5375372,6.5375372 0 0 1 -6.53759,-6.53759 6.5375372,6.5375372 0 0 1 6.53759,-6.53758 z M 32.352474,46.2441 a 6.5375372,6.5375372 0 0 1 6.537591,6.53759 6.5375372,6.5375372 0 0 1 -6.537591,6.537578 6.5375372,6.5375372 0 0 1 -6.537069,-6.537578 6.5375372,6.5375372 0 0 1 6.537069,-6.53759 z m 15.92823,0 a 6.5375372,6.5375372 0 0 1 6.537581,6.53759 6.5375372,6.5375372 0 0 1 -6.537581,6.537578 6.5375372,6.5375372 0 0 1 -6.537589,-6.537578 6.5375372,6.5375372 0 0 1 6.537589,-6.53759 z m 15.92822,0 a 6.5375372,6.5375372 0 0 1 6.53759,6.53759 6.5375372,6.5375372 0 0 1 -6.53759,6.537578 6.5375372,6.5375372 0 0 1 -6.537579,-6.537578 6.5375372,6.5375372 0 0 1 6.537579,-6.53759 z m 15.928229,0 a 6.5375372,6.5375372 0 0 1 6.537069,6.53759 6.5375372,6.5375372 0 0 1 -6.537069,6.537578 6.5375372,6.5375372 0 0 1 -6.537589,-6.537578 6.5375372,6.5375372 0 0 1 6.537589,-6.53759 z m 15.927711,0 a 6.5375372,6.5375372 0 0 1 6.537586,6.53759 6.5375372,6.5375372 0 0 1 -6.537586,6.537578 6.5375372,6.5375372 0 0 1 -6.537587,-6.537578 6.5375372,6.5375372 0 0 1 6.537587,-6.53759 z m 15.928226,0 a 6.5375372,6.5375372 0 0 1 6.53758,6.53759 6.5375372,6.5375372 0 0 1 -6.53758,6.537578 6.5375372,6.5375372 0 0 1 -6.53759,-6.537578 6.5375372,6.5375372 0 0 1 6.53759,-6.53759 z m 15.92823,0 a 6.5375372,6.5375372 0 0 1 6.53758,6.53759 6.5375372,6.5375372 0 0 1 -6.53758,6.537578 6.5375372,6.5375372 0 0 1 -6.53759,-6.537578 6.5375372,6.5375372 0 0 1 6.53759,-6.53759 z M 32.352474,61.97854 a 6.5375372,6.5375372 0 0 1 6.537591,6.53759 6.5375372,6.5375372 0 0 1 -6.537591,6.537071 6.5375372,6.5375372 0 0 1 -6.537069,-6.537071 6.5375372,6.5375372 0 0 1 6.537069,-6.53759 z m 15.92823,0 a 6.5375372,6.5375372 0 0 1 6.537581,6.53759 6.5375372,6.5375372 0 0 1 -6.537581,6.537071 6.5375372,6.5375372 0 0 1 -6.537589,-6.537071 6.5375372,6.5375372 0 0 1 6.537589,-6.53759 z m 15.92822,0 a 6.5375372,6.5375372 0 0 1 6.53759,6.53759 6.5375372,6.5375372 0 0 1 -6.53759,6.537071 6.5375372,6.5375372 0 0 1 -6.537579,-6.537071 6.5375372,6.5375372 0 0 1 6.537579,-6.53759 z m 15.928229,0 a 6.5375372,6.5375372 0 0 1 6.537069,6.53759 6.5375372,6.5375372 0 0 1 -6.537069,6.537071 6.5375372,6.5375372 0 0 1 -6.537589,-6.537071 6.5375372,6.5375372 0 0 1 6.537589,-6.53759 z m 15.927711,0 a 6.5375372,6.5375372 0 0 1 6.537586,6.53759 6.5375372,6.5375372 0 0 1 -6.537586,6.537071 6.5375372,6.5375372 0 0 1 -6.537587,-6.537071 6.5375372,6.5375372 0 0 1 6.537587,-6.53759 z m 15.928226,0 a 6.5375372,6.5375372 0 0 1 6.53758,6.53759 6.5375372,6.5375372 0 0 1 -6.53758,6.537071 6.5375372,6.5375372 0 0 1 -6.53759,-6.537071 6.5375372,6.5375372 0 0 1 6.53759,-6.53759 z m 15.92823,0 a 6.5375372,6.5375372 0 0 1 6.53758,6.53759 6.5375372,6.5375372 0 0 1 -6.53758,6.537071 6.5375372,6.5375372 0 0 1 -6.53759,-6.537071 6.5375372,6.5375372 0 0 1 6.53759,-6.53759 z M 32.352474,77.712459 a 6.5375372,6.5375372 0 0 1 6.537591,6.537592 6.5375372,6.5375372 0 0 1 -6.537591,6.53759 6.5375372,6.5375372 0 0 1 -6.537069,-6.53759 6.5375372,6.5375372 0 0 1 6.537069,-6.537592 z m 15.92823,0 a 6.5375372,6.5375372 0 0 1 6.537581,6.537592 6.5375372,6.5375372 0 0 1 -6.537581,6.53759 6.5375372,6.5375372 0 0 1 -6.537589,-6.53759 6.5375372,6.5375372 0 0 1 6.537589,-6.537592 z m 15.92822,0 a 6.5375372,6.5375372 0 0 1 6.53759,6.537592 6.5375372,6.5375372 0 0 1 -6.53759,6.53759 6.5375372,6.5375372 0 0 1 -6.537579,-6.53759 6.5375372,6.5375372 0 0 1 6.537579,-6.537592 z m 15.928229,0 a 6.5375372,6.5375372 0 0 1 6.537069,6.537592 6.5375372,6.5375372 0 0 1 -6.537069,6.53759 6.5375372,6.5375372 0 0 1 -6.537589,-6.53759 6.5375372,6.5375372 0 0 1 6.537589,-6.537592 z m 15.927711,0 a 6.5375372,6.5375372 0 0 1 6.537586,6.537592 6.5375372,6.5375372 0 0 1 -6.537586,6.53759 6.5375372,6.5375372 0 0 1 -6.537587,-6.53759 6.5375372,6.5375372 0 0 1 6.537587,-6.537592 z m 15.928226,0 a 6.5375372,6.5375372 0 0 1 6.53758,6.537592 6.5375372,6.5375372 0 0 1 -6.53758,6.53759 6.5375372,6.5375372 0 0 1 -6.53759,-6.53759 6.5375372,6.5375372 0 0 1 6.53759,-6.537592 z m 15.92823,0 a 6.5375372,6.5375372 0 0 1 6.53758,6.537592 6.5375372,6.5375372 0 0 1 -6.53758,6.53759 6.5375372,6.5375372 0 0 1 -6.53759,-6.53759 6.5375372,6.5375372 0 0 1 6.53759,-6.537592 z M 32.352474,93.446901 a 6.5375372,6.5375372 0 0 1 6.537591,6.53707 6.5375372,6.5375372 0 0 1 -6.537591,6.537589 6.5375372,6.5375372 0 0 1 -6.537069,-6.537589 6.5375372,6.5375372 0 0 1 6.537069,-6.53707 z m 15.92823,0 a 6.5375372,6.5375372 0 0 1 6.537581,6.53707 6.5375372,6.5375372 0 0 1 -6.537581,6.537589 6.5375372,6.5375372 0 0 1 -6.537589,-6.537589 6.5375372,6.5375372 0 0 1 6.537589,-6.53707 z m 15.92822,0 a 6.5375372,6.5375372 0 0 1 6.53759,6.53707 6.5375372,6.5375372 0 0 1 -6.53759,6.537589 6.5375372,6.5375372 0 0 1 -6.537579,-6.537589 6.5375372,6.5375372 0 0 1 6.537579,-6.53707 z m 15.928229,0 a 6.5375372,6.5375372 0 0 1 6.537069,6.53707 6.5375372,6.5375372 0 0 1 -6.537069,6.537589 6.5375372,6.5375372 0 0 1 -6.537589,-6.537589 6.5375372,6.5375372 0 0 1 6.537589,-6.53707 z m 15.927711,0 a 6.5375372,6.5375372 0 0 1 6.537586,6.53707 6.5375372,6.5375372 0 0 1 -6.537586,6.537589 6.5375372,6.5375372 0 0 1 -6.537587,-6.537589 6.5375372,6.5375372 0 0 1 6.537587,-6.53707 z m 15.928226,0 a 6.5375372,6.5375372 0 0 1 6.53758,6.53707 6.5375372,6.5375372 0 0 1 -6.53758,6.537589 6.5375372,6.5375372 0 0 1 -6.53759,-6.537589 6.5375372,6.5375372 0 0 1 6.53759,-6.53707 z m 15.92823,0 a 6.5375372,6.5375372 0 0 1 6.53758,6.53707 6.5375372,6.5375372 0 0 1 -6.53758,6.537589 6.5375372,6.5375372 0 0 1 -6.53759,-6.537589 6.5375372,6.5375372 0 0 1 6.53759,-6.53707 z M 32.352474,109.18083 a 6.5375372,6.5375372 0 0 1 6.537591,6.53758 6.5375372,6.5375372 0 0 1 -6.537591,6.53759 6.5375372,6.5375372 0 0 1 -6.537069,-6.53759 6.5375372,6.5375372 0 0 1 6.537069,-6.53758 z m 15.92823,0 a 6.5375372,6.5375372 0 0 1 6.537581,6.53758 6.5375372,6.5375372 0 0 1 -6.537581,6.53759 6.5375372,6.5375372 0 0 1 -6.537589,-6.53759 6.5375372,6.5375372 0 0 1 6.537589,-6.53758 z m 15.92822,0 a 6.5375372,6.5375372 0 0 1 6.53759,6.53758 6.5375372,6.5375372 0 0 1 -6.53759,6.53759 6.5375372,6.5375372 0 0 1 -6.537579,-6.53759 6.5375372,6.5375372 0 0 1 6.537579,-6.53758 z m 15.928229,0 a 6.5375372,6.5375372 0 0 1 6.537069,6.53758 6.5375372,6.5375372 0 0 1 -6.537069,6.53759 6.5375372,6.5375372 0 0 1 -6.537589,-6.53759 6.5375372,6.5375372 0 0 1 6.537589,-6.53758 z m 15.927711,0 a 6.5375372,6.5375372 0 0 1 6.537586,6.53758 6.5375372,6.5375372 0 0 1 -6.537586,6.53759 6.5375372,6.5375372 0 0 1 -6.537587,-6.53759 6.5375372,6.5375372 0 0 1 6.537587,-6.53758 z m 15.928226,0 a 6.5375372,6.5375372 0 0 1 6.53758,6.53758 6.5375372,6.5375372 0 0 1 -6.53758,6.53759 6.5375372,6.5375372 0 0 1 -6.53759,-6.53759 6.5375372,6.5375372 0 0 1 6.53759,-6.53758 z m 15.92823,0 a 6.5375372,6.5375372 0 0 1 6.53758,6.53758 6.5375372,6.5375372 0 0 1 -6.53758,6.53759 6.5375372,6.5375372 0 0 1 -6.53759,-6.53759 6.5375372,6.5375372 0 0 1 6.53759,-6.53758 z"
       id="rect1083"
       inkscape:connector-curvature="0" />
  </g>
</svg>
