<?xml version="1.0" encoding="UTF-8" standalone="no"?>
<!-- Created with Inkscape (http://www.inkscape.org/) -->

<svg
   xmlns:dc="http://purl.org/dc/elements/1.1/"
   xmlns:cc="http://creativecommons.org/ns#"
   xmlns:rdf="http://www.w3.org/1999/02/22-rdf-syntax-ns#"
   xmlns:svg="http://www.w3.org/2000/svg"
   xmlns="http://www.w3.org/2000/svg"
   xmlns:sodipodi="http://sodipodi.sourceforge.net/DTD/sodipodi-0.dtd"
   xmlns:inkscape="http://www.inkscape.org/namespaces/inkscape"
   width="190.55765"
   height="55.323425"
   viewBox="0 0 50.418376 14.637656"
   version="1.1"
   id="svg2218"
   inkscape:version="0.92.2 (5c3e80d, 2017-08-06)"
   sodipodi:docname="logo.svg">
  <defs
     id="defs2212" />
  <sodipodi:namedview
     id="base"
     pagecolor="#ffffff"
     bordercolor="#666666"
     borderopacity="1.0"
     inkscape:pageopacity="0.0"
     inkscape:pageshadow="2"
     inkscape:zoom="2.8"
     inkscape:cx="105.44528"
     inkscape:cy="-18.25395"
     inkscape:document-units="px"
     inkscape:current-layer="layer1"
     showgrid="false"
     fit-margin-top="0"
     fit-margin-left="0"
     fit-margin-right="0"
     fit-margin-bottom="0"
     inkscape:window-width="1278"
     inkscape:window-height="1368"
     inkscape:window-x="1273"
     inkscape:window-y="0"
     inkscape:window-maximized="0"
     units="px" />
  <metadata
     id="metadata2215">
    <rdf:RDF>
      <cc:Work
         rdf:about="">
        <dc:format>image/svg+xml</dc:format>
        <dc:type
           rdf:resource="http://purl.org/dc/dcmitype/StillImage" />
        <dc:title></dc:title>
      </cc:Work>
    </rdf:RDF>
  </metadata>
  <g
     inkscape:label="Layer 1"
     inkscape:groupmode="layer"
     id="layer1"
     transform="translate(-127.64754,-199.09959)">
    <g
       transform="translate(193.39268,264.2245)"
       style="display:inline"
       id="g1063">
      <path
         style="fill:none;stroke:#000000;stroke-width:4.23333311;stroke-linecap:butt;stroke-linejoin:miter;stroke-miterlimit:4;stroke-dasharray:none;stroke-opacity:1"
         d="m -60.83707,-54.815289 h 39.732191 v 2.211372 h 2.465137 v -2.247623 h 1.196315 v -2.320128 h -1.196315 v -5.836572 h -2.646396 l -1.486334,2.283875 h -38.173354 c 0,0 -2.682646,0 -2.682646,3.04517 0,3.045167 2.791402,2.863906 2.791402,2.863906 z"
         id="path25620"
         inkscape:connector-curvature="0" />
      <path
         inkscape:connector-curvature="0"
         id="path1000"
         d="m -60.83707,-54.815289 h 39.732191 v 2.211372 h 2.465137 v -2.247623 h 1.196315 v -2.320128 h -1.196315 v -5.836572 h -2.646396 l -1.486334,2.283875 h -38.173354 c 0,0 -2.682646,0 -2.682646,3.04517 0,3.045167 2.791402,2.863906 2.791402,2.863906 z"
         style="fill:none;stroke:#ffffff;stroke-width:3.07608414;stroke-linecap:butt;stroke-linejoin:miter;stroke-miterlimit:4;stroke-dasharray:none;stroke-opacity:1" />
      <path
         style="fill:#000000;fill-opacity:1;stroke:#000000;stroke-width:2.0507226;stroke-linecap:butt;stroke-linejoin:miter;stroke-miterlimit:4;stroke-dasharray:none;stroke-opacity:1"
         d="m -60.83707,-54.815289 h 39.732191 v 2.211372 h 2.465137 v -2.247623 h 1.196315 v -2.320128 h -1.196315 v -5.836572 h -2.646396 l -1.486334,2.283875 h -38.173354 c 0,0 -2.682646,0 -2.682646,3.04517 0,3.045167 2.791402,2.863906 2.791402,2.863906 z"
         id="path1002"
         inkscape:connector-curvature="0" />
      <rect
         ry="0.21071176"
         rx="0.21071176"
         y="-60.035576"
         x="-63.084694"
         height="4.2414837"
         width="43.71991"
         id="rect1006"
         style="opacity:1;fill:#000000;fill-opacity:1;stroke:none;stroke-width:0;stroke-linecap:round;stroke-linejoin:miter;stroke-miterlimit:4;stroke-dasharray:none;stroke-opacity:1" />
      <g
         aria-label="CONNECT"
         style="font-style:normal;font-variant:normal;font-weight:normal;font-stretch:normal;font-size:8.2028904px;line-height:1.25;font-family:Questrial;-inkscape-font-specification:Questrial;letter-spacing:0px;word-spacing:0px;fill:#ffffff;fill-opacity:1;stroke:#ffffff;stroke-width:0.41014457;stroke-miterlimit:4;stroke-dasharray:none"
         id="text983">
        <path
           d="m -60.586387,-55.602497 q 0.582406,0 1.017159,-0.295304 0.442956,-0.295304 0.656231,-0.795681 h 0.648028 q -0.270695,0.771072 -0.894115,1.214028 -0.664434,0.475768 -1.566752,0.475768 -1.189419,0 -1.927679,-0.812086 -0.697246,-0.779275 -0.697246,-1.968694 0,-1.189419 0.697246,-1.968694 0.73826,-0.812086 1.927679,-0.812086 0.902318,0 1.566752,0.475768 0.62342,0.442956 0.894115,1.214028 h -0.648028 q -0.213275,-0.500377 -0.656231,-0.795681 -0.434753,-0.295304 -1.017159,-0.295304 -0.582405,0 -0.967941,0.172261 -0.385535,0.164058 -0.648028,0.459362 -0.533188,0.598811 -0.533188,1.550346 0,0.951535 0.533188,1.550346 0.557797,0.631623 1.615969,0.631623 z"
           style="fill:#ffffff;stroke:#ffffff;stroke-width:0.41014457;stroke-miterlimit:4;stroke-dasharray:none"
           id="path3464"
           inkscape:connector-curvature="0" />
        <path
           d="m -54.979134,-60.565246 q 1.214027,0 1.993302,0.812086 0.762869,0.787478 0.762869,1.968694 0,1.181216 -0.762869,1.968694 -0.779275,0.812086 -1.993302,0.812086 -1.214028,0 -1.993303,-0.812086 -0.762868,-0.787478 -0.762868,-1.968694 0,-1.181216 0.762868,-1.968694 0.779275,-0.812086 1.993303,-0.812086 z m 0,4.962749 q 0.967941,0 1.566752,-0.631623 0.574202,-0.607014 0.574202,-1.550346 0,-0.943332 -0.574202,-1.550346 -0.598811,-0.631623 -1.566752,-0.631623 -0.967941,0 -1.566752,0.631623 -0.574203,0.607014 -0.574203,1.550346 0,0.943332 0.574203,1.550346 0.598811,0.631623 1.566752,0.631623 z"
           style="fill:#ffffff;stroke:#ffffff;stroke-width:0.41014457;stroke-miterlimit:4;stroke-dasharray:none"
           id="path3466"
           inkscape:connector-curvature="0" />
        <path
           d="m -46.546755,-60.499623 v 5.430314 h -0.713651 l -3.354983,-4.585416 v 4.585416 h -0.615216 v -5.430314 h 0.713651 l 3.354982,4.56901 v -4.56901 z"
           style="fill:#ffffff;stroke:#ffffff;stroke-width:0.41014457;stroke-miterlimit:4;stroke-dasharray:none"
           id="path3468"
           inkscape:connector-curvature="0" />
        <path
           d="m -40.538778,-60.499623 v 5.430314 h -0.713651 l -3.354982,-4.585416 v 4.585416 h -0.615217 v -5.430314 h 0.713652 l 3.354982,4.56901 v -4.56901 z"
           style="fill:#ffffff;stroke:#ffffff;stroke-width:0.41014457;stroke-miterlimit:4;stroke-dasharray:none"
           id="path3470"
           inkscape:connector-curvature="0" />
        <path
           d="m -38.599435,-59.909015 v 1.821042 h 3.018664 v 0.598811 h -3.018664 v 1.829245 h 3.379591 v 0.590608 h -3.994807 v -5.430314 h 3.994807 v 0.590608 z"
           style="fill:#ffffff;stroke:#ffffff;stroke-width:0.41014457;stroke-miterlimit:4;stroke-dasharray:none"
           id="path3472"
           inkscape:connector-curvature="0" />
        <path
           d="m -31.908313,-55.602497 q 0.582406,0 1.017159,-0.295304 0.442956,-0.295304 0.656231,-0.795681 h 0.648028 q -0.270695,0.771072 -0.894115,1.214028 -0.664434,0.475768 -1.566752,0.475768 -1.189419,0 -1.927679,-0.812086 -0.697246,-0.779275 -0.697246,-1.968694 0,-1.189419 0.697246,-1.968694 0.73826,-0.812086 1.927679,-0.812086 0.902318,0 1.566752,0.475768 0.62342,0.442956 0.894115,1.214028 h -0.648028 q -0.213275,-0.500377 -0.656231,-0.795681 -0.434753,-0.295304 -1.017159,-0.295304 -0.582405,0 -0.967941,0.172261 -0.385536,0.164058 -0.648028,0.459362 -0.533188,0.598811 -0.533188,1.550346 0,0.951535 0.533188,1.550346 0.557796,0.631623 1.615969,0.631623 z"
           style="fill:#ffffff;stroke:#ffffff;stroke-width:0.41014457;stroke-miterlimit:4;stroke-dasharray:none"
           id="path3474"
           inkscape:connector-curvature="0" />
        <path
           d="m -24.857351,-59.909015 h -1.894868 v 4.839706 h -0.615217 v -4.839706 h -1.894867 v -0.590608 h 4.404952 z"
           style="fill:#ffffff;stroke:#ffffff;stroke-width:0.41014457;stroke-miterlimit:4;stroke-dasharray:none"
           id="path3476"
           inkscape:connector-curvature="0" />
      </g>
      <path
         sodipodi:nodetypes="ccccccccccccccccccc"
         inkscape:connector-curvature="0"
         id="path998"
         d="m -20.039101,-62.835073 h -1.12036 l -4.048978,6.115197 v 1.66916 h 4.33223 v 2.316594 h 2.053573 v -2.316594 h 1.221522 v -1.944825 h -0.515923 -0.705599 v -5.839532 h -1.026787 z m -0.837108,3.062656 v 2.776876 h -1.889186 z"
         style="color:#000000;font-style:normal;font-variant:normal;font-weight:normal;font-stretch:normal;font-size:medium;line-height:1.25;font-family:Questrial;-inkscape-font-specification:Questrial;font-variant-ligatures:normal;font-variant-position:normal;font-variant-caps:normal;font-variant-numeric:normal;font-variant-alternates:normal;font-feature-settings:normal;text-indent:0;text-align:start;text-decoration:none;text-decoration-line:none;text-decoration-style:solid;text-decoration-color:#000000;letter-spacing:0px;word-spacing:0px;text-transform:none;writing-mode:lr-tb;direction:ltr;text-orientation:mixed;dominant-baseline:auto;baseline-shift:baseline;text-anchor:start;white-space:normal;shape-padding:0;clip-rule:nonzero;display:inline;overflow:visible;visibility:visible;opacity:1;isolation:auto;mix-blend-mode:normal;color-interpolation:sRGB;color-interpolation-filters:linearRGB;solid-color:#000000;solid-opacity:1;vector-effect:none;fill:#d40000;fill-opacity:1;fill-rule:nonzero;stroke:#ffffff;stroke-width:0.3834267;stroke-linecap:butt;stroke-linejoin:miter;stroke-miterlimit:4;stroke-dasharray:none;stroke-dashoffset:0;stroke-opacity:1;color-rendering:auto;image-rendering:auto;shape-rendering:auto;text-rendering:auto;enable-background:accumulate" />
    </g>
  </g>
</svg>
